SkeenaIndigenous-Black.ufo
<glyph name="exclam" format="2">
  <advance width="660"/>
  <unicode hex="0021"/>
  <outline>
    <contour>
      <point x="191" y="481" type="line"/>
      <point x="105" y="1302" type="line"/>
      <point x="577" y="1359" type="line"/>
      <point x="489" y="481" type="line"/>
    </contour>
    <contour>
      <point x="325" y="-24" type="curve" smooth="yes"/>
      <point x="203" y="-24"/>
      <point x="126" y="53"/>
      <point x="126" y="175" type="curve" smooth="yes"/>
      <point x="126" y="300"/>
      <point x="209" y="380"/>
      <point x="340" y="380" type="curve" smooth="yes"/>
      <point x="464" y="380"/>
      <point x="543" y="303"/>
      <point x="543" y="183" type="curve" smooth="yes"/>
      <point x="543" y="59"/>
      <point x="455" y="-24"/>
    </contour>
  </outline>
  <guideline angle="8.96176" x="0" y="1249.19"/>
</glyph>
<glyph name="numbersign" format="2">
  <advance width="1225"/>
  <unicode hex="0023"/>
  <outline>
    <contour>
      <point x="156" y="0" type="line"/>
      <point x="451" y="0" type="line"/>
      <point x="611" y="1106" type="line"/>
      <point x="316" y="1106" type="line"/>
    </contour>
    <contour>
      <point x="596" y="0" type="line"/>
      <point x="891" y="0" type="line"/>
      <point x="1051" y="1106" type="line"/>
      <point x="756" y="1106" type="line"/>
    </contour>
    <contour>
      <point x="32" y="259" type="line"/>
      <point x="1091" y="259" type="line"/>
      <point x="1119" y="461" type="line"/>
      <point x="61" y="461" type="line"/>
    </contour>
    <contour>
      <point x="88" y="647" type="line"/>
      <point x="1147" y="647" type="line"/>
      <point x="1175" y="849" type="line"/>
      <point x="117" y="849" type="line"/>
    </contour>
  </outline>
  <guideline angle="0" x="0" y="553"/>
  <guideline angle="76.0015" x="57.7397" y="0"/>
  <guideline angle="81.8001" x="9.165" y="0"/>
</glyph>
<glyph name="dollar" format="2">
  <advance width="1069"/>
  <unicode hex="0024"/>
  <outline>
    <contour>
      <point x="84" y="146" type="curve"/>
      <point x="32" y="367" type="line"/>
      <point x="41" y="374" type="line"/>
      <point x="181" y="294"/>
      <point x="310" y="257"/>
      <point x="448" y="257" type="curve" smooth="yes"/>
      <point x="576" y="257"/>
      <point x="635" y="285"/>
      <point x="635" y="346" type="curve" smooth="yes"/>
      <point x="635" y="381"/>
      <point x="616" y="402"/>
      <point x="565" y="424" type="curve"/>
      <point x="565" y="874" type="line"/>
      <point x="683" y="818" type="line" smooth="yes"/>
      <point x="947" y="693"/>
      <point x="1032" y="591"/>
      <point x="1032" y="414" type="curve" smooth="yes"/>
      <point x="1032" y="172"/>
      <point x="832" y="17"/>
      <point x="521" y="17" type="curve" smooth="yes"/>
      <point x="367" y="17"/>
      <point x="212" y="63"/>
    </contour>
    <contour>
      <point x="970" y="1005" type="line"/>
      <point x="878" y="1042"/>
      <point x="759" y="1064"/>
      <point x="657" y="1064" type="curve" smooth="yes"/>
      <point x="512" y="1064"/>
      <point x="439" y="1032"/>
      <point x="439" y="967" type="curve" smooth="yes"/>
      <point x="439" y="934"/>
      <point x="461" y="911"/>
      <point x="514" y="891" type="curve"/>
      <point x="514" y="447" type="line"/>
      <point x="428" y="489" type="line" smooth="yes"/>
      <point x="158" y="621"/>
      <point x="53" y="730"/>
      <point x="53" y="907" type="curve" smooth="yes"/>
      <point x="53" y="1147"/>
      <point x="267" y="1297"/>
      <point x="609" y="1297" type="curve" smooth="yes"/>
      <point x="741" y="1297"/>
      <point x="876" y="1273"/>
      <point x="970" y="1232" type="curve"/>
    </contour>
    <contour>
      <point x="459" y="-139" type="line"/>
      <point x="452" y="1432" type="line"/>
      <point x="621" y="1432" type="line"/>
      <point x="621" y="-120" type="line"/>
    </contour>
  </outline>
  <guideline angle="90" x="543" y="0"/>
</glyph>
<glyph name="ampersand" format="2">
  <advance width="1377"/>
  <unicode hex="0026"/>
  <anchor x="604" y="0" name="bottom"/>
  <anchor x="657" y="1314" name="top"/>
  <outline>
    <contour>
      <point x="1120" y="-17" type="curve" smooth="yes"/>
      <point x="1196" y="-17"/>
      <point x="1269" y="3"/>
      <point x="1323" y="39" type="curve"/>
      <point x="1377" y="251" type="line"/>
      <point x="1370" y="258" type="line"/>
      <point x="1335" y="244"/>
      <point x="1296" y="236"/>
      <point x="1264" y="236" type="curve" smooth="yes"/>
      <point x="1136" y="236"/>
      <point x="1067" y="358"/>
      <point x="834" y="600" type="curve" smooth="yes"/>
      <point x="789" y="647" type="line" smooth="yes"/>
      <point x="611" y="832"/>
      <point x="573" y="885"/>
      <point x="573" y="968" type="curve" smooth="yes"/>
      <point x="573" y="1037"/>
      <point x="616" y="1088"/>
      <point x="681" y="1088" type="curve" smooth="yes"/>
      <point x="753" y="1088"/>
      <point x="780" y="1040"/>
      <point x="780" y="973" type="curve" smooth="yes"/>
      <point x="780" y="917"/>
      <point x="757" y="853"/>
      <point x="734" y="814" type="curve"/>
      <point x="989" y="814" type="line"/>
      <point x="1011" y="845"/>
      <point x="1047" y="922"/>
      <point x="1047" y="1013" type="curve" smooth="yes"/>
      <point x="1047" y="1210"/>
      <point x="909" y="1338"/>
      <point x="657" y="1338" type="curve" smooth="yes"/>
      <point x="380" y="1338"/>
      <point x="196" y="1181"/>
      <point x="196" y="954" type="curve" smooth="yes"/>
      <point x="196" y="836"/>
      <point x="277" y="700"/>
      <point x="502" y="460" type="curve" smooth="yes"/>
      <point x="533" y="427" type="line" smooth="yes"/>
      <point x="806" y="137"/>
      <point x="917" y="-17"/>
    </contour>
    <contour>
      <point x="537" y="-24" type="curve" smooth="yes"/>
      <point x="676" y="-24"/>
      <point x="808" y="12"/>
      <point x="911" y="78" type="curve"/>
      <point x="726" y="266" type="line"/>
      <point x="698" y="242"/>
      <point x="640" y="225"/>
      <point x="588" y="225" type="curve" smooth="yes"/>
      <point x="473" y="225"/>
      <point x="389" y="307"/>
      <point x="389" y="419" type="curve" smooth="yes"/>
      <point x="389" y="475"/>
      <point x="414" y="535"/>
      <point x="453" y="571" type="curve"/>
      <point x="300" y="743" type="line"/>
      <point x="126" y="640"/>
      <point x="46" y="522"/>
      <point x="46" y="370" type="curve" smooth="yes"/>
      <point x="46" y="133"/>
      <point x="241" y="-24"/>
    </contour>
    <contour>
      <point x="1105" y="263" type="line"/>
      <point x="1191" y="391"/>
      <point x="1243" y="520"/>
      <point x="1260" y="689" type="curve"/>
      <point x="952" y="689" type="line"/>
      <point x="945" y="609"/>
      <point x="927" y="537"/>
      <point x="904" y="480" type="curve"/>
    </contour>
  </outline>
  <guideline angle="0" x="0" y="689"/>
  <guideline angle="0" x="0" y="814"/>
</glyph>
<glyph name="quotesingle" format="2">
  <advance width="465"/>
  <unicode hex="0027"/>
  <outline>
    <contour>
      <point x="106" y="722" type="line"/>
      <point x="356" y="722" type="line"/>
      <point x="413" y="1347" type="line"/>
      <point x="56" y="1305" type="line"/>
    </contour>
  </outline>
</glyph>
<glyph name="parenleft" format="2">
  <advance width="741"/>
  <unicode hex="0028"/>
  <outline>
    <contour>
      <point x="499" y="-417" type="curve"/>
      <point x="704" y="-375" type="line"/>
      <point x="523" y="-105"/>
      <point x="431" y="190"/>
      <point x="431" y="497" type="curve" smooth="yes"/>
      <point x="431" y="805"/>
      <point x="523" y="1098"/>
      <point x="704" y="1369" type="curve"/>
      <point x="499" y="1411" type="line"/>
      <point x="221" y="1132"/>
      <point x="82" y="827"/>
      <point x="82" y="497" type="curve" smooth="yes"/>
      <point x="82" y="168"/>
      <point x="222" y="-139"/>
    </contour>
  </outline>
  <guideline angle="0" x="0" y="1411"/>
  <guideline angle="0" x="0" y="-416"/>
</glyph>
<glyph name="parenright" format="2">
  <advance width="741"/>
  <unicode hex="0029"/>
  <outline>
    <contour>
      <point x="37" y="-375" type="curve"/>
      <point x="241" y="-417" type="line"/>
      <point x="518" y="-139"/>
      <point x="658" y="168"/>
      <point x="658" y="497" type="curve" smooth="yes"/>
      <point x="658" y="827"/>
      <point x="519" y="1132"/>
      <point x="241" y="1411" type="curve"/>
      <point x="37" y="1369" type="line"/>
      <point x="218" y="1098"/>
      <point x="310" y="805"/>
      <point x="310" y="497" type="curve" smooth="yes"/>
      <point x="310" y="190"/>
      <point x="218" y="-105"/>
    </contour>
  </outline>
</glyph>
<glyph name="asterisk" format="2">
  <advance width="882"/>
  <unicode hex="002A"/>
  <outline>
    <contour>
      <point x="273" y="1305" type="line"/>
      <point x="521" y="1335" type="line"/>
      <point x="484" y="974" type="line"/>
      <point x="393" y="963" type="line"/>
    </contour>
    <contour>
      <point x="69" y="914" type="line"/>
      <point x="116" y="1159" type="line"/>
      <point x="448" y="1013" type="line"/>
      <point x="431" y="922" type="line"/>
    </contour>
    <contour>
      <point x="377" y="599" type="line"/>
      <point x="159" y="720" type="line"/>
      <point x="400" y="991" type="line"/>
      <point x="481" y="946" type="line"/>
    </contour>
    <contour>
      <point x="772" y="796" type="line"/>
      <point x="589" y="625" type="line"/>
      <point x="406" y="938" type="line"/>
      <point x="475" y="1002" type="line"/>
    </contour>
    <contour>
      <point x="708" y="1232" type="line"/>
      <point x="813" y="1005" type="line"/>
      <point x="458" y="928" type="line"/>
      <point x="419" y="1013" type="line"/>
    </contour>
  </outline>
  <guideline angle="90" x="428" y="0"/>
</glyph>
<glyph name="plus" format="2">
  <advance width="1118"/>
  <unicode hex="002B"/>
  <outline>
    <contour>
      <point x="428" y="-9" type="line"/>
      <point x="690" y="-9" type="line"/>
      <point x="690" y="955" type="line"/>
      <point x="428" y="955" type="line"/>
    </contour>
    <contour>
      <point x="77" y="344" type="line"/>
      <point x="1041" y="344" type="line"/>
      <point x="1041" y="602" type="line"/>
      <point x="77" y="602" type="line"/>
    </contour>
  </outline>
  <guideline angle="0" x="0" y="576"/>
  <guideline angle="90" x="607" y="0"/>
</glyph>
<glyph name="comma" format="2">
  <advance width="596"/>
  <unicode hex="002C"/>
  <outline>
    <contour>
      <point x="166" y="-313" type="line"/>
      <point x="378" y="-255"/>
      <point x="511" y="-89"/>
      <point x="511" y="120" type="curve" smooth="yes"/>
      <point x="511" y="287"/>
      <point x="426" y="387"/>
      <point x="284" y="387" type="curve" smooth="yes"/>
      <point x="156" y="387"/>
      <point x="70" y="306"/>
      <point x="70" y="186" type="curve" smooth="yes"/>
      <point x="70" y="75"/>
      <point x="144" y="4"/>
      <point x="259" y="4" type="curve" smooth="yes"/>
      <point x="293" y="4"/>
      <point x="328" y="11"/>
      <point x="361" y="23" type="curve"/>
      <point x="292" y="20" type="line"/>
      <point x="292" y="-71"/>
      <point x="226" y="-136"/>
      <point x="92" y="-179" type="curve"/>
    </contour>
  </outline>
  <guideline angle="285.154" x="-215" y="953"/>
  <guideline angle="0" x="0" y="387"/>
  <guideline angle="90" x="82" y="0"/>
</glyph>
<glyph name="hyphen" format="2">
  <advance width="724"/>
  <unicode hex="002D"/>
  <outline>
    <contour>
      <point x="51" y="374" type="line"/>
      <point x="656" y="374" type="line"/>
      <point x="673" y="607" type="line"/>
      <point x="68" y="607" type="line"/>
    </contour>
  </outline>
</glyph>
<glyph name="period" format="2">
  <advance width="596"/>
  <unicode hex="002E"/>
  <outline>
    <contour>
      <point x="290" y="-24" type="curve" smooth="yes"/>
      <point x="163" y="-24"/>
      <point x="82" y="54"/>
      <point x="82" y="178" type="curve" smooth="yes"/>
      <point x="82" y="305"/>
      <point x="169" y="387"/>
      <point x="303" y="387" type="curve" smooth="yes"/>
      <point x="432" y="387"/>
      <point x="513" y="310"/>
      <point x="513" y="187" type="curve" smooth="yes"/>
      <point x="513" y="61"/>
      <point x="423" y="-24"/>
    </contour>
  </outline>
</glyph>
<glyph name="slash" format="2">
  <advance width="841"/>
  <unicode hex="002F"/>
  <outline>
    <contour>
      <point x="-18" y="-245" type="line"/>
      <point x="319" y="-245" type="line"/>
      <point x="832" y="1414" type="line"/>
      <point x="495" y="1414" type="line"/>
    </contour>
  </outline>
</glyph>
<glyph name="zero" format="2">
  <advance width="1118"/>
  <unicode hex="0030"/>
  <anchor x="546" y="0" name="bottom"/>
  <anchor x="563" y="1314" name="top"/>
  <outline>
    <contour>
      <point x="545" y="-24" type="curve" smooth="yes"/>
      <point x="208" y="-24"/>
      <point x="32" y="207"/>
      <point x="32" y="651" type="curve" smooth="yes"/>
      <point x="32" y="1101"/>
      <point x="215" y="1338"/>
      <point x="563" y="1338" type="curve" smooth="yes"/>
      <point x="906" y="1338"/>
      <point x="1086" y="1109"/>
      <point x="1086" y="672" type="curve" smooth="yes"/>
      <point x="1086" y="223"/>
      <point x="894" y="-24"/>
    </contour>
    <contour>
      <point x="556" y="211" type="curve" smooth="yes"/>
      <point x="635" y="211"/>
      <point x="665" y="335"/>
      <point x="665" y="665" type="curve" smooth="yes"/>
      <point x="665" y="989"/>
      <point x="637" y="1103"/>
      <point x="558" y="1103" type="curve" smooth="yes"/>
      <point x="480" y="1103"/>
      <point x="453" y="989"/>
      <point x="453" y="657" type="curve" smooth="yes"/>
      <point x="453" y="324"/>
      <point x="479" y="211"/>
    </contour>
  </outline>
</glyph>
<glyph name="one" format="2">
  <advance width="1118"/>
  <unicode hex="0031"/>
  <anchor x="643" y="0" name="bottom"/>
  <anchor x="601" y="1314" name="top"/>
  <anchor x="1048" y="1314" name="topright"/>
  <outline>
    <contour>
      <point x="420" y="0" type="line"/>
      <point x="856" y="0" type="line"/>
      <point x="856" y="1314" type="line"/>
      <point x="460" y="1314" type="line"/>
      <point x="371" y="1243"/>
      <point x="263" y="1180"/>
      <point x="110" y="1111" type="curve"/>
      <point x="110" y="911" type="line"/>
      <point x="119" y="906" type="line"/>
      <point x="233" y="934"/>
      <point x="341" y="972"/>
      <point x="420" y="1011" type="curve"/>
    </contour>
  </outline>
  <guideline angle="114.915" x="572.815" y="0"/>
</glyph>
<glyph name="two" format="2">
  <advance width="1118"/>
  <unicode hex="0032"/>
  <anchor x="538" y="0" name="bottom"/>
  <anchor x="536" y="1314" name="top"/>
  <outline>
    <contour>
      <point x="60" y="0" type="line"/>
      <point x="60" y="236" type="line"/>
      <point x="363" y="532"/>
      <point x="560" y="695"/>
      <point x="560" y="892" type="curve" smooth="yes"/>
      <point x="560" y="1008"/>
      <point x="492" y="1072"/>
      <point x="371" y="1072" type="curve" smooth="yes"/>
      <point x="286" y="1072"/>
      <point x="182" y="1038"/>
      <point x="99" y="983" type="curve"/>
      <point x="99" y="1223" type="line"/>
      <point x="214" y="1295"/>
      <point x="373" y="1338"/>
      <point x="524" y="1338" type="curve" smooth="yes"/>
      <point x="823" y="1338"/>
      <point x="1004" y="1190"/>
      <point x="1004" y="944" type="curve" smooth="yes"/>
      <point x="1004" y="739"/>
      <point x="906" y="615"/>
      <point x="465" y="259" type="curve"/>
      <point x="465" y="185" type="line"/>
      <point x="339" y="250" type="line"/>
      <point x="1036" y="250" type="line"/>
      <point x="1001" y="0" type="line"/>
    </contour>
  </outline>
  <guideline angle="90" x="124" y="0"/>
</glyph>
<glyph name="three" format="2">
  <advance width="1118"/>
  <unicode hex="0033"/>
  <anchor x="526" y="0" name="bottom"/>
  <anchor x="533" y="1314" name="top"/>
  <anchor x="1088" y="1314" name="topright"/>
  <outline>
    <contour>
      <point x="94" y="74" type="line"/>
      <point x="193" y="13"/>
      <point x="340" y="-24"/>
      <point x="488" y="-24" type="curve" smooth="yes"/>
      <point x="820" y="-24"/>
      <point x="1049" y="140"/>
      <point x="1049" y="377" type="curve" smooth="yes"/>
      <point x="1049" y="542"/>
      <point x="934" y="662"/>
      <point x="744" y="695" type="curve"/>
      <point x="744" y="702" type="line"/>
      <point x="920" y="754"/>
      <point x="1015" y="858"/>
      <point x="1015" y="1001" type="curve" smooth="yes"/>
      <point x="1015" y="1207"/>
      <point x="816" y="1338"/>
      <point x="502" y="1338" type="curve" smooth="yes"/>
      <point x="351" y="1338"/>
      <point x="212" y="1308"/>
      <point x="98" y="1250" type="curve"/>
      <point x="98" y="1017" type="line"/>
      <point x="176" y="1052"/>
      <point x="275" y="1072"/>
      <point x="369" y="1072" type="curve" smooth="yes"/>
      <point x="518" y="1072"/>
      <point x="604" y="1023"/>
      <point x="604" y="939" type="curve" smooth="yes"/>
      <point x="604" y="843"/>
      <point x="491" y="785"/>
      <point x="307" y="785" type="curve" smooth="yes"/>
      <point x="282" y="785"/>
      <point x="244" y="785"/>
      <point x="213" y="787" type="curve"/>
      <point x="213" y="554" type="line"/>
      <point x="246" y="558"/>
      <point x="290" y="560"/>
      <point x="331" y="560" type="curve" smooth="yes"/>
      <point x="533" y="560"/>
      <point x="630" y="507"/>
      <point x="630" y="398" type="curve" smooth="yes"/>
      <point x="630" y="292"/>
      <point x="534" y="233"/>
      <point x="359" y="233" type="curve" smooth="yes"/>
      <point x="237" y="233"/>
      <point x="123" y="261"/>
      <point x="50" y="308" type="curve"/>
      <point x="41" y="300" type="line"/>
    </contour>
  </outline>
  <guideline angle="104.343" x="689.211" y="0"/>
  <guideline angle="90" x="1037" y="0"/>
</glyph>
<glyph name="four" format="2">
  <advance width="1118"/>
  <unicode hex="0034"/>
  <anchor x="587" y="0" name="bottom"/>
  <anchor x="587" y="1314" name="top"/>
  <outline>
    <contour>
      <point x="18" y="253" type="line"/>
      <point x="18" y="476" type="line"/>
      <point x="587" y="1314" type="line"/>
      <point x="945" y="1314" type="line"/>
      <point x="945" y="0" type="line"/>
      <point x="519" y="0" type="line"/>
      <point x="519" y="738" type="line" smooth="yes"/>
      <point x="519" y="790"/>
      <point x="519" y="833"/>
      <point x="524" y="891" type="curve"/>
      <point x="515" y="891" type="line"/>
      <point x="257" y="507" type="line"/>
      <point x="257" y="498" type="line"/>
      <point x="1104" y="498" type="line"/>
      <point x="1070" y="253" type="line"/>
    </contour>
  </outline>
  <guideline angle="76.396" x="1039.32" y="0"/>
</glyph>
<glyph name="five" format="2">
  <advance width="1118"/>
  <unicode hex="0035"/>
  <anchor x="523" y="0" name="bottom"/>
  <anchor x="573" y="1314" name="top"/>
  <anchor x="1098" y="1314" name="topright"/>
  <outline>
    <contour>
      <point x="99" y="74" type="line"/>
      <point x="198" y="12"/>
      <point x="343" y="-24"/>
      <point x="488" y="-24" type="curve" smooth="yes"/>
      <point x="824" y="-24"/>
      <point x="1040" y="157"/>
      <point x="1040" y="438" type="curve" smooth="yes"/>
      <point x="1040" y="692"/>
      <point x="857" y="832"/>
      <point x="550" y="832" type="curve" smooth="yes"/>
      <point x="461" y="832"/>
      <point x="378" y="820"/>
      <point x="292" y="796" type="curve"/>
      <point x="318" y="755" type="line"/>
      <point x="338" y="1103" type="line"/>
      <point x="256" y="1062" type="line"/>
      <point x="951" y="1062" type="line"/>
      <point x="951" y="1314" type="line"/>
      <point x="167" y="1314" type="line"/>
      <point x="126" y="593" type="line"/>
      <point x="141" y="583" type="line"/>
      <point x="212" y="600"/>
      <point x="298" y="611"/>
      <point x="365" y="611" type="curve" smooth="yes"/>
      <point x="530" y="611"/>
      <point x="620" y="545"/>
      <point x="620" y="425" type="curve" smooth="yes"/>
      <point x="620" y="300"/>
      <point x="525" y="233"/>
      <point x="351" y="233" type="curve" smooth="yes"/>
      <point x="246" y="233"/>
      <point x="149" y="258"/>
      <point x="55" y="308" type="curve"/>
      <point x="46" y="300" type="line"/>
    </contour>
  </outline>
</glyph>
<glyph name="six" format="2">
  <advance width="1118"/>
  <unicode hex="0036"/>
  <anchor x="573" y="0" name="bottom"/>
  <anchor x="605" y="1314" name="top"/>
  <outline>
    <contour>
      <point x="437" y="557" type="curve"/>
      <point x="437" y="691" type="line"/>
      <point x="475" y="782"/>
      <point x="557" y="828"/>
      <point x="679" y="828" type="curve" smooth="yes"/>
      <point x="924" y="828"/>
      <point x="1086" y="673"/>
      <point x="1086" y="439" type="curve" smooth="yes"/>
      <point x="1086" y="170"/>
      <point x="873" y="-24"/>
      <point x="578" y="-24" type="curve" smooth="yes"/>
      <point x="246" y="-24"/>
      <point x="46" y="215"/>
      <point x="46" y="613" type="curve" smooth="yes"/>
      <point x="46" y="1063"/>
      <point x="284" y="1338"/>
      <point x="675" y="1338" type="curve" smooth="yes"/>
      <point x="772" y="1338"/>
      <point x="915" y="1318"/>
      <point x="988" y="1294" type="curve"/>
      <point x="988" y="1064" type="line"/>
      <point x="909" y="1088"/>
      <point x="843" y="1099"/>
      <point x="782" y="1099" type="curve" smooth="yes"/>
      <point x="553" y="1099"/>
      <point x="468" y="958"/>
      <point x="468" y="581" type="curve" smooth="yes"/>
      <point x="468" y="327"/>
      <point x="505" y="211"/>
      <point x="586" y="211" type="curve" smooth="yes"/>
      <point x="649" y="211"/>
      <point x="684" y="281"/>
      <point x="684" y="404" type="curve" smooth="yes"/>
      <point x="684" y="536"/>
      <point x="644" y="606"/>
      <point x="567" y="606" type="curve" smooth="yes"/>
      <point x="528" y="606"/>
      <point x="474" y="586"/>
    </contour>
  </outline>
  <guideline angle="0" x="0" y="660"/>
</glyph>
<glyph name="seven" format="2">
  <advance width="1118"/>
  <unicode hex="0037"/>
  <anchor x="472" y="0" name="bottom"/>
  <anchor x="558" y="1314" name="top"/>
  <anchor x="1128" y="1314" name="topright"/>
  <outline>
    <contour>
      <point x="209" y="0" type="curve"/>
      <point x="622" y="0" type="line"/>
      <point x="690" y="361"/>
      <point x="806" y="702"/>
      <point x="1040" y="1076" type="curve"/>
      <point x="1040" y="1314" type="line"/>
      <point x="69" y="1314" type="line"/>
      <point x="69" y="1062" type="line"/>
      <point x="807" y="1062" type="line"/>
      <point x="765" y="1096" type="line"/>
      <point x="765" y="1053" type="line"/>
      <point x="503" y="729"/>
      <point x="284" y="368"/>
    </contour>
  </outline>
  <guideline angle="66.8436" x="270.369" y="0"/>
</glyph>
<glyph name="eight" format="2">
  <advance width="1118"/>
  <unicode hex="0038"/>
  <anchor x="555" y="0" name="bottom"/>
  <anchor x="555" y="1314" name="top"/>
  <anchor x="1098" y="1314" name="topright"/>
  <outline>
    <contour>
      <point x="240" y="684" type="line"/>
      <point x="240" y="644" type="line"/>
      <point x="110" y="578"/>
      <point x="41" y="473"/>
      <point x="41" y="348" type="curve" smooth="yes"/>
      <point x="41" y="124"/>
      <point x="245" y="-24"/>
      <point x="552" y="-24" type="curve" smooth="yes"/>
      <point x="869" y="-24"/>
      <point x="1077" y="134"/>
      <point x="1077" y="376" type="curve" smooth="yes"/>
      <point x="1077" y="546"/>
      <point x="986" y="660"/>
      <point x="699" y="779" type="curve" smooth="yes"/>
      <point x="491" y="865"/>
      <point x="443" y="910"/>
      <point x="443" y="993" type="curve" smooth="yes"/>
      <point x="443" y="1065"/>
      <point x="485" y="1109"/>
      <point x="555" y="1109" type="curve" smooth="yes"/>
      <point x="631" y="1109"/>
      <point x="678" y="1057"/>
      <point x="678" y="974" type="curve" smooth="yes"/>
      <point x="678" y="903"/>
      <point x="643" y="838"/>
      <point x="584" y="798" type="curve"/>
      <point x="851" y="675" type="line"/>
      <point x="851" y="717" type="line"/>
      <point x="973" y="773"/>
      <point x="1042" y="871"/>
      <point x="1042" y="987" type="curve" smooth="yes"/>
      <point x="1042" y="1194"/>
      <point x="842" y="1338"/>
      <point x="555" y="1338" type="curve" smooth="yes"/>
      <point x="259" y="1338"/>
      <point x="75" y="1193"/>
      <point x="75" y="959" type="curve" smooth="yes"/>
      <point x="75" y="714"/>
      <point x="274" y="620"/>
      <point x="439" y="548" type="curve" smooth="yes"/>
      <point x="619" y="469"/>
      <point x="670" y="419"/>
      <point x="670" y="332" type="curve" smooth="yes"/>
      <point x="670" y="256"/>
      <point x="625" y="205"/>
      <point x="558" y="205" type="curve" smooth="yes"/>
      <point x="483" y="205"/>
      <point x="436" y="265"/>
      <point x="436" y="362" type="curve" smooth="yes"/>
      <point x="436" y="436"/>
      <point x="465" y="505"/>
      <point x="514" y="547" type="curve"/>
    </contour>
  </outline>
</glyph>
<glyph name="nine" format="2">
  <advance width="1118"/>
  <unicode hex="0039"/>
  <anchor x="485" y="0" name="bottom"/>
  <anchor x="535" y="1314" name="top"/>
  <anchor x="1088" y="1314" name="topright"/>
  <outline>
    <contour>
      <point x="129" y="58" type="line"/>
      <point x="224" y="4"/>
      <point x="335" y="-24"/>
      <point x="455" y="-24" type="curve" smooth="yes"/>
      <point x="838" y="-24"/>
      <point x="1072" y="250"/>
      <point x="1072" y="700" type="curve" smooth="yes"/>
      <point x="1072" y="1102"/>
      <point x="874" y="1338"/>
      <point x="535" y="1338" type="curve" smooth="yes"/>
      <point x="237" y="1338"/>
      <point x="32" y="1151"/>
      <point x="32" y="880" type="curve" smooth="yes"/>
      <point x="32" y="641"/>
      <point x="189" y="487"/>
      <point x="432" y="487" type="curve" smooth="yes"/>
      <point x="532" y="487"/>
      <point x="620" y="513"/>
      <point x="683" y="561" type="curve"/>
      <point x="683" y="759" type="line"/>
      <point x="651" y="731"/>
      <point x="592" y="708"/>
      <point x="552" y="708" type="curve" smooth="yes"/>
      <point x="474" y="708"/>
      <point x="434" y="779"/>
      <point x="434" y="915" type="curve" smooth="yes"/>
      <point x="434" y="1037"/>
      <point x="468" y="1103"/>
      <point x="531" y="1103" type="curve" smooth="yes"/>
      <point x="613" y="1103"/>
      <point x="650" y="991"/>
      <point x="650" y="741" type="curve" smooth="yes"/>
      <point x="650" y="360"/>
      <point x="573" y="221"/>
      <point x="362" y="221" type="curve" smooth="yes"/>
      <point x="270" y="221"/>
      <point x="179" y="245"/>
      <point x="84" y="295" type="curve"/>
      <point x="75" y="287" type="line"/>
    </contour>
  </outline>
  <guideline angle="0" x="0" y="661"/>
</glyph>
<glyph name="less" format="2">
  <advance width="1118"/>
  <unicode hex="003C"/>
  <outline>
    <contour>
      <point x="77" y="362" type="line"/>
      <point x="937" y="-24" type="line"/>
      <point x="1040" y="217" type="line"/>
      <point x="206" y="565" type="line"/>
      <point x="206" y="381" type="line"/>
      <point x="1040" y="729" type="line"/>
      <point x="937" y="970" type="line"/>
      <point x="77" y="584" type="line"/>
    </contour>
  </outline>
  <guideline angle="90" x="934" y="0"/>
</glyph>
<glyph name="equal" format="2">
  <advance width="1118"/>
  <unicode hex="003D"/>
  <outline>
    <contour>
      <point x="77" y="137" type="line"/>
      <point x="77" y="395" type="line"/>
      <point x="1041" y="395" type="line"/>
      <point x="1041" y="137" type="line"/>
    </contour>
    <contour>
      <point x="77" y="550" type="line"/>
      <point x="77" y="808" type="line"/>
      <point x="1041" y="808" type="line"/>
      <point x="1041" y="550" type="line"/>
    </contour>
  </outline>
  <guideline angle="0" x="0" y="840"/>
  <guideline angle="0" x="0" y="473"/>
  <guideline angle="90" x="365" y="0"/>
</glyph>
<glyph name="greater" format="2">
  <advance width="1118"/>
  <unicode hex="003E"/>
  <outline>
    <contour>
      <point x="181" y="-24" type="line"/>
      <point x="1041" y="362" type="line"/>
      <point x="1041" y="584" type="line"/>
      <point x="181" y="970" type="line"/>
      <point x="78" y="729" type="line"/>
      <point x="912" y="381" type="line"/>
      <point x="912" y="565" type="line"/>
      <point x="78" y="217" type="line"/>
    </contour>
  </outline>
  <guideline angle="112.45" x="-251.122" y="0"/>
</glyph>
<glyph name="question" format="2">
  <advance width="919"/>
  <unicode hex="003F"/>
  <outline>
    <contour>
      <point x="235" y="481" type="curve"/>
      <point x="510" y="481" type="line"/>
      <point x="508" y="493"/>
      <point x="508" y="505"/>
      <point x="508" y="517" type="curve" smooth="yes"/>
      <point x="508" y="610"/>
      <point x="569" y="650"/>
      <point x="665" y="715" type="curve" smooth="yes"/>
      <point x="817" y="819"/>
      <point x="869" y="885"/>
      <point x="869" y="1011" type="curve" smooth="yes"/>
      <point x="869" y="1217"/>
      <point x="685" y="1338"/>
      <point x="401" y="1338" type="curve" smooth="yes"/>
      <point x="275" y="1338"/>
      <point x="146" y="1311"/>
      <point x="64" y="1268" type="curve"/>
      <point x="64" y="1050" type="line"/>
      <point x="122" y="1084"/>
      <point x="205" y="1105"/>
      <point x="278" y="1105" type="curve" smooth="yes"/>
      <point x="389" y="1105"/>
      <point x="448" y="1059"/>
      <point x="448" y="973" type="curve" smooth="yes"/>
      <point x="448" y="915"/>
      <point x="423" y="892"/>
      <point x="356" y="830" type="curve" smooth="yes"/>
      <point x="256" y="738"/>
      <point x="220" y="676"/>
      <point x="220" y="581" type="curve" smooth="yes"/>
      <point x="220" y="549"/>
      <point x="225" y="513"/>
    </contour>
    <contour>
      <point x="360" y="-24" type="curve" smooth="yes"/>
      <point x="490" y="-24"/>
      <point x="576" y="59"/>
      <point x="576" y="185" type="curve" smooth="yes"/>
      <point x="576" y="305"/>
      <point x="498" y="380"/>
      <point x="373" y="380" type="curve" smooth="yes"/>
      <point x="243" y="380"/>
      <point x="159" y="299"/>
      <point x="159" y="175" type="curve" smooth="yes"/>
      <point x="159" y="53"/>
      <point x="236" y="-24"/>
    </contour>
  </outline>
</glyph>
<glyph name="at" format="2">
  <advance width="1848"/>
  <unicode hex="0040"/>
  <outline>
    <contour>
      <point x="1013" y="156" type="line"/>
      <point x="958" y="79"/>
      <point x="876" y="39"/>
      <point x="777" y="39" type="curve" smooth="yes"/>
      <point x="563" y="39"/>
      <point x="412" y="205"/>
      <point x="412" y="440" type="curve" smooth="yes"/>
      <point x="412" y="705"/>
      <point x="588" y="904"/>
      <point x="851" y="904" type="curve" smooth="yes"/>
      <point x="929" y="904"/>
      <point x="984" y="889"/>
      <point x="1051" y="848" type="curve"/>
      <point x="1051" y="694" type="line"/>
      <point x="1026" y="713"/>
      <point x="994" y="724"/>
      <point x="963" y="724" type="curve" smooth="yes"/>
      <point x="861" y="724"/>
      <point x="802" y="609"/>
      <point x="802" y="440" type="curve" smooth="yes"/>
      <point x="802" y="316"/>
      <point x="844" y="244"/>
      <point x="917" y="244" type="curve" smooth="yes"/>
      <point x="958" y="244"/>
      <point x="999" y="273"/>
      <point x="1013" y="310" type="curve"/>
    </contour>
    <contour>
      <point x="1217" y="-246" type="line"/>
      <point x="1117" y="-294"/>
      <point x="986" y="-321"/>
      <point x="849" y="-321" type="curve" smooth="yes"/>
      <point x="385" y="-321"/>
      <point x="64" y="-15"/>
      <point x="64" y="426" type="curve" smooth="yes"/>
      <point x="64" y="911"/>
      <point x="433" y="1264"/>
      <point x="953" y="1264" type="curve" smooth="yes"/>
      <point x="1442" y="1264"/>
      <point x="1784" y="962"/>
      <point x="1784" y="530" type="curve" smooth="yes"/>
      <point x="1784" y="208"/>
      <point x="1610" y="-7"/>
      <point x="1299" y="-7" type="curve" smooth="yes"/>
      <point x="1088" y="-7"/>
      <point x="978" y="90"/>
      <point x="978" y="277" type="curve"/>
      <point x="978" y="285"/>
      <point x="979" y="295"/>
      <point x="979" y="302" type="curve" smooth="yes"/>
      <point x="1008" y="723" type="line"/>
      <point x="1043" y="882" type="line"/>
      <point x="1400" y="882" type="line"/>
      <point x="1361" y="315" type="line" smooth="yes"/>
      <point x="1360" y="301"/>
      <point x="1359" y="287"/>
      <point x="1359" y="278" type="curve" smooth="yes"/>
      <point x="1359" y="215"/>
      <point x="1386" y="179"/>
      <point x="1434" y="179" type="curve" smooth="yes"/>
      <point x="1531" y="179"/>
      <point x="1579" y="327"/>
      <point x="1579" y="505" type="curve" smooth="yes"/>
      <point x="1579" y="853"/>
      <point x="1322" y="1092"/>
      <point x="949" y="1092" type="curve" smooth="yes"/>
      <point x="558" y="1092"/>
      <point x="282" y="824"/>
      <point x="282" y="443" type="curve" smooth="yes"/>
      <point x="282" y="90"/>
      <point x="524" y="-147"/>
      <point x="883" y="-147" type="curve" smooth="yes"/>
      <point x="1010" y="-147"/>
      <point x="1153" y="-116"/>
      <point x="1257" y="-66" type="curve"/>
      <point x="1264" y="-71" type="line"/>
    </contour>
  </outline>
  <guideline angle="76.0015" x="1081.47" y="0"/>
  <guideline angle="90" x="393" y="0"/>
  <guideline angle="0" x="0" y="225"/>
</glyph>
<glyph name="A" format="2">
  <advance width="1411"/>
  <unicode hex="0041"/>
  <anchor x="656" y="0" name="bottom"/>
  <anchor x="710" y="1314" name="top"/>
  <anchor x="1291" y="1314" name="topright"/>
  <outline>
    <contour>
      <point x="12" y="0" type="line"/>
      <point x="356" y="0" type="line"/>
      <point x="639" y="1007" type="line"/>
      <point x="646" y="1007" type="line"/>
      <point x="924" y="0" type="line"/>
      <point x="1399" y="0" type="line"/>
      <point x="973" y="1314" type="line"/>
      <point x="439" y="1314" type="line"/>
    </contour>
    <contour>
      <point x="420" y="333" type="line"/>
      <point x="862" y="333" type="line"/>
      <point x="797" y="570" type="line"/>
      <point x="486" y="570" type="line"/>
    </contour>
  </outline>
  <guideline angle="111.91" x="1188.71" y="0"/>
  <guideline angle="68.09" x="7.332" y="0"/>
  <guideline angle="0" x="0" y="542"/>
  <guideline angle="0" x="0" y="347"/>
</glyph>
<glyph name="B" format="2">
  <advance width="1279"/>
  <unicode hex="0042"/>
  <anchor x="590" y="0" name="bottom"/>
  <anchor x="623" y="1314" name="top"/>
  <outline>
    <contour>
      <point x="105" y="0" type="line"/>
      <point x="105" y="1314" type="line"/>
      <point x="629" y="1314" type="line" smooth="yes"/>
      <point x="990" y="1314"/>
      <point x="1186" y="1201"/>
      <point x="1186" y="992" type="curve" smooth="yes"/>
      <point x="1186" y="851"/>
      <point x="1096" y="747"/>
      <point x="933" y="702" type="curve"/>
      <point x="933" y="695" type="line"/>
      <point x="1115" y="660"/>
      <point x="1224" y="539"/>
      <point x="1224" y="371" type="curve" smooth="yes"/>
      <point x="1224" y="133"/>
      <point x="1010" y="0"/>
      <point x="627" y="0" type="curve" smooth="yes"/>
    </contour>
    <contour>
      <point x="553" y="234" type="line"/>
      <point x="631" y="234" type="line" smooth="yes"/>
      <point x="728" y="234"/>
      <point x="782" y="294"/>
      <point x="782" y="402" type="curve" smooth="yes"/>
      <point x="782" y="509"/>
      <point x="729" y="566"/>
      <point x="630" y="566" type="curve" smooth="yes"/>
      <point x="523" y="566" type="line"/>
      <point x="523" y="793" type="line"/>
      <point x="617" y="793" type="line" smooth="yes"/>
      <point x="706" y="793"/>
      <point x="752" y="843"/>
      <point x="752" y="940" type="curve" smooth="yes"/>
      <point x="752" y="1035"/>
      <point x="709" y="1081"/>
      <point x="620" y="1081" type="curve" smooth="yes"/>
      <point x="553" y="1081" type="line"/>
    </contour>
  </outline>
</glyph>
<glyph name="C" format="2">
  <advance width="1268"/>
  <unicode hex="0043"/>
  <anchor x="723" y="0" name="bottom"/>
  <anchor x="764" y="1314" name="top"/>
  <outline>
    <contour>
      <point x="789" y="-24" type="curve" smooth="yes"/>
      <point x="342" y="-24"/>
      <point x="69" y="232"/>
      <point x="69" y="650" type="curve" smooth="yes"/>
      <point x="69" y="1080"/>
      <point x="352" y="1338"/>
      <point x="822" y="1338" type="curve" smooth="yes"/>
      <point x="960" y="1338"/>
      <point x="1096" y="1313"/>
      <point x="1203" y="1268" type="curve"/>
      <point x="1203" y="1034" type="line"/>
      <point x="1112" y="1069"/>
      <point x="1016" y="1088"/>
      <point x="924" y="1088" type="curve" smooth="yes"/>
      <point x="664" y="1088"/>
      <point x="528" y="942"/>
      <point x="528" y="663" type="curve" smooth="yes"/>
      <point x="528" y="381"/>
      <point x="671" y="230"/>
      <point x="938" y="230" type="curve" smooth="yes"/>
      <point x="1038" y="230"/>
      <point x="1140" y="252"/>
      <point x="1234" y="294" type="curve"/>
      <point x="1240" y="288" type="line"/>
      <point x="1186" y="69" type="line"/>
      <point x="1093" y="11"/>
      <point x="944" y="-24"/>
    </contour>
  </outline>
  <guideline angle="76.0015" x="1100.72" y="0"/>
</glyph>
<glyph name="D" format="2">
  <advance width="1424"/>
  <unicode hex="0044"/>
  <anchor x="660" y="0" name="bottom"/>
  <anchor x="660" y="1314" name="top"/>
  <outline>
    <contour>
      <point x="105" y="0" type="line"/>
      <point x="105" y="1314" type="line"/>
      <point x="626" y="1314" type="line" smooth="yes"/>
      <point x="1105" y="1314"/>
      <point x="1355" y="1095"/>
      <point x="1355" y="675" type="curve" smooth="yes"/>
      <point x="1355" y="246"/>
      <point x="1088" y="0"/>
      <point x="623" y="0" type="curve" smooth="yes"/>
    </contour>
    <contour>
      <point x="555" y="241" type="line"/>
      <point x="631" y="241" type="line" smooth="yes"/>
      <point x="804" y="241"/>
      <point x="896" y="389"/>
      <point x="896" y="670" type="curve" smooth="yes"/>
      <point x="896" y="944"/>
      <point x="808" y="1073"/>
      <point x="621" y="1073" type="curve" smooth="yes"/>
      <point x="555" y="1073" type="line"/>
    </contour>
  </outline>
</glyph>
<glyph name="E" format="2">
  <advance width="1067"/>
  <unicode hex="0045"/>
  <anchor x="570" y="0" name="bottom"/>
  <anchor x="564" y="1314" name="top"/>
  <anchor x="1097" y="1314" name="topright"/>
  <outline>
    <contour>
      <point x="105" y="0" type="line"/>
      <point x="1035" y="0" type="line"/>
      <point x="1035" y="241" type="line"/>
      <point x="555" y="241" type="line"/>
      <point x="555" y="561" type="line"/>
      <point x="917" y="561" type="line"/>
      <point x="917" y="798" type="line"/>
      <point x="555" y="798" type="line"/>
      <point x="555" y="1073" type="line"/>
      <point x="979" y="1073" type="line"/>
      <point x="1014" y="1314" type="line"/>
      <point x="105" y="1314" type="line"/>
    </contour>
  </outline>
  <guideline angle="81.8001" x="823.937" y="0"/>
</glyph>
<glyph name="F" format="2">
  <advance width="1032"/>
  <unicode hex="0046"/>
  <anchor x="505" y="0" name="bottom"/>
  <anchor x="548" y="1314" name="top"/>
  <anchor x="1062" y="1314" name="topright"/>
  <outline>
    <contour>
      <point x="105" y="0" type="line"/>
      <point x="555" y="0" type="line"/>
      <point x="555" y="533" type="line"/>
      <point x="917" y="533" type="line"/>
      <point x="917" y="771" type="line"/>
      <point x="555" y="771" type="line"/>
      <point x="555" y="1073" type="line"/>
      <point x="974" y="1073" type="line"/>
      <point x="1009" y="1314" type="line"/>
      <point x="105" y="1314" type="line"/>
    </contour>
  </outline>
</glyph>
<glyph name="G" format="2">
  <advance width="1364"/>
  <unicode hex="0047"/>
  <anchor x="733" y="0" name="bottom"/>
  <anchor x="785" y="1314" name="top"/>
  <outline>
    <contour>
      <point x="807" y="-24" type="curve" smooth="yes"/>
      <point x="346" y="-24"/>
      <point x="69" y="211"/>
      <point x="69" y="641" type="curve" smooth="yes"/>
      <point x="69" y="1081"/>
      <point x="361" y="1338"/>
      <point x="844" y="1338" type="curve" smooth="yes"/>
      <point x="995" y="1338"/>
      <point x="1129" y="1312"/>
      <point x="1245" y="1259" type="curve"/>
      <point x="1245" y="1025" type="line"/>
      <point x="1151" y="1067"/>
      <point x="1049" y="1088"/>
      <point x="944" y="1088" type="curve" smooth="yes"/>
      <point x="670" y="1088"/>
      <point x="527" y="939"/>
      <point x="527" y="653" type="curve" smooth="yes"/>
      <point x="527" y="373"/>
      <point x="662" y="219"/>
      <point x="891" y="219" type="curve" smooth="yes"/>
      <point x="978" y="219"/>
      <point x="1084" y="242"/>
      <point x="1176" y="282" type="curve"/>
      <point x="1277" y="48" type="line"/>
      <point x="1182" y="8"/>
      <point x="973" y="-24"/>
    </contour>
    <contour>
      <point x="875" y="48" type="line"/>
      <point x="875" y="636" type="line"/>
      <point x="1277" y="636" type="line"/>
      <point x="1277" y="48" type="line"/>
    </contour>
  </outline>
  <guideline angle="0" x="0" y="627"/>
  <guideline angle="0" x="0" y="625"/>
</glyph>
<glyph name="H" format="2">
  <advance width="1416"/>
  <unicode hex="0048"/>
  <anchor x="708" y="0" name="bottom"/>
  <anchor x="708" y="1314" name="top"/>
  <anchor x="1416" y="1314" name="topright"/>
  <outline>
    <contour>
      <point x="105" y="0" type="line"/>
      <point x="555" y="0" type="line"/>
      <point x="555" y="1314" type="line"/>
      <point x="105" y="1314" type="line"/>
    </contour>
    <contour>
      <point x="861" y="0" type="line"/>
      <point x="1311" y="0" type="line"/>
      <point x="1311" y="1314" type="line"/>
      <point x="861" y="1314" type="line"/>
    </contour>
    <contour>
      <point x="525" y="561" type="line"/>
      <point x="891" y="561" type="line"/>
      <point x="891" y="798" type="line"/>
      <point x="525" y="798" type="line"/>
    </contour>
  </outline>
  <guideline angle="90" x="308" y="0"/>
  <guideline angle="0" x="0" y="688"/>
  <guideline angle="0" name="cap" x="0" y="1314"/>
</glyph>
<glyph name="I" format="2">
  <advance width="660"/>
  <unicode hex="0049"/>
  <anchor x="330" y="0" name="bottom"/>
  <anchor x="330" y="1314" name="top"/>
  <anchor x="660" y="1314" name="topright"/>
  <outline>
    <contour>
      <point x="105" y="0" type="line"/>
      <point x="555" y="0" type="line"/>
      <point x="555" y="1314" type="line"/>
      <point x="105" y="1314" type="line"/>
    </contour>
  </outline>
</glyph>
<glyph name="J" format="2">
  <advance width="902"/>
  <unicode hex="004A"/>
  <anchor x="403" y="0" name="bottom"/>
  <anchor x="578" y="1314" name="top"/>
  <anchor x="902" y="1314" name="topright"/>
  <outline>
    <contour>
      <point x="348" y="-24" type="curve" smooth="yes"/>
      <point x="655" y="-24"/>
      <point x="801" y="106"/>
      <point x="801" y="379" type="curve" smooth="yes"/>
      <point x="801" y="1314" type="line"/>
      <point x="356" y="1314" type="line"/>
      <point x="356" y="438" type="line" smooth="yes"/>
      <point x="356" y="269"/>
      <point x="313" y="210"/>
      <point x="188" y="210" type="curve" smooth="yes"/>
      <point x="133" y="210"/>
      <point x="65" y="226"/>
      <point x="20" y="249" type="curve"/>
      <point x="14" y="243" type="line"/>
      <point x="62" y="38" type="line"/>
      <point x="150" y="-1"/>
      <point x="258" y="-24"/>
    </contour>
  </outline>
</glyph>
<glyph name="K" format="2">
  <advance width="1414"/>
  <unicode hex="004B"/>
  <anchor x="720" y="0" name="bottom"/>
  <anchor x="708" y="1314" name="top"/>
  <anchor x="1434" y="1314" name="topright"/>
  <outline>
    <contour>
      <point x="105" y="0" type="line"/>
      <point x="555" y="0" type="line"/>
      <point x="555" y="1314" type="line"/>
      <point x="105" y="1314" type="line"/>
    </contour>
    <contour>
      <point x="901" y="0" type="line"/>
      <point x="1414" y="0" type="line"/>
      <point x="965" y="763" type="line"/>
      <point x="1336" y="1314" type="line"/>
      <point x="957" y="1314" type="line"/>
      <point x="533" y="671" type="line"/>
    </contour>
  </outline>
  <guideline angle="90" x="1326" y="0"/>
</glyph>
<glyph name="L" format="2">
  <advance width="1046"/>
  <unicode hex="004C"/>
  <anchor x="553" y="0" name="bottom"/>
  <anchor x="330" y="1314" name="top"/>
  <anchor x="1016" y="1314" name="topright"/>
  <outline>
    <contour>
      <point x="105" y="0" type="line"/>
      <point x="998" y="0" type="line"/>
      <point x="1032" y="241" type="line"/>
      <point x="555" y="241" type="line"/>
      <point x="555" y="1314" type="line"/>
      <point x="105" y="1314" type="line"/>
    </contour>
  </outline>
</glyph>
<glyph name="M" format="2">
  <advance width="1812"/>
  <unicode hex="004D"/>
  <anchor x="873" y="0" name="bottom"/>
  <anchor x="913" y="1314" name="top"/>
  <anchor x="1792" y="1314" name="topright"/>
  <outline>
    <contour>
      <point x="71" y="0" type="line"/>
      <point x="401" y="0" type="line"/>
      <point x="463" y="821" type="line"/>
      <point x="475" y="821" type="line"/>
      <point x="481" y="782"/>
      <point x="494" y="716"/>
      <point x="517" y="645" type="curve" smooth="yes"/>
      <point x="717" y="0" type="line"/>
      <point x="976" y="0" type="line"/>
      <point x="1186" y="650" type="line" smooth="yes"/>
      <point x="1204" y="706"/>
      <point x="1221" y="764"/>
      <point x="1234" y="821" type="curve"/>
      <point x="1245" y="821" type="line"/>
      <point x="1292" y="0" type="line"/>
      <point x="1740" y="0" type="line"/>
      <point x="1637" y="1314" type="line"/>
      <point x="1126" y="1314" type="line"/>
      <point x="952" y="757" type="line" smooth="yes"/>
      <point x="933" y="697"/>
      <point x="920" y="637"/>
      <point x="913" y="598" type="curve"/>
      <point x="906" y="598" type="line"/>
      <point x="900" y="637"/>
      <point x="888" y="695"/>
      <point x="869" y="758" type="curve" smooth="yes"/>
      <point x="697" y="1314" type="line"/>
      <point x="177" y="1314" type="line"/>
    </contour>
  </outline>
  <guideline angle="0" x="0" y="1098"/>
  <guideline angle="0" x="0" y="1066"/>
  <guideline angle="88.2072" x="157.639" y="0"/>
</glyph>
<glyph name="N" format="2">
  <advance width="1406"/>
  <unicode hex="004E"/>
  <anchor x="703" y="0" name="bottom"/>
  <anchor x="703" y="1314" name="top"/>
  <anchor x="1406" y="1314" name="topright"/>
  <outline>
    <contour>
      <point x="105" y="0" type="line"/>
      <point x="443" y="0" type="line"/>
      <point x="443" y="664" type="line"/>
      <point x="452" y="664" type="line"/>
      <point x="490" y="598"/>
      <point x="530" y="535"/>
      <point x="589" y="452" type="curve" smooth="yes"/>
      <point x="905" y="0" type="line"/>
      <point x="1301" y="0" type="line"/>
      <point x="1301" y="1314" type="line"/>
      <point x="964" y="1314" type="line"/>
      <point x="964" y="662" type="line"/>
      <point x="955" y="662" type="line"/>
      <point x="917" y="728"/>
      <point x="876" y="791"/>
      <point x="818" y="874" type="curve" smooth="yes"/>
      <point x="510" y="1314" type="line"/>
      <point x="105" y="1314" type="line"/>
    </contour>
  </outline>
</glyph>
<glyph name="O" format="2">
  <advance width="1459"/>
  <unicode hex="004F"/>
  <anchor x="734" y="0" name="bottom"/>
  <anchor x="730" y="1314" name="top"/>
  <outline>
    <contour>
      <point x="714" y="-24" type="curve" smooth="yes"/>
      <point x="307" y="-24"/>
      <point x="69" y="226"/>
      <point x="69" y="652" type="curve" smooth="yes"/>
      <point x="69" y="1081"/>
      <point x="319" y="1338"/>
      <point x="737" y="1338" type="curve" smooth="yes"/>
      <point x="1148" y="1338"/>
      <point x="1390" y="1091"/>
      <point x="1390" y="672" type="curve" smooth="yes"/>
      <point x="1390" y="241"/>
      <point x="1133" y="-24"/>
    </contour>
    <contour>
      <point x="727" y="211" type="curve" smooth="yes"/>
      <point x="862" y="211"/>
      <point x="931" y="365"/>
      <point x="931" y="665" type="curve" smooth="yes"/>
      <point x="931" y="958"/>
      <point x="864" y="1103"/>
      <point x="729" y="1103" type="curve" smooth="yes"/>
      <point x="592" y="1103"/>
      <point x="528" y="962"/>
      <point x="528" y="660" type="curve" smooth="yes"/>
      <point x="528" y="362"/>
      <point x="595" y="211"/>
    </contour>
  </outline>
</glyph>
<glyph name="P" format="2">
  <advance width="1285"/>
  <unicode hex="0050"/>
  <anchor x="610" y="0" name="bottom"/>
  <anchor x="643" y="1314" name="top"/>
  <anchor x="1245" y="1314" name="topright"/>
  <outline>
    <contour>
      <point x="105" y="0" type="line"/>
      <point x="555" y="0" type="line"/>
      <point x="555" y="1075" type="line"/>
      <point x="629" y="1075" type="line" smooth="yes"/>
      <point x="731" y="1075"/>
      <point x="787" y="1014"/>
      <point x="787" y="895" type="curve" smooth="yes"/>
      <point x="787" y="775"/>
      <point x="731" y="703"/>
      <point x="631" y="703" type="curve" smooth="yes"/>
      <point x="525" y="703" type="line"/>
      <point x="525" y="457" type="line"/>
      <point x="678" y="457" type="line" smooth="yes"/>
      <point x="1031" y="457"/>
      <point x="1244" y="625"/>
      <point x="1244" y="903" type="curve" smooth="yes"/>
      <point x="1244" y="1172"/>
      <point x="1046" y="1314"/>
      <point x="674" y="1314" type="curve" smooth="yes"/>
      <point x="105" y="1314" type="line"/>
    </contour>
  </outline>
  <guideline angle="0" x="0" y="600"/>
</glyph>
<glyph name="Q" format="2">
  <advance width="1459"/>
  <unicode hex="0051"/>
  <anchor x="730" y="-174" name="bottom"/>
  <anchor x="730" y="1314" name="top"/>
  <anchor x="1399" y="1314" name="topright"/>
  <outline>
    <contour>
      <point x="653" y="-38" type="curve" smooth="yes"/>
      <point x="903" y="-99"/>
      <point x="1125" y="-211"/>
      <point x="1413" y="-423" type="curve"/>
      <point x="1573" y="-129" type="line"/>
      <point x="1432" y="-57"/>
      <point x="1204" y="31"/>
      <point x="1080" y="61" type="curve"/>
      <point x="1080" y="126" type="line"/>
      <point x="1011" y="37" type="line"/>
      <point x="1248" y="127"/>
      <point x="1390" y="370"/>
      <point x="1390" y="685" type="curve" smooth="yes"/>
      <point x="1390" y="1092"/>
      <point x="1143" y="1338"/>
      <point x="736" y="1338" type="curve" smooth="yes"/>
      <point x="317" y="1338"/>
      <point x="69" y="1081"/>
      <point x="69" y="647" type="curve" smooth="yes"/>
      <point x="69" y="102"/>
      <point x="451" y="11"/>
    </contour>
    <contour>
      <point x="727" y="211" type="curve" smooth="yes"/>
      <point x="594" y="211"/>
      <point x="528" y="362"/>
      <point x="528" y="664" type="curve" smooth="yes"/>
      <point x="528" y="961"/>
      <point x="593" y="1103"/>
      <point x="728" y="1103" type="curve" smooth="yes"/>
      <point x="864" y="1103"/>
      <point x="931" y="960"/>
      <point x="931" y="665" type="curve" smooth="yes"/>
      <point x="931" y="365"/>
      <point x="862" y="211"/>
    </contour>
  </outline>
  <guideline angle="65.677" x="1508.57" y="0"/>
</glyph>
<glyph name="R" format="2">
  <advance width="1371"/>
  <unicode hex="0052"/>
  <anchor x="693" y="0" name="bottom"/>
  <anchor x="683" y="1314" name="top"/>
  <anchor x="1321" y="1314" name="topright"/>
  <outline>
    <contour>
      <point x="105" y="0" type="line"/>
      <point x="553" y="0" type="line"/>
      <point x="553" y="1075" type="line"/>
      <point x="625" y="1075" type="line" smooth="yes"/>
      <point x="729" y="1075"/>
      <point x="782" y="1018"/>
      <point x="782" y="908" type="curve" smooth="yes"/>
      <point x="782" y="795"/>
      <point x="728" y="735"/>
      <point x="627" y="735" type="curve" smooth="yes"/>
      <point x="523" y="735" type="line"/>
      <point x="523" y="490" type="line"/>
      <point x="641" y="490" type="line" smooth="yes"/>
      <point x="1041" y="490"/>
      <point x="1238" y="678"/>
      <point x="1238" y="929" type="curve" smooth="yes"/>
      <point x="1238" y="1177"/>
      <point x="1032" y="1314"/>
      <point x="661" y="1314" type="curve" smooth="yes"/>
      <point x="105" y="1314" type="line"/>
    </contour>
    <contour>
      <point x="878" y="0" type="line"/>
      <point x="1381" y="0" type="line"/>
      <point x="980" y="566" type="line"/>
      <point x="517" y="566" type="line"/>
    </contour>
  </outline>
  <guideline angle="90" x="740" y="0"/>
  <guideline angle="0" x="0" y="672"/>
</glyph>
<glyph name="S" format="2">
  <advance width="1144"/>
  <unicode hex="0053"/>
  <anchor x="563" y="0" name="bottom"/>
  <anchor x="605" y="1314" name="top"/>
  <anchor x="1144" y="1314" name="topright"/>
  <outline>
    <contour>
      <point x="554" y="-24" type="curve" smooth="yes"/>
      <point x="890" y="-24"/>
      <point x="1107" y="136"/>
      <point x="1107" y="394" type="curve" smooth="yes"/>
      <point x="1107" y="651"/>
      <point x="893" y="747"/>
      <point x="712" y="828" type="curve" smooth="yes"/>
      <point x="554" y="899"/>
      <point x="517" y="929"/>
      <point x="517" y="983" type="curve" smooth="yes"/>
      <point x="517" y="1051"/>
      <point x="593" y="1091"/>
      <point x="721" y="1091" type="curve" smooth="yes"/>
      <point x="816" y="1091"/>
      <point x="946" y="1065"/>
      <point x="1040" y="1027" type="curve"/>
      <point x="1040" y="1268" type="line"/>
      <point x="933" y="1312"/>
      <point x="791" y="1338"/>
      <point x="651" y="1338" type="curve" smooth="yes"/>
      <point x="283" y="1338"/>
      <point x="55" y="1181"/>
      <point x="55" y="926" type="curve" smooth="yes"/>
      <point x="55" y="690"/>
      <point x="256" y="584"/>
      <point x="441" y="496" type="curve" smooth="yes"/>
      <point x="556" y="442"/>
      <point x="632" y="407"/>
      <point x="632" y="333" type="curve" smooth="yes"/>
      <point x="632" y="267"/>
      <point x="572" y="231"/>
      <point x="462" y="231" type="curve" smooth="yes"/>
      <point x="332" y="231"/>
      <point x="171" y="279"/>
      <point x="42" y="357" type="curve"/>
      <point x="32" y="347" type="line"/>
      <point x="89" y="114" type="line"/>
      <point x="152" y="72"/>
      <point x="295" y="-24"/>
    </contour>
  </outline>
</glyph>
<glyph name="T" format="2">
  <advance width="1148"/>
  <unicode hex="0054"/>
  <anchor x="574" y="0" name="bottom"/>
  <anchor x="574" y="1314" name="top"/>
  <outline>
    <contour>
      <point x="349" y="0" type="line"/>
      <point x="349" y="1103" type="line"/>
      <point x="799" y="1103" type="line"/>
      <point x="799" y="0" type="line"/>
    </contour>
    <contour>
      <point x="13" y="1073" type="line"/>
      <point x="13" y="1314" type="line"/>
      <point x="1153" y="1314" type="line"/>
      <point x="1118" y="1073" type="line"/>
    </contour>
  </outline>
  <guideline angle="90" x="496" y="0"/>
</glyph>
<glyph name="U" format="2">
  <advance width="1341"/>
  <unicode hex="0055"/>
  <anchor x="669" y="0" name="bottom"/>
  <anchor x="687" y="1314" name="top"/>
  <anchor x="1341" y="1314" name="topright"/>
  <outline>
    <contour>
      <point x="668" y="-24" type="curve" smooth="yes"/>
      <point x="1056" y="-24"/>
      <point x="1245" y="164"/>
      <point x="1245" y="549" type="curve" smooth="yes"/>
      <point x="1245" y="1314" type="line"/>
      <point x="902" y="1314" type="line"/>
      <point x="902" y="469" type="line" smooth="yes"/>
      <point x="902" y="290"/>
      <point x="851" y="215"/>
      <point x="722" y="215" type="curve" smooth="yes"/>
      <point x="596" y="215"/>
      <point x="546" y="290"/>
      <point x="546" y="471" type="curve" smooth="yes"/>
      <point x="546" y="1314" type="line"/>
      <point x="96" y="1314" type="line"/>
      <point x="96" y="532" type="line" smooth="yes"/>
      <point x="96" y="160"/>
      <point x="285" y="-24"/>
    </contour>
  </outline>
  <guideline angle="0" x="0" y="101"/>
</glyph>
<glyph name="V" format="2">
  <advance width="1397"/>
  <unicode hex="0056"/>
  <anchor x="699" y="0" name="bottom"/>
  <anchor x="749" y="1314" name="top"/>
  <outline>
    <contour>
      <point x="434" y="0" type="line"/>
      <point x="11" y="1314" type="line"/>
      <point x="483" y="1314" type="line"/>
      <point x="759" y="368" type="line"/>
      <point x="765" y="368" type="line"/>
      <point x="1046" y="1314" type="line"/>
      <point x="1387" y="1314" type="line"/>
      <point x="962" y="0" type="line"/>
    </contour>
  </outline>
</glyph>
<glyph name="W" format="2">
  <advance width="1897"/>
  <unicode hex="0057"/>
  <anchor x="949" y="0" name="bottom"/>
  <anchor x="989" y="1314" name="top"/>
  <outline>
    <contour>
      <point x="372" y="0" type="line"/>
      <point x="18" y="1314" type="line"/>
      <point x="492" y="1314" type="line"/>
      <point x="624" y="666" type="line" smooth="yes"/>
      <point x="642" y="576"/>
      <point x="654" y="510"/>
      <point x="659" y="459" type="curve"/>
      <point x="666" y="459" type="line"/>
      <point x="671" y="510"/>
      <point x="682" y="576"/>
      <point x="701" y="664" type="curve" smooth="yes"/>
      <point x="843" y="1314" type="line"/>
      <point x="1181" y="1314" type="line"/>
      <point x="1327" y="664" type="line" smooth="yes"/>
      <point x="1346" y="577"/>
      <point x="1355" y="510"/>
      <point x="1359" y="459" type="curve"/>
      <point x="1367" y="459" type="line"/>
      <point x="1374" y="510"/>
      <point x="1382" y="575"/>
      <point x="1400" y="665" type="curve" smooth="yes"/>
      <point x="1533" y="1314" type="line"/>
      <point x="1879" y="1314" type="line"/>
      <point x="1525" y="0" type="line"/>
      <point x="1103" y="0" type="line"/>
      <point x="991" y="481" type="line" smooth="yes"/>
      <point x="975" y="546"/>
      <point x="960" y="633"/>
      <point x="955" y="679" type="curve"/>
      <point x="948" y="679" type="line"/>
      <point x="943" y="633"/>
      <point x="928" y="546"/>
      <point x="912" y="482" type="curve" smooth="yes"/>
      <point x="798" y="0" type="line"/>
    </contour>
  </outline>
  <guideline angle="0" x="0" y="206"/>
  <guideline angle="104.009" x="349.188" y="0"/>
  <guideline angle="75.9907" x="1316.1" y="0"/>
</glyph>
<glyph name="X" format="2">
  <advance width="1372"/>
  <unicode hex="0058"/>
  <anchor x="669" y="0" name="bottom"/>
  <anchor x="721" y="1314" name="top"/>
  <outline>
    <contour>
      <point x="855" y="0" type="line"/>
      <point x="22" y="1314" type="line"/>
      <point x="534" y="1314" type="line"/>
      <point x="1367" y="0" type="line"/>
    </contour>
    <contour>
      <point x="5" y="0" type="line"/>
      <point x="502" y="681" type="line"/>
      <point x="661" y="431" type="line"/>
      <point x="359" y="0" type="line"/>
    </contour>
    <contour>
      <point x="884" y="645" type="line"/>
      <point x="725" y="895" type="line"/>
      <point x="1015" y="1314" type="line"/>
      <point x="1362" y="1314" type="line"/>
    </contour>
  </outline>
</glyph>
<glyph name="Y" format="2">
  <advance width="1328"/>
  <unicode hex="0059"/>
  <anchor x="664" y="0" name="bottom"/>
  <anchor x="706" y="1314" name="top"/>
  <outline>
    <contour>
      <point x="439" y="0" type="line"/>
      <point x="439" y="495" type="line"/>
      <point x="-23" y="1314" type="line"/>
      <point x="466" y="1314" type="line"/>
      <point x="726" y="789" type="line"/>
      <point x="734" y="789" type="line"/>
      <point x="1001" y="1314" type="line"/>
      <point x="1362" y="1314" type="line"/>
      <point x="889" y="500" type="line"/>
      <point x="889" y="0" type="line"/>
    </contour>
  </outline>
  <guideline angle="0" x="0" y="529"/>
</glyph>
<glyph name="Z" format="2">
  <advance width="1138"/>
  <unicode hex="005A"/>
  <anchor x="561" y="0" name="bottom"/>
  <anchor x="577" y="1314" name="top"/>
  <anchor x="1148" y="1314" name="topright"/>
  <outline>
    <contour>
      <point x="32" y="0" type="line"/>
      <point x="1077" y="0" type="line"/>
      <point x="1111" y="241" type="line"/>
      <point x="498" y="241" type="line"/>
      <point x="549" y="198" type="line"/>
      <point x="549" y="248" type="line"/>
      <point x="1089" y="1082" type="line"/>
      <point x="1089" y="1314" type="line"/>
      <point x="63" y="1314" type="line"/>
      <point x="63" y="1073" type="line"/>
      <point x="620" y="1073" type="line"/>
      <point x="576" y="1109" type="line"/>
      <point x="576" y="1066" type="line"/>
      <point x="32" y="232" type="line"/>
    </contour>
  </outline>
  <guideline angle="90" x="979" y="0"/>
</glyph>
<glyph name="bracketleft" format="2">
  <advance width="766"/>
  <unicode hex="005B"/>
  <outline>
    <contour>
      <point x="110" y="-390" type="line"/>
      <point x="110" y="1375" type="line"/>
      <point x="730" y="1375" type="line"/>
      <point x="730" y="1169" type="line"/>
      <point x="422" y="1169" type="line"/>
      <point x="422" y="-183" type="line"/>
      <point x="730" y="-183" type="line"/>
      <point x="730" y="-390" type="line"/>
    </contour>
  </outline>
</glyph>
<glyph name="backslash" format="2">
  <advance width="841"/>
  <unicode hex="005C"/>
  <outline>
    <contour>
      <point x="522" y="-245" type="line"/>
      <point x="859" y="-245" type="line"/>
      <point x="347" y="1414" type="line"/>
      <point x="9" y="1414" type="line"/>
    </contour>
  </outline>
</glyph>
<glyph name="bracketright" format="2">
  <advance width="766"/>
  <unicode hex="005D"/>
  <outline>
    <contour>
      <point x="38" y="-389" type="line"/>
      <point x="657" y="-389" type="line"/>
      <point x="656" y="1375" type="line"/>
      <point x="37" y="1375" type="line"/>
      <point x="37" y="1169" type="line"/>
      <point x="344" y="1169" type="line"/>
      <point x="345" y="-182" type="line"/>
      <point x="38" y="-182" type="line"/>
    </contour>
  </outline>
</glyph>
<glyph name="asciicircum" format="2">
  <advance width="1017"/>
  <unicode hex="005E"/>
  <outline>
    <contour>
      <point x="41" y="618" type="line"/>
      <point x="257" y="525" type="line"/>
      <point x="543" y="1187" type="line"/>
      <point x="475" y="1187" type="line"/>
      <point x="761" y="525" type="line"/>
      <point x="976" y="618" type="line"/>
      <point x="656" y="1314" type="line"/>
      <point x="361" y="1314" type="line"/>
    </contour>
  </outline>
  <guideline angle="90" x="840" y="0"/>
</glyph>
<glyph name="underscore" format="2">
  <advance width="816"/>
  <unicode hex="005F"/>
  <outline>
    <contour>
      <point x="-27" y="-245" type="line"/>
      <point x="843" y="-245" type="line"/>
      <point x="843" y="-101" type="line"/>
      <point x="-27" y="-101" type="line"/>
    </contour>
  </outline>
  <guideline angle="0" x="0" y="-173"/>
</glyph>
<glyph name="a" format="2">
  <advance width="1198"/>
  <unicode hex="0061"/>
  <anchor x="581" y="0" name="bottom"/>
  <anchor x="614" y="955" name="top"/>
  <outline>
    <contour>
      <point x="723" y="0" type="line"/>
      <point x="701" y="56"/>
      <point x="687" y="124"/>
      <point x="683" y="200" type="curve"/>
      <point x="675" y="254" type="line"/>
      <point x="675" y="587" type="line" smooth="yes"/>
      <point x="675" y="728"/>
      <point x="618" y="778"/>
      <point x="459" y="778" type="curve" smooth="yes"/>
      <point x="353" y="778"/>
      <point x="219" y="755"/>
      <point x="138" y="723" type="curve"/>
      <point x="129" y="731" type="line"/>
      <point x="203" y="922" type="line"/>
      <point x="299" y="957"/>
      <point x="450" y="980"/>
      <point x="589" y="980" type="curve" smooth="yes"/>
      <point x="936" y="980"/>
      <point x="1111" y="852"/>
      <point x="1111" y="600" type="curve" smooth="yes"/>
      <point x="1111" y="271" type="line" smooth="yes"/>
      <point x="1111" y="183"/>
      <point x="1121" y="87"/>
      <point x="1139" y="0" type="curve"/>
    </contour>
    <contour>
      <point x="360" y="-24" type="curve" smooth="yes"/>
      <point x="167" y="-24"/>
      <point x="50" y="85"/>
      <point x="50" y="265" type="curve" smooth="yes"/>
      <point x="50" y="491"/>
      <point x="240" y="588"/>
      <point x="682" y="588" type="curve" smooth="yes"/>
      <point x="705" y="588" type="line"/>
      <point x="705" y="454" type="line"/>
      <point x="682" y="454" type="line" smooth="yes"/>
      <point x="554" y="454"/>
      <point x="489" y="409"/>
      <point x="489" y="321" type="curve" smooth="yes"/>
      <point x="489" y="255"/>
      <point x="525" y="212"/>
      <point x="581" y="212" type="curve" smooth="yes"/>
      <point x="636" y="212"/>
      <point x="683" y="250"/>
      <point x="707" y="313" type="curve"/>
      <point x="707" y="168" type="line"/>
      <point x="614" y="38"/>
      <point x="503" y="-24"/>
    </contour>
  </outline>
  <guideline angle="90" x="153" y="0"/>
  <guideline angle="90" x="71" y="0"/>
  <guideline angle="0" x="0" y="524"/>
  <guideline angle="0" x="0" y="249"/>
</glyph>
<glyph name="b" format="2">
  <advance width="1268"/>
  <unicode hex="0062"/>
  <anchor x="581" y="0" name="bottom"/>
  <anchor x="665" y="1417" name="top"/>
  <anchor x="1238" y="955" name="topright"/>
  <outline>
    <contour>
      <point x="66" y="0" type="curve"/>
      <point x="459" y="0" type="line"/>
      <point x="493" y="41"/>
      <point x="536" y="155"/>
      <point x="536" y="201" type="curve" smooth="yes"/>
      <point x="536" y="1443" type="line"/>
      <point x="96" y="1389" type="line"/>
      <point x="96" y="343" type="line" smooth="yes"/>
      <point x="96" y="214"/>
      <point x="83" y="63"/>
    </contour>
    <contour>
      <point x="756" y="-24" type="curve" smooth="yes"/>
      <point x="1023" y="-24"/>
      <point x="1213" y="195"/>
      <point x="1213" y="502" type="curve" smooth="yes"/>
      <point x="1213" y="793"/>
      <point x="1041" y="980"/>
      <point x="774" y="980" type="curve" smooth="yes"/>
      <point x="661" y="980"/>
      <point x="566" y="945"/>
      <point x="506" y="881" type="curve"/>
      <point x="506" y="715" type="line"/>
      <point x="537" y="746"/>
      <point x="584" y="765"/>
      <point x="630" y="765" type="curve" smooth="yes"/>
      <point x="723" y="765"/>
      <point x="760" y="685"/>
      <point x="760" y="487" type="curve" smooth="yes"/>
      <point x="760" y="277"/>
      <point x="717" y="180"/>
      <point x="623" y="180" type="curve" smooth="yes"/>
      <point x="552" y="180"/>
      <point x="516" y="220"/>
      <point x="480" y="256" type="curve"/>
      <point x="477" y="86" type="line"/>
      <point x="539" y="24"/>
      <point x="634" y="-24"/>
    </contour>
  </outline>
  <guideline angle="0" x="0" y="176"/>
</glyph>
<glyph name="c" format="2">
  <advance width="1054"/>
  <unicode hex="0063"/>
  <anchor x="596" y="0" name="bottom"/>
  <anchor x="603" y="955" name="top"/>
  <anchor x="1054" y="955" name="topright"/>
  <outline>
    <contour>
      <point x="637" y="-24" type="curve" smooth="yes"/>
      <point x="770" y="-24"/>
      <point x="896" y="3"/>
      <point x="977" y="48" type="curve"/>
      <point x="1022" y="228" type="line"/>
      <point x="1015" y="235" type="line"/>
      <point x="945" y="205"/>
      <point x="877" y="190"/>
      <point x="806" y="190" type="curve" smooth="yes"/>
      <point x="613" y="190"/>
      <point x="507" y="294"/>
      <point x="507" y="484" type="curve" smooth="yes"/>
      <point x="507" y="667"/>
      <point x="605" y="762"/>
      <point x="793" y="762" type="curve" smooth="yes"/>
      <point x="859" y="762"/>
      <point x="926" y="750"/>
      <point x="991" y="727" type="curve"/>
      <point x="991" y="925" type="line"/>
      <point x="897" y="960"/>
      <point x="780" y="980"/>
      <point x="661" y="980" type="curve" smooth="yes"/>
      <point x="277" y="980"/>
      <point x="55" y="794"/>
      <point x="55" y="473" type="curve" smooth="yes"/>
      <point x="55" y="159"/>
      <point x="269" y="-24"/>
    </contour>
  </outline>
  <guideline angle="90" x="827" y="0"/>
  <guideline angle="90" x="599" y="0"/>
</glyph>
<glyph name="d" format="2">
  <advance width="1268"/>
  <unicode hex="0064"/>
  <anchor x="649" y="0" name="bottom"/>
  <anchor x="626" y="1417" name="top"/>
  <outline>
    <contour>
      <point x="489" y="-24" type="curve" smooth="yes"/>
      <point x="218" y="-24"/>
      <point x="55" y="158"/>
      <point x="55" y="459" type="curve" smooth="yes"/>
      <point x="55" y="783"/>
      <point x="257" y="980"/>
      <point x="545" y="980" type="curve" smooth="yes"/>
      <point x="632" y="980"/>
      <point x="696" y="963"/>
      <point x="762" y="924" type="curve"/>
      <point x="762" y="738" type="line"/>
      <point x="722" y="767"/>
      <point x="688" y="780"/>
      <point x="649" y="780" type="curve" smooth="yes"/>
      <point x="550" y="780"/>
      <point x="508" y="694"/>
      <point x="508" y="489" type="curve" smooth="yes"/>
      <point x="508" y="275"/>
      <point x="550" y="183"/>
      <point x="647" y="183" type="curve" smooth="yes"/>
      <point x="695" y="183"/>
      <point x="744" y="206"/>
      <point x="777" y="244" type="curve"/>
      <point x="777" y="86" type="line"/>
      <point x="698" y="10"/>
      <point x="608" y="-24"/>
    </contour>
    <contour>
      <point x="786" y="0" type="line"/>
      <point x="746" y="117"/>
      <point x="732" y="216"/>
      <point x="732" y="380" type="curve" smooth="yes"/>
      <point x="732" y="1389" type="line"/>
      <point x="1172" y="1443" type="line"/>
      <point x="1172" y="598" type="line" smooth="yes"/>
      <point x="1172" y="264"/>
      <point x="1179" y="106"/>
      <point x="1200" y="0" type="curve"/>
    </contour>
  </outline>
  <guideline angle="0" x="0" y="847"/>
  <guideline angle="0" x="0" y="160"/>
</glyph>
<glyph name="e" format="2">
  <advance width="1186"/>
  <unicode hex="0065"/>
  <anchor x="624" y="0" name="bottom"/>
  <anchor x="614" y="955" name="top"/>
  <anchor x="1156" y="955" name="topright"/>
  <outline>
    <contour>
      <point x="656" y="-24" type="curve" smooth="yes"/>
      <point x="826" y="-24"/>
      <point x="978" y="15"/>
      <point x="1070" y="82" type="curve"/>
      <point x="1104" y="259" type="line"/>
      <point x="1098" y="265" type="line"/>
      <point x="1024" y="219"/>
      <point x="914" y="192"/>
      <point x="803" y="192" type="curve" smooth="yes"/>
      <point x="591" y="192"/>
      <point x="497" y="293"/>
      <point x="497" y="519" type="curve" smooth="yes"/>
      <point x="497" y="703"/>
      <point x="537" y="795"/>
      <point x="617" y="795" type="curve" smooth="yes"/>
      <point x="694" y="795"/>
      <point x="723" y="723"/>
      <point x="723" y="518" type="curve"/>
      <point x="770" y="572" type="line"/>
      <point x="467" y="572" type="line"/>
      <point x="467" y="434" type="line"/>
      <point x="1130" y="434" type="line"/>
      <point x="1131" y="441"/>
      <point x="1131" y="443"/>
      <point x="1131" y="475" type="curve" smooth="yes"/>
      <point x="1131" y="800"/>
      <point x="948" y="980"/>
      <point x="619" y="980" type="curve" smooth="yes"/>
      <point x="273" y="980"/>
      <point x="55" y="784"/>
      <point x="55" y="474" type="curve" smooth="yes"/>
      <point x="55" y="160"/>
      <point x="278" y="-24"/>
    </contour>
  </outline>
  <guideline angle="90" x="953" y="0"/>
  <guideline angle="90" x="614" y="0"/>
  <guideline angle="0" x="0" y="519"/>
</glyph>
<glyph name="f" format="2">
  <advance width="773"/>
  <unicode hex="0066"/>
  <anchor x="334" y="0" name="bottom"/>
  <anchor x="506" y="1417" name="top"/>
  <outline>
    <contour>
      <point x="105" y="0" type="line"/>
      <point x="105" y="1003" type="line" smooth="yes"/>
      <point x="105" y="1291"/>
      <point x="265" y="1443"/>
      <point x="604" y="1443" type="curve" smooth="yes"/>
      <point x="684" y="1443"/>
      <point x="765" y="1434"/>
      <point x="831" y="1417" type="curve"/>
      <point x="831" y="1195" type="line"/>
      <point x="793" y="1205"/>
      <point x="761" y="1209"/>
      <point x="725" y="1209" type="curve" smooth="yes"/>
      <point x="596" y="1209"/>
      <point x="543" y="1150"/>
      <point x="543" y="1004" type="curve" smooth="yes"/>
      <point x="543" y="0" type="line"/>
    </contour>
    <contour>
      <point x="-5" y="738" type="line"/>
      <point x="23" y="934" type="line"/>
      <point x="264" y="944" type="line"/>
      <point x="762" y="944" type="line"/>
      <point x="762" y="738" type="line"/>
    </contour>
  </outline>
</glyph>
<glyph name="g" format="2">
  <advance width="1199"/>
  <unicode hex="0067"/>
  <anchor x="522" y="-419" name="bottom"/>
  <anchor x="576" y="955" name="top"/>
  <anchor x="1219" y="955" name="topright"/>
  <outline>
    <contour>
      <point x="559" y="304" type="curve" smooth="yes"/>
      <point x="869" y="304"/>
      <point x="1068" y="434"/>
      <point x="1068" y="637" type="curve" smooth="yes"/>
      <point x="1068" y="842"/>
      <point x="868" y="980"/>
      <point x="570" y="980" type="curve" smooth="yes"/>
      <point x="268" y="980"/>
      <point x="70" y="843"/>
      <point x="70" y="634" type="curve" smooth="yes"/>
      <point x="70" y="429"/>
      <point x="255" y="304"/>
    </contour>
    <contour>
      <point x="574" y="460" type="curve" smooth="yes"/>
      <point x="508" y="460"/>
      <point x="474" y="520"/>
      <point x="474" y="634" type="curve" smooth="yes"/>
      <point x="474" y="747"/>
      <point x="509" y="806"/>
      <point x="576" y="806" type="curve" smooth="yes"/>
      <point x="642" y="806"/>
      <point x="677" y="747"/>
      <point x="677" y="636" type="curve" smooth="yes"/>
      <point x="677" y="522"/>
      <point x="641" y="460"/>
    </contour>
    <contour>
      <point x="1015" y="749" type="line"/>
      <point x="1177" y="762" type="line"/>
      <point x="1203" y="944" type="line"/>
      <point x="787" y="944" type="line"/>
    </contour>
    <contour>
      <point x="521" y="-447" type="curve" smooth="yes"/>
      <point x="901" y="-447"/>
      <point x="1131" y="-302"/>
      <point x="1131" y="-62" type="curve" smooth="yes"/>
      <point x="1131" y="114"/>
      <point x="1003" y="206"/>
      <point x="755" y="206" type="curve" smooth="yes"/>
      <point x="425" y="206" type="line" smooth="yes"/>
      <point x="352" y="206"/>
      <point x="324" y="219"/>
      <point x="324" y="254" type="curve" smooth="yes"/>
      <point x="324" y="292"/>
      <point x="357" y="330"/>
      <point x="404" y="348" type="curve"/>
      <point x="259" y="390" type="line"/>
      <point x="138" y="312"/>
      <point x="81" y="228"/>
      <point x="81" y="127" type="curve" smooth="yes"/>
      <point x="81" y="-34"/>
      <point x="216" y="-133"/>
      <point x="448" y="-133" type="curve" smooth="yes"/>
      <point x="695" y="-133" type="line" smooth="yes"/>
      <point x="782" y="-133"/>
      <point x="814" y="-145"/>
      <point x="814" y="-178" type="curve" smooth="yes"/>
      <point x="814" y="-232"/>
      <point x="705" y="-266"/>
      <point x="536" y="-266" type="curve" smooth="yes"/>
      <point x="362" y="-266"/>
      <point x="274" y="-229"/>
      <point x="274" y="-156" type="curve" smooth="yes"/>
      <point x="274" y="-134"/>
      <point x="285" y="-104"/>
      <point x="301" y="-83" type="curve"/>
      <point x="176" y="-19" type="line"/>
      <point x="81" y="-59"/>
      <point x="32" y="-121"/>
      <point x="32" y="-199" type="curve" smooth="yes"/>
      <point x="32" y="-351"/>
      <point x="217" y="-447"/>
    </contour>
  </outline>
  <guideline angle="90" x="929" y="0"/>
  <guideline angle="90" x="206" y="0"/>
</glyph>
<glyph name="h" format="2">
  <advance width="1266"/>
  <unicode hex="0068"/>
  <anchor x="637" y="0" name="bottom"/>
  <anchor x="621" y="1417" name="top"/>
  <outline>
    <contour>
      <point x="96" y="0" type="line"/>
      <point x="96" y="1389" type="line"/>
      <point x="536" y="1443" type="line"/>
      <point x="536" y="0" type="line"/>
    </contour>
    <contour>
      <point x="739" y="0" type="line"/>
      <point x="739" y="590" type="line" smooth="yes"/>
      <point x="739" y="694"/>
      <point x="713" y="731"/>
      <point x="642" y="731" type="curve" smooth="yes"/>
      <point x="588" y="731"/>
      <point x="535" y="707"/>
      <point x="506" y="670" type="curve"/>
      <point x="506" y="827" type="line"/>
      <point x="600" y="924"/>
      <point x="729" y="980"/>
      <point x="861" y="980" type="curve" smooth="yes"/>
      <point x="1068" y="980"/>
      <point x="1179" y="853"/>
      <point x="1179" y="618" type="curve" smooth="yes"/>
      <point x="1179" y="0" type="line"/>
    </contour>
  </outline>
  <guideline angle="0" x="0" y="795"/>
  <guideline angle="90" x="316" y="0"/>
</glyph>
<glyph name="i" format="2">
  <advance width="632"/>
  <unicode hex="0069"/>
  <anchor x="316" y="0" name="bottom"/>
  <anchor x="316" y="1440" name="top.mkmk"/>
  <anchor x="632" y="1440" name="topright"/>
  <outline>
    <contour>
      <point x="96" y="0" type="line"/>
      <point x="536" y="0" type="line"/>
      <point x="536" y="953" type="line"/>
      <point x="96" y="953" type="line"/>
    </contour>
    <contour>
      <point x="311" y="1034" type="curve" smooth="yes"/>
      <point x="458" y="1034"/>
      <point x="550" y="1111"/>
      <point x="550" y="1234" type="curve" smooth="yes"/>
      <point x="550" y="1354"/>
      <point x="462" y="1428"/>
      <point x="318" y="1428" type="curve" smooth="yes"/>
      <point x="173" y="1428"/>
      <point x="82" y="1352"/>
      <point x="82" y="1231" type="curve" smooth="yes"/>
      <point x="82" y="1108"/>
      <point x="169" y="1034"/>
    </contour>
  </outline>
</glyph>
<glyph name="j" format="2">
  <advance width="628"/>
  <unicode hex="006A"/>
  <anchor x="175" y="-419" name="bottom"/>
  <anchor x="316" y="1440" name="top.mkmk"/>
  <outline>
    <contour>
      <point x="110" y="-443" type="curve" smooth="yes"/>
      <point x="14" y="-443"/>
      <point x="-61" y="-430"/>
      <point x="-151" y="-396" type="curve"/>
      <point x="-196" y="-212" type="line"/>
      <point x="-190" y="-205" type="line"/>
      <point x="-133" y="-223"/>
      <point x="-94" y="-230"/>
      <point x="-53" y="-230" type="curve" smooth="yes"/>
      <point x="55" y="-230"/>
      <point x="96" y="-176"/>
      <point x="96" y="-38" type="curve" smooth="yes"/>
      <point x="96" y="953" type="line"/>
      <point x="532" y="953" type="line"/>
      <point x="532" y="-82" type="line" smooth="yes"/>
      <point x="532" y="-323"/>
      <point x="392" y="-443"/>
    </contour>
    <contour>
      <point x="309" y="1034" type="curve" smooth="yes"/>
      <point x="167" y="1034"/>
      <point x="81" y="1108"/>
      <point x="81" y="1231" type="curve" smooth="yes"/>
      <point x="81" y="1352"/>
      <point x="171" y="1428"/>
      <point x="316" y="1428" type="curve" smooth="yes"/>
      <point x="460" y="1428"/>
      <point x="548" y="1354"/>
      <point x="548" y="1234" type="curve" smooth="yes"/>
      <point x="548" y="1111"/>
      <point x="456" y="1034"/>
    </contour>
  </outline>
</glyph>
<glyph name="l" format="2">
  <advance width="628"/>
  <unicode hex="006C"/>
  <anchor x="316" y="0" name="bottom"/>
  <anchor x="316" y="1417" name="top"/>
  <anchor x="628" y="1417" name="topright"/>
  <outline>
    <contour>
      <point x="94" y="0" type="line"/>
      <point x="534" y="0" type="line"/>
      <point x="534" y="1443" type="line"/>
      <point x="94" y="1389" type="line"/>
    </contour>
  </outline>
  <guideline angle="8.96176" x="-2" y="1378"/>
  <guideline angle="0" x="0" y="0"/>
  <guideline angle="0" x="0" y="0"/>
</glyph>
<glyph name="m" format="2">
  <advance width="1870"/>
  <unicode hex="006D"/>
  <anchor x="939" y="0" name="bottom"/>
  <anchor x="964" y="955" name="top"/>
  <outline>
    <contour>
      <point x="96" y="0" type="line"/>
      <point x="96" y="665" type="line" smooth="yes"/>
      <point x="96" y="765"/>
      <point x="86" y="882"/>
      <point x="71" y="953" type="curve"/>
      <point x="466" y="953" type="line"/>
      <point x="491" y="901"/>
      <point x="516" y="801"/>
      <point x="519" y="736" type="curve"/>
      <point x="531" y="705" type="line"/>
      <point x="531" y="0" type="line"/>
    </contour>
    <contour>
      <point x="722" y="0" type="line"/>
      <point x="722" y="590" type="line" smooth="yes"/>
      <point x="722" y="694"/>
      <point x="698" y="731"/>
      <point x="630" y="731" type="curve" smooth="yes"/>
      <point x="587" y="731"/>
      <point x="550" y="716"/>
      <point x="518" y="686" type="curve"/>
      <point x="489" y="812" type="line"/>
      <point x="584" y="920"/>
      <point x="709" y="980"/>
      <point x="844" y="980" type="curve" smooth="yes"/>
      <point x="1044" y="980"/>
      <point x="1157" y="858"/>
      <point x="1157" y="618" type="curve" smooth="yes"/>
      <point x="1157" y="0" type="line"/>
    </contour>
    <contour>
      <point x="1348" y="0" type="line"/>
      <point x="1348" y="590" type="line" smooth="yes"/>
      <point x="1348" y="694"/>
      <point x="1324" y="731"/>
      <point x="1256" y="731" type="curve" smooth="yes"/>
      <point x="1213" y="731"/>
      <point x="1176" y="716"/>
      <point x="1144" y="686" type="curve"/>
      <point x="1115" y="812" type="line"/>
      <point x="1210" y="919"/>
      <point x="1333" y="980"/>
      <point x="1470" y="980" type="curve" smooth="yes"/>
      <point x="1672" y="980"/>
      <point x="1783" y="856"/>
      <point x="1783" y="618" type="curve" smooth="yes"/>
      <point x="1783" y="0" type="line"/>
    </contour>
  </outline>
</glyph>
<glyph name="n" format="2">
  <advance width="1266"/>
  <unicode hex="006E"/>
  <anchor x="637" y="0" name="bottom"/>
  <anchor x="628" y="955" name="top"/>
  <outline>
    <contour>
      <point x="96" y="0" type="line"/>
      <point x="96" y="665" type="line" smooth="yes"/>
      <point x="96" y="768"/>
      <point x="86" y="885"/>
      <point x="71" y="953" type="curve"/>
      <point x="471" y="953" type="line"/>
      <point x="497" y="902"/>
      <point x="521" y="802"/>
      <point x="524" y="736" type="curve"/>
      <point x="536" y="705" type="line"/>
      <point x="536" y="0" type="line"/>
    </contour>
    <contour>
      <point x="739" y="0" type="line"/>
      <point x="739" y="590" type="line" smooth="yes"/>
      <point x="739" y="694"/>
      <point x="713" y="731"/>
      <point x="642" y="731" type="curve" smooth="yes"/>
      <point x="583" y="731"/>
      <point x="531" y="703"/>
      <point x="491" y="650" type="curve"/>
      <point x="491" y="806" type="line"/>
      <point x="595" y="920"/>
      <point x="722" y="980"/>
      <point x="861" y="980" type="curve" smooth="yes"/>
      <point x="1068" y="980"/>
      <point x="1179" y="853"/>
      <point x="1179" y="618" type="curve" smooth="yes"/>
      <point x="1179" y="0" type="line"/>
    </contour>
  </outline>
  <guideline angle="0" x="0" y="768"/>
</glyph>
<glyph name="o" format="2">
  <advance width="1264"/>
  <unicode hex="006F"/>
  <anchor x="632" y="0" name="bottom"/>
  <anchor x="631" y="955" name="top"/>
  <outline>
    <contour>
      <point x="613" y="-24" type="curve" smooth="yes"/>
      <point x="260" y="-24"/>
      <point x="55" y="156"/>
      <point x="55" y="466" type="curve" smooth="yes"/>
      <point x="55" y="787"/>
      <point x="275" y="980"/>
      <point x="642" y="980" type="curve" smooth="yes"/>
      <point x="998" y="980"/>
      <point x="1209" y="798"/>
      <point x="1209" y="491" type="curve" smooth="yes"/>
      <point x="1209" y="173"/>
      <point x="982" y="-24"/>
    </contour>
    <contour>
      <point x="629" y="170" type="curve" smooth="yes"/>
      <point x="716" y="170"/>
      <point x="756" y="270"/>
      <point x="756" y="485" type="curve" smooth="yes"/>
      <point x="756" y="694"/>
      <point x="718" y="786"/>
      <point x="631" y="786" type="curve" smooth="yes"/>
      <point x="544" y="786"/>
      <point x="507" y="695"/>
      <point x="507" y="481" type="curve" smooth="yes"/>
      <point x="507" y="266"/>
      <point x="545" y="170"/>
    </contour>
  </outline>
  <guideline angle="90" x="553" y="0"/>
</glyph>
<glyph name="p" format="2">
  <advance width="1268"/>
  <unicode hex="0070"/>
  <anchor x="591" y="-419" name="bottom"/>
  <anchor x="651" y="955" name="top"/>
  <outline>
    <contour>
      <point x="96" y="-419" type="line"/>
      <point x="96" y="665" type="line" smooth="yes"/>
      <point x="96" y="765"/>
      <point x="86" y="882"/>
      <point x="71" y="953" type="curve"/>
      <point x="471" y="953" type="line"/>
      <point x="491" y="912"/>
      <point x="515" y="823"/>
      <point x="522" y="763" type="curve"/>
      <point x="536" y="741" type="line"/>
      <point x="536" y="-419" type="line"/>
    </contour>
    <contour>
      <point x="754" y="-24" type="curve" smooth="yes"/>
      <point x="660" y="-24"/>
      <point x="577" y="3"/>
      <point x="506" y="55" type="curve"/>
      <point x="506" y="224" type="line"/>
      <point x="544" y="194"/>
      <point x="580" y="180"/>
      <point x="618" y="180" type="curve" smooth="yes"/>
      <point x="717" y="180"/>
      <point x="760" y="273"/>
      <point x="760" y="484" type="curve" smooth="yes"/>
      <point x="760" y="683"/>
      <point x="723" y="765"/>
      <point x="631" y="765" type="curve" smooth="yes"/>
      <point x="575" y="765"/>
      <point x="519" y="736"/>
      <point x="486" y="689" type="curve"/>
      <point x="486" y="852" type="line"/>
      <point x="557" y="940"/>
      <point x="649" y="980"/>
      <point x="776" y="980" type="curve" smooth="yes"/>
      <point x="1041" y="980"/>
      <point x="1213" y="792"/>
      <point x="1213" y="501" type="curve" smooth="yes"/>
      <point x="1213" y="194"/>
      <point x="1023" y="-24"/>
    </contour>
  </outline>
  <guideline angle="0" x="0" y="799"/>
  <guideline angle="0" x="0" y="134"/>
</glyph>
<glyph name="q" format="2">
  <advance width="1268"/>
  <unicode hex="0071"/>
  <anchor x="656" y="-419" name="bottom"/>
  <anchor x="678" y="955" name="top"/>
  <outline>
    <contour>
      <point x="489" y="-24" type="curve" smooth="yes"/>
      <point x="218" y="-24"/>
      <point x="55" y="158"/>
      <point x="55" y="459" type="curve" smooth="yes"/>
      <point x="55" y="777"/>
      <point x="251" y="980"/>
      <point x="545" y="980" type="curve" smooth="yes"/>
      <point x="657" y="980"/>
      <point x="746" y="944"/>
      <point x="819" y="871" type="curve"/>
      <point x="793" y="704" type="line"/>
      <point x="744" y="756"/>
      <point x="698" y="780"/>
      <point x="649" y="780" type="curve" smooth="yes"/>
      <point x="550" y="780"/>
      <point x="508" y="693"/>
      <point x="508" y="489" type="curve" smooth="yes"/>
      <point x="508" y="275"/>
      <point x="550" y="183"/>
      <point x="647" y="183" type="curve" smooth="yes"/>
      <point x="686" y="183"/>
      <point x="722" y="197"/>
      <point x="762" y="227" type="curve"/>
      <point x="762" y="73" type="line"/>
      <point x="693" y="9"/>
      <point x="601" y="-24"/>
    </contour>
    <contour>
      <point x="732" y="-419" type="line"/>
      <point x="732" y="759" type="line" smooth="yes"/>
      <point x="732" y="803"/>
      <point x="764" y="884"/>
      <point x="808" y="953" type="curve"/>
      <point x="1208" y="953" type="line"/>
      <point x="1184" y="857"/>
      <point x="1172" y="728"/>
      <point x="1172" y="576" type="curve" smooth="yes"/>
      <point x="1172" y="-419" type="line"/>
    </contour>
  </outline>
  <guideline angle="0" x="0" y="116"/>
</glyph>
<glyph name="r" format="2">
  <advance width="900"/>
  <unicode hex="0072"/>
  <anchor x="316" y="0" name="bottom"/>
  <anchor x="490" y="955" name="top"/>
  <outline>
    <contour>
      <point x="96" y="0" type="line"/>
      <point x="96" y="665" type="line" smooth="yes"/>
      <point x="96" y="765"/>
      <point x="86" y="882"/>
      <point x="71" y="953" type="curve"/>
      <point x="475" y="953" type="line"/>
      <point x="499" y="902"/>
      <point x="523" y="802"/>
      <point x="526" y="736" type="curve"/>
      <point x="536" y="705" type="line"/>
      <point x="536" y="0" type="line"/>
    </contour>
    <contour>
      <point x="506" y="570" type="curve"/>
      <point x="506" y="721" type="line"/>
      <point x="557" y="881"/>
      <point x="677" y="971"/>
      <point x="834" y="971" type="curve" smooth="yes"/>
      <point x="853" y="971"/>
      <point x="870" y="970"/>
      <point x="886" y="967" type="curve"/>
      <point x="886" y="669" type="line"/>
      <point x="850" y="673"/>
      <point x="821" y="675"/>
      <point x="792" y="675" type="curve" smooth="yes"/>
      <point x="659" y="675"/>
      <point x="554" y="636"/>
    </contour>
  </outline>
  <guideline angle="0" x="0" y="675"/>
</glyph>
<glyph name="s" format="2">
  <advance width="973"/>
  <unicode hex="0073"/>
  <anchor x="487" y="0" name="bottom"/>
  <anchor x="504" y="955" name="top"/>
  <outline>
    <contour>
      <point x="463" y="-24" type="curve" smooth="yes"/>
      <point x="331" y="-24"/>
      <point x="204" y="3"/>
      <point x="94" y="54" type="curve"/>
      <point x="46" y="257" type="line"/>
      <point x="52" y="263" type="line"/>
      <point x="145" y="215"/>
      <point x="289" y="180"/>
      <point x="395" y="180" type="curve" smooth="yes"/>
      <point x="467" y="180"/>
      <point x="503" y="197"/>
      <point x="503" y="231" type="curve" smooth="yes"/>
      <point x="503" y="270"/>
      <point x="479" y="286"/>
      <point x="362" y="329" type="curve" smooth="yes"/>
      <point x="230" y="377"/>
      <point x="55" y="443"/>
      <point x="55" y="639" type="curve" smooth="yes"/>
      <point x="55" y="847"/>
      <point x="255" y="980"/>
      <point x="566" y="980" type="curve" smooth="yes"/>
      <point x="686" y="980"/>
      <point x="808" y="959"/>
      <point x="890" y="924" type="curve"/>
      <point x="890" y="724" type="line"/>
      <point x="812" y="755"/>
      <point x="710" y="774"/>
      <point x="619" y="774" type="curve" smooth="yes"/>
      <point x="520" y="774"/>
      <point x="466" y="753"/>
      <point x="466" y="714" type="curve" smooth="yes"/>
      <point x="466" y="681"/>
      <point x="489" y="668"/>
      <point x="598" y="631" type="curve" smooth="yes"/>
      <point x="735" y="585"/>
      <point x="932" y="523"/>
      <point x="932" y="309" type="curve" smooth="yes"/>
      <point x="932" y="104"/>
      <point x="752" y="-24"/>
    </contour>
  </outline>
</glyph>
<glyph name="t" format="2">
  <advance width="847"/>
  <unicode hex="0074"/>
  <anchor x="473" y="0" name="bottom"/>
  <anchor x="358" y="1242" name="top"/>
  <anchor x="847" y="955" name="topright"/>
  <outline>
    <contour>
      <point x="474" y="-24" type="curve" smooth="yes"/>
      <point x="579" y="-24"/>
      <point x="693" y="3"/>
      <point x="781" y="49" type="curve"/>
      <point x="829" y="226" type="line"/>
      <point x="821" y="231" type="line"/>
      <point x="771" y="207"/>
      <point x="711" y="192"/>
      <point x="666" y="192" type="curve" smooth="yes"/>
      <point x="586" y="192"/>
      <point x="546" y="237"/>
      <point x="546" y="328" type="curve" smooth="yes"/>
      <point x="546" y="1268" type="line"/>
      <point x="110" y="1215" type="line"/>
      <point x="110" y="319" type="line" smooth="yes"/>
      <point x="110" y="93"/>
      <point x="240" y="-24"/>
    </contour>
    <contour>
      <point x="-5" y="738" type="line"/>
      <point x="800" y="738" type="line"/>
      <point x="800" y="944" type="line"/>
      <point x="319" y="944" type="line"/>
      <point x="23" y="932" type="line"/>
    </contour>
  </outline>
</glyph>
<glyph name="u" format="2">
  <advance width="1263"/>
  <unicode hex="0075"/>
  <anchor x="637" y="0" name="bottom"/>
  <anchor x="627" y="955" name="top"/>
  <outline>
    <contour>
      <point x="400" y="-24" type="curve" smooth="yes"/>
      <point x="193" y="-24"/>
      <point x="87" y="95"/>
      <point x="87" y="325" type="curve" smooth="yes"/>
      <point x="87" y="953" type="line"/>
      <point x="527" y="953" type="line"/>
      <point x="527" y="361" type="line" smooth="yes"/>
      <point x="527" y="260"/>
      <point x="551" y="225"/>
      <point x="622" y="225" type="curve" smooth="yes"/>
      <point x="667" y="225"/>
      <point x="704" y="239"/>
      <point x="740" y="271" type="curve"/>
      <point x="767" y="143" type="line"/>
      <point x="671" y="37"/>
      <point x="543" y="-24"/>
    </contour>
    <contour>
      <point x="792" y="0" type="line"/>
      <point x="767" y="52"/>
      <point x="742" y="152"/>
      <point x="739" y="217" type="curve"/>
      <point x="727" y="257" type="line"/>
      <point x="727" y="953" type="line"/>
      <point x="1167" y="953" type="line"/>
      <point x="1167" y="288" type="line" smooth="yes"/>
      <point x="1167" y="184"/>
      <point x="1177" y="69"/>
      <point x="1191" y="0" type="curve"/>
    </contour>
  </outline>
  <guideline angle="90" x="627" y="0"/>
</glyph>
<glyph name="v" format="2">
  <advance width="1181"/>
  <unicode hex="0076"/>
  <anchor x="593" y="0" name="bottom"/>
  <anchor x="640" y="955" name="top"/>
  <anchor x="1211" y="955" name="topright"/>
  <outline>
    <contour>
      <point x="364" y="0" type="line"/>
      <point x="817" y="0" type="line"/>
      <point x="1179" y="953" type="line"/>
      <point x="882" y="953" type="line"/>
      <point x="684" y="341" type="line"/>
      <point x="675" y="341" type="line"/>
      <point x="477" y="953" type="line"/>
      <point x="3" y="953" type="line"/>
    </contour>
  </outline>
</glyph>
<glyph name="w" format="2">
  <advance width="1602"/>
  <unicode hex="0077"/>
  <anchor x="793" y="0" name="bottom"/>
  <anchor x="877" y="955" name="top"/>
  <anchor x="1632" y="955" name="topright"/>
  <outline>
    <contour>
      <point x="276" y="0" type="line"/>
      <point x="680" y="0" type="line"/>
      <point x="747" y="253" type="line" smooth="yes"/>
      <point x="767" y="328"/>
      <point x="791" y="421"/>
      <point x="799" y="479" type="curve"/>
      <point x="808" y="479" type="line"/>
      <point x="815" y="420"/>
      <point x="839" y="326"/>
      <point x="857" y="253" type="curve" smooth="yes"/>
      <point x="919" y="0" type="line"/>
      <point x="1324" y="0" type="line"/>
      <point x="1591" y="953" type="line"/>
      <point x="1300" y="953" type="line"/>
      <point x="1213" y="580" type="line" smooth="yes"/>
      <point x="1201" y="528"/>
      <point x="1186" y="455"/>
      <point x="1180" y="407" type="curve"/>
      <point x="1171" y="407" type="line"/>
      <point x="1165" y="455"/>
      <point x="1148" y="528"/>
      <point x="1135" y="581" type="curve" smooth="yes"/>
      <point x="1045" y="953" type="line"/>
      <point x="743" y="953" type="line"/>
      <point x="642" y="583" type="line" smooth="yes"/>
      <point x="626" y="528"/>
      <point x="608" y="454"/>
      <point x="601" y="407" type="curve"/>
      <point x="591" y="407" type="line"/>
      <point x="586" y="455"/>
      <point x="573" y="528"/>
      <point x="561" y="583" type="curve" smooth="yes"/>
      <point x="480" y="953" type="line"/>
      <point x="14" y="953" type="line"/>
    </contour>
  </outline>
  <guideline angle="0" x="0" y="162"/>
  <guideline angle="107.082" x="292.365" y="0"/>
  <guideline angle="72.9178" x="1128.22" y="0"/>
</glyph>
<glyph name="x" format="2">
  <advance width="1188"/>
  <unicode hex="0078"/>
  <anchor x="587" y="0" name="bottom"/>
  <anchor x="612" y="955" name="top"/>
  <outline>
    <contour>
      <point x="676" y="0" type="line"/>
      <point x="22" y="953" type="line"/>
      <point x="524" y="953" type="line"/>
      <point x="1179" y="0" type="line"/>
    </contour>
    <contour>
      <point x="9" y="0" type="line"/>
      <point x="390" y="467" type="line"/>
      <point x="537" y="259" type="line"/>
      <point x="338" y="0" type="line"/>
    </contour>
    <contour>
      <point x="798" y="502" type="line"/>
      <point x="654" y="711" type="line"/>
      <point x="840" y="953" type="line"/>
      <point x="1166" y="953" type="line"/>
    </contour>
  </outline>
  <guideline angle="90" x="48" y="0"/>
  <guideline angle="90" x="891" y="0"/>
  <guideline angle="230.769" x="883" y="953"/>
</glyph>
<glyph name="y" format="2">
  <advance width="1156"/>
  <unicode hex="0079"/>
  <anchor x="522" y="-419" name="bottom"/>
  <anchor x="600" y="955" name="top"/>
  <outline>
    <contour>
      <point x="568" y="-17" type="line"/>
      <point x="501" y="-14"/>
      <point x="429" y="0"/>
      <point x="382" y="22" type="curve"/>
      <point x="-14" y="953" type="line"/>
      <point x="457" y="953" type="line"/>
      <point x="672" y="414" type="line"/>
      <point x="714" y="414" type="line"/>
    </contour>
    <contour>
      <point x="297" y="-446" type="curve" smooth="yes"/>
      <point x="255" y="-446"/>
      <point x="184" y="-441"/>
      <point x="121" y="-420" type="curve"/>
      <point x="45" y="-119" type="line"/>
      <point x="52" y="-113" type="line"/>
      <point x="129" y="-133"/>
      <point x="209" y="-146"/>
      <point x="294" y="-146" type="curve" smooth="yes"/>
      <point x="413" y="-146"/>
      <point x="502" y="-121"/>
      <point x="540" y="-7" type="curve" smooth="yes"/>
      <point x="864" y="953" type="line"/>
      <point x="1158" y="953" type="line"/>
      <point x="763" y="-56" type="line" smooth="yes"/>
      <point x="681" y="-266"/>
      <point x="548" y="-446"/>
    </contour>
  </outline>
  <guideline angle="0" x="0" y="18"/>
</glyph>
<glyph name="z" format="2">
  <advance width="1048"/>
  <unicode hex="007A"/>
  <anchor x="524" y="0" name="bottom"/>
  <anchor x="536" y="955" name="top"/>
  <outline>
    <contour>
      <point x="42" y="0" type="line"/>
      <point x="42" y="192" type="line"/>
      <point x="456" y="729" type="line"/>
      <point x="456" y="822" type="line"/>
      <point x="558" y="738" type="line"/>
      <point x="67" y="738" type="line"/>
      <point x="67" y="953" type="line"/>
      <point x="989" y="953" type="line"/>
      <point x="989" y="761" type="line"/>
      <point x="573" y="225" type="line"/>
      <point x="573" y="139" type="line"/>
      <point x="483" y="215" type="line"/>
      <point x="1007" y="215" type="line"/>
      <point x="976" y="0" type="line"/>
    </contour>
  </outline>
  <guideline angle="90" x="846" y="0"/>
  <guideline angle="90" x="73" y="0"/>
</glyph>
<glyph name="braceleft" format="2">
  <advance width="862"/>
  <unicode hex="007B"/>
  <outline>
    <contour>
      <point x="41" y="394" type="curve"/>
      <point x="58" y="592" type="line"/>
      <point x="221" y="610"/>
      <point x="285" y="676"/>
      <point x="285" y="824" type="curve" smooth="yes"/>
      <point x="285" y="886"/>
      <point x="275" y="1009"/>
      <point x="275" y="1070" type="curve" smooth="yes"/>
      <point x="275" y="1285"/>
      <point x="405" y="1384"/>
      <point x="688" y="1384" type="curve" smooth="yes"/>
      <point x="734" y="1384"/>
      <point x="771" y="1381"/>
      <point x="826" y="1374" type="curve"/>
      <point x="826" y="1171" type="line"/>
      <point x="798" y="1175"/>
      <point x="778" y="1176"/>
      <point x="759" y="1176" type="curve" smooth="yes"/>
      <point x="632" y="1176"/>
      <point x="587" y="1126"/>
      <point x="587" y="987" type="curve" smooth="yes"/>
      <point x="587" y="905"/>
      <point x="595" y="818"/>
      <point x="595" y="762" type="curve" smooth="yes"/>
      <point x="595" y="611"/>
      <point x="531" y="536"/>
      <point x="371" y="497" type="curve"/>
      <point x="371" y="489" type="line"/>
      <point x="531" y="449"/>
      <point x="595" y="374"/>
      <point x="595" y="224" type="curve" smooth="yes"/>
      <point x="595" y="169"/>
      <point x="587" y="81"/>
      <point x="587" y="-1" type="curve" smooth="yes"/>
      <point x="587" y="-140"/>
      <point x="637" y="-192"/>
      <point x="773" y="-192" type="curve" smooth="yes"/>
      <point x="792" y="-192"/>
      <point x="810" y="-191"/>
      <point x="826" y="-188" type="curve"/>
      <point x="826" y="-391" type="line"/>
      <point x="776" y="-398"/>
      <point x="741" y="-400"/>
      <point x="697" y="-400" type="curve" smooth="yes"/>
      <point x="406" y="-400"/>
      <point x="275" y="-300"/>
      <point x="275" y="-84" type="curve" smooth="yes"/>
      <point x="275" y="-24"/>
      <point x="285" y="100"/>
      <point x="285" y="161" type="curve" smooth="yes"/>
      <point x="285" y="312"/>
      <point x="219" y="375"/>
    </contour>
  </outline>
  <guideline angle="0" x="0" y="498"/>
  <guideline angle="0" x="0" y="1384"/>
  <guideline angle="85.0733" x="6.4155" y="0"/>
  <guideline angle="90" x="826" y="0"/>
</glyph>
<glyph name="braceright" format="2">
  <advance width="862"/>
  <unicode hex="007D"/>
  <outline>
    <contour>
      <point x="37" y="-187" type="line"/>
      <point x="65" y="-191"/>
      <point x="85" y="-192"/>
      <point x="104" y="-192" type="curve" smooth="yes"/>
      <point x="239" y="-192"/>
      <point x="276" y="-132"/>
      <point x="276" y="-3" type="curve" smooth="yes"/>
      <point x="276" y="79"/>
      <point x="268" y="168"/>
      <point x="268" y="224" type="curve" smooth="yes"/>
      <point x="268" y="375"/>
      <point x="331" y="449"/>
      <point x="491" y="488" type="curve"/>
      <point x="491" y="496" type="line"/>
      <point x="331" y="535"/>
      <point x="268" y="611"/>
      <point x="268" y="762" type="curve" smooth="yes"/>
      <point x="268" y="817"/>
      <point x="276" y="903"/>
      <point x="276" y="985" type="curve" smooth="yes"/>
      <point x="276" y="1124"/>
      <point x="228" y="1176"/>
      <point x="90" y="1176" type="curve" smooth="yes"/>
      <point x="71" y="1176"/>
      <point x="53" y="1175"/>
      <point x="37" y="1172" type="curve"/>
      <point x="37" y="1376" type="line"/>
      <point x="81" y="1382"/>
      <point x="117" y="1384"/>
      <point x="166" y="1384" type="curve" smooth="yes"/>
      <point x="454" y="1384"/>
      <point x="587" y="1284"/>
      <point x="587" y="1069" type="curve" smooth="yes"/>
      <point x="587" y="1009"/>
      <point x="577" y="885"/>
      <point x="577" y="824" type="curve" smooth="yes"/>
      <point x="577" y="673"/>
      <point x="643" y="610"/>
      <point x="821" y="591" type="curve"/>
      <point x="805" y="393" type="line"/>
      <point x="641" y="375"/>
      <point x="577" y="309"/>
      <point x="577" y="161" type="curve" smooth="yes"/>
      <point x="577" y="99"/>
      <point x="587" y="-24"/>
      <point x="587" y="-85" type="curve" smooth="yes"/>
      <point x="587" y="-301"/>
      <point x="457" y="-400"/>
      <point x="174" y="-400" type="curve" smooth="yes"/>
      <point x="128" y="-400"/>
      <point x="92" y="-397"/>
      <point x="37" y="-390" type="curve"/>
    </contour>
  </outline>
</glyph>
<glyph name="asciitilde" format="2">
  <advance width="1118"/>
  <unicode hex="007E"/>
  <outline>
    <contour>
      <point x="39" y="347" type="line"/>
      <point x="80" y="539"/>
      <point x="201" y="653"/>
      <point x="362" y="653" type="curve" smooth="yes"/>
      <point x="440" y="653"/>
      <point x="497" y="632"/>
      <point x="599" y="580" type="curve" smooth="yes"/>
      <point x="668" y="545"/>
      <point x="715" y="521"/>
      <point x="767" y="521" type="curve" smooth="yes"/>
      <point x="840" y="521"/>
      <point x="889" y="563"/>
      <point x="918" y="650" type="curve"/>
      <point x="1079" y="602" type="line"/>
      <point x="1035" y="404"/>
      <point x="923" y="294"/>
      <point x="765" y="294" type="curve" smooth="yes"/>
      <point x="693" y="294"/>
      <point x="635" y="313"/>
      <point x="529" y="367" type="curve" smooth="yes"/>
      <point x="443" y="411"/>
      <point x="403" y="424"/>
      <point x="360" y="424" type="curve" smooth="yes"/>
      <point x="287" y="424"/>
      <point x="237" y="382"/>
      <point x="209" y="296" type="curve"/>
    </contour>
  </outline>
  <guideline angle="0" x="0" y="546"/>
  <guideline angle="0" x="0" y="812"/>
  <guideline angle="0" x="0" y="473"/>
</glyph>
<glyph name="exclamdown" format="2">
  <advance width="660"/>
  <unicode hex="00A1"/>
  <outline>
    <contour>
      <point x="82" y="-430" type="line"/>
      <point x="554" y="-373" type="line"/>
      <point x="469" y="448" type="line"/>
      <point x="170" y="448" type="line"/>
    </contour>
    <contour>
      <point x="316" y="549" type="curve" smooth="yes"/>
      <point x="446" y="549"/>
      <point x="533" y="632"/>
      <point x="533" y="756" type="curve" smooth="yes"/>
      <point x="533" y="877"/>
      <point x="455" y="953"/>
      <point x="331" y="953" type="curve" smooth="yes"/>
      <point x="200" y="953"/>
      <point x="116" y="873"/>
      <point x="116" y="748" type="curve" smooth="yes"/>
      <point x="116" y="626"/>
      <point x="194" y="549"/>
    </contour>
  </outline>
</glyph>
<glyph name="sterling" format="2">
  <advance width="1117"/>
  <unicode hex="00A3"/>
  <outline>
    <contour>
      <point x="83" y="0" type="line"/>
      <point x="83" y="236" type="line"/>
      <point x="169" y="290"/>
      <point x="253" y="375"/>
      <point x="253" y="493" type="curve" smooth="yes"/>
      <point x="253" y="553"/>
      <point x="232" y="614"/>
      <point x="209" y="680" type="curve" smooth="yes"/>
      <point x="181" y="761"/>
      <point x="149" y="849"/>
      <point x="149" y="946" type="curve" smooth="yes"/>
      <point x="149" y="1127"/>
      <point x="260" y="1339"/>
      <point x="666" y="1339" type="curve" smooth="yes"/>
      <point x="824" y="1339"/>
      <point x="931" y="1307"/>
      <point x="1010" y="1274" type="curve"/>
      <point x="1010" y="1034" type="line"/>
      <point x="935" y="1066"/>
      <point x="867" y="1088"/>
      <point x="781" y="1088" type="curve" smooth="yes"/>
      <point x="645" y="1088"/>
      <point x="551" y="1033"/>
      <point x="551" y="884" type="curve" smooth="yes"/>
      <point x="551" y="817"/>
      <point x="570" y="772"/>
      <point x="589" y="725" type="curve" smooth="yes"/>
      <point x="610" y="675"/>
      <point x="633" y="622"/>
      <point x="633" y="540" type="curve" smooth="yes"/>
      <point x="633" y="403"/>
      <point x="571" y="337"/>
      <point x="476" y="260" type="curve"/>
      <point x="476" y="185" type="line"/>
      <point x="368" y="250" type="line"/>
      <point x="1067" y="250" type="line"/>
      <point x="1032" y="0" type="line"/>
    </contour>
    <contour>
      <point x="50" y="513" type="line"/>
      <point x="79" y="719" type="line"/>
      <point x="949" y="719" type="line"/>
      <point x="920" y="513" type="line"/>
    </contour>
  </outline>
  <guideline angle="82.0978" x="878.011" y="0"/>
</glyph>
<glyph name="currency" format="2">
  <advance width="1242"/>
  <unicode hex="00A4"/>
  <outline>
    <contour>
      <point x="620" y="182" type="curve" smooth="yes"/>
      <point x="899" y="182"/>
      <point x="1103" y="383"/>
      <point x="1103" y="658" type="curve" smooth="yes"/>
      <point x="1103" y="933"/>
      <point x="898" y="1135"/>
      <point x="620" y="1135" type="curve" smooth="yes"/>
      <point x="340" y="1135"/>
      <point x="137" y="934"/>
      <point x="137" y="658" type="curve" smooth="yes"/>
      <point x="137" y="383"/>
      <point x="341" y="182"/>
    </contour>
    <contour>
      <point x="620" y="444" type="curve" smooth="yes"/>
      <point x="496" y="444"/>
      <point x="408" y="532"/>
      <point x="408" y="658" type="curve" smooth="yes"/>
      <point x="408" y="784"/>
      <point x="495" y="873"/>
      <point x="620" y="873" type="curve" smooth="yes"/>
      <point x="745" y="873"/>
      <point x="832" y="784"/>
      <point x="832" y="658" type="curve" smooth="yes"/>
      <point x="832" y="532"/>
      <point x="744" y="444"/>
    </contour>
    <contour>
      <point x="228" y="70" type="line"/>
      <point x="407" y="248" type="line"/>
      <point x="211" y="445" type="line"/>
      <point x="32" y="266" type="line"/>
    </contour>
    <contour>
      <point x="1210" y="266" type="line"/>
      <point x="1034" y="442" type="line"/>
      <point x="838" y="245" type="line"/>
      <point x="1014" y="70" type="line"/>
    </contour>
    <contour>
      <point x="1014" y="1247" type="line"/>
      <point x="840" y="1073" type="line"/>
      <point x="1036" y="876" type="line"/>
      <point x="1210" y="1051" type="line"/>
    </contour>
    <contour>
      <point x="33" y="1051" type="line"/>
      <point x="207" y="877" type="line"/>
      <point x="403" y="1074" type="line"/>
      <point x="229" y="1247" type="line"/>
    </contour>
  </outline>
  <guideline angle="0" x="0" y="658"/>
  <guideline angle="225" x="1040" y="1051"/>
  <guideline angle="135" x="402" y="862"/>
</glyph>
<glyph name="yen" format="2">
  <advance width="1291"/>
  <unicode hex="00A5"/>
  <outline>
    <contour>
      <point x="423" y="0" type="line"/>
      <point x="869" y="0" type="line"/>
      <point x="869" y="629" type="line"/>
      <point x="1305" y="1314" type="line"/>
      <point x="946" y="1314" type="line"/>
      <point x="716" y="917" type="line"/>
      <point x="708" y="917" type="line"/>
      <point x="484" y="1314" type="line"/>
      <point x="-3" y="1314" type="line"/>
      <point x="423" y="623" type="line"/>
    </contour>
    <contour>
      <point x="195" y="160" type="line"/>
      <point x="1070" y="160" type="line"/>
      <point x="1097" y="362" type="line"/>
      <point x="223" y="362" type="line"/>
    </contour>
    <contour>
      <point x="194" y="452" type="line"/>
      <point x="1069" y="452" type="line"/>
      <point x="1096" y="653" type="line"/>
      <point x="222" y="653" type="line"/>
    </contour>
  </outline>
</glyph>
<glyph name="brokenbar" format="2">
  <advance width="705"/>
  <unicode hex="00A6"/>
  <outline>
    <contour>
      <point x="183" y="-9" type="line"/>
      <point x="183" y="563" type="line"/>
      <point x="522" y="563" type="line"/>
      <point x="522" y="-9" type="line"/>
    </contour>
    <contour>
      <point x="183" y="742" type="line"/>
      <point x="183" y="1314" type="line"/>
      <point x="522" y="1314" type="line"/>
      <point x="522" y="742" type="line"/>
    </contour>
  </outline>
</glyph>
<glyph name="section" format="2">
  <advance width="1026"/>
  <unicode hex="00A7"/>
  <outline>
    <contour>
      <point x="752" y="254" type="line"/>
      <point x="898" y="303"/>
      <point x="976" y="405"/>
      <point x="976" y="552" type="curve" smooth="yes"/>
      <point x="976" y="771"/>
      <point x="802" y="856"/>
      <point x="643" y="933" type="curve" smooth="yes"/>
      <point x="502" y="1001"/>
      <point x="477" y="1021"/>
      <point x="477" y="1064" type="curve" smooth="yes"/>
      <point x="477" y="1117"/>
      <point x="528" y="1144"/>
      <point x="630" y="1144" type="curve" smooth="yes"/>
      <point x="698" y="1144"/>
      <point x="780" y="1131"/>
      <point x="840" y="1110" type="curve"/>
      <point x="840" y="1297" type="line"/>
      <point x="774" y="1321"/>
      <point x="665" y="1338"/>
      <point x="570" y="1338" type="curve" smooth="yes"/>
      <point x="302" y="1338"/>
      <point x="141" y="1223"/>
      <point x="141" y="1026" type="curve" smooth="yes"/>
      <point x="141" y="824"/>
      <point x="319" y="739"/>
      <point x="478" y="664" type="curve" smooth="yes"/>
      <point x="615" y="599"/>
      <point x="651" y="565"/>
      <point x="651" y="497" type="curve" smooth="yes"/>
      <point x="651" y="435"/>
      <point x="613" y="391"/>
      <point x="550" y="381" type="curve"/>
    </contour>
    <contour>
      <point x="189" y="-196" type="line"/>
      <point x="220" y="-214"/>
      <point x="332" y="-280"/>
      <point x="507" y="-280" type="curve" smooth="yes"/>
      <point x="742" y="-280"/>
      <point x="886" y="-161"/>
      <point x="886" y="33" type="curve" smooth="yes"/>
      <point x="886" y="247"/>
      <point x="706" y="334"/>
      <point x="536" y="414" type="curve" smooth="yes"/>
      <point x="400" y="478"/>
      <point x="369" y="506"/>
      <point x="369" y="562" type="curve" smooth="yes"/>
      <point x="369" y="630"/>
      <point x="428" y="678"/>
      <point x="517" y="683" type="curve"/>
      <point x="294" y="801" type="line"/>
      <point x="133" y="753"/>
      <point x="50" y="653"/>
      <point x="50" y="513" type="curve" smooth="yes"/>
      <point x="50" y="309"/>
      <point x="224" y="220"/>
      <point x="381" y="141" type="curve" smooth="yes"/>
      <point x="519" y="72"/>
      <point x="544" y="50"/>
      <point x="544" y="-3" type="curve" smooth="yes"/>
      <point x="544" y="-56"/>
      <point x="510" y="-80"/>
      <point x="434" y="-80" type="curve" smooth="yes"/>
      <point x="350" y="-80"/>
      <point x="249" y="-53"/>
      <point x="154" y="-5" type="curve"/>
      <point x="147" y="-12" type="line"/>
    </contour>
  </outline>
  <guideline angle="0" x="0" y="-269"/>
  <guideline angle="90" x="786" y="0"/>
  <guideline angle="90" x="249" y="0"/>
</glyph>
<glyph name="copyright" format="2">
  <advance width="1560"/>
  <unicode hex="00A9"/>
  <outline>
    <contour>
      <point x="779" y="-46" type="curve" smooth="yes"/>
      <point x="1204" y="-46"/>
      <point x="1496" y="241"/>
      <point x="1496" y="657" type="curve" smooth="yes"/>
      <point x="1496" y="1073"/>
      <point x="1204" y="1360"/>
      <point x="780" y="1360" type="curve" smooth="yes"/>
      <point x="356" y="1360"/>
      <point x="64" y="1073"/>
      <point x="64" y="656" type="curve" smooth="yes"/>
      <point x="64" y="240"/>
      <point x="355" y="-46"/>
    </contour>
    <contour>
      <point x="779" y="110" type="curve" smooth="yes"/>
      <point x="458" y="110"/>
      <point x="245" y="328"/>
      <point x="245" y="656" type="curve" smooth="yes"/>
      <point x="245" y="985"/>
      <point x="459" y="1204"/>
      <point x="779" y="1204" type="curve" smooth="yes"/>
      <point x="1100" y="1204"/>
      <point x="1315" y="985"/>
      <point x="1315" y="656" type="curve" smooth="yes"/>
      <point x="1315" y="328"/>
      <point x="1101" y="110"/>
    </contour>
    <contour>
      <point x="1057" y="882" type="curve"/>
      <point x="1057" y="1044" type="line"/>
      <point x="991" y="1073"/>
      <point x="909" y="1089"/>
      <point x="823" y="1089" type="curve" smooth="yes"/>
      <point x="536" y="1089"/>
      <point x="363" y="925"/>
      <point x="363" y="653" type="curve" smooth="yes"/>
      <point x="363" y="388"/>
      <point x="530" y="226"/>
      <point x="803" y="226" type="curve" smooth="yes"/>
      <point x="897" y="226"/>
      <point x="989" y="248"/>
      <point x="1046" y="284" type="curve"/>
      <point x="1083" y="437" type="line"/>
      <point x="1079" y="441" type="line"/>
      <point x="1026" y="415"/>
      <point x="964" y="401"/>
      <point x="905" y="401" type="curve" smooth="yes"/>
      <point x="755" y="401"/>
      <point x="676" y="491"/>
      <point x="676" y="661" type="curve" smooth="yes"/>
      <point x="676" y="829"/>
      <point x="751" y="917"/>
      <point x="895" y="917" type="curve" smooth="yes"/>
      <point x="949" y="917"/>
      <point x="1008" y="904"/>
    </contour>
  </outline>
  <guideline angle="0" x="0" y="228"/>
</glyph>
<glyph name="ordfeminine" format="2">
  <advance width="884"/>
  <unicode hex="00AA"/>
  <outline>
    <contour>
      <point x="505" y="541" type="line"/>
      <point x="490" y="578"/>
      <point x="481" y="619"/>
      <point x="479" y="665" type="curve"/>
      <point x="473" y="693" type="line"/>
      <point x="473" y="926" type="line" smooth="yes"/>
      <point x="473" y="1010"/>
      <point x="438" y="1039"/>
      <point x="336" y="1039" type="curve" smooth="yes"/>
      <point x="258" y="1039"/>
      <point x="170" y="1025"/>
      <point x="117" y="1003" type="curve"/>
      <point x="112" y="1008" type="line"/>
      <point x="163" y="1138" type="line"/>
      <point x="226" y="1163"/>
      <point x="335" y="1179"/>
      <point x="435" y="1179" type="curve" smooth="yes"/>
      <point x="679" y="1179"/>
      <point x="801" y="1094"/>
      <point x="801" y="923" type="curve" smooth="yes"/>
      <point x="801" y="717" type="line" smooth="yes"/>
      <point x="801" y="661"/>
      <point x="807" y="599"/>
      <point x="819" y="541" type="curve"/>
    </contour>
    <contour>
      <point x="502" y="648" type="line"/>
      <point x="436" y="564"/>
      <point x="362" y="525"/>
      <point x="266" y="525" type="curve" smooth="yes"/>
      <point x="134" y="525"/>
      <point x="56" y="594"/>
      <point x="56" y="710" type="curve" smooth="yes"/>
      <point x="56" y="861"/>
      <point x="182" y="926"/>
      <point x="475" y="926" type="curve"/>
      <point x="503" y="926" type="line"/>
      <point x="503" y="839" type="line"/>
      <point x="475" y="839" type="line"/>
      <point x="415" y="838"/>
      <point x="382" y="809"/>
      <point x="382" y="758" type="curve" smooth="yes"/>
      <point x="382" y="716"/>
      <point x="404" y="687"/>
      <point x="435" y="687" type="curve" smooth="yes"/>
      <point x="461" y="687"/>
      <point x="476" y="698"/>
      <point x="503" y="739" type="curve"/>
    </contour>
  </outline>
  <guideline angle="90" color="1,0,0,1" x="165" y="0"/>
  <guideline angle="90" x="82" y="0"/>
</glyph>
<glyph name="logicalnot" format="2">
  <advance width="1118"/>
  <unicode hex="00AC"/>
  <outline>
    <contour>
      <point x="77" y="514" type="line"/>
      <point x="765" y="514" type="line"/>
      <point x="765" y="160" type="line"/>
      <point x="1027" y="160" type="line"/>
      <point x="1027" y="772" type="line"/>
      <point x="77" y="772" type="line"/>
    </contour>
  </outline>
  <guideline angle="0" x="0" y="357"/>
</glyph>
<glyph name="registered" format="2">
  <advance width="1318"/>
  <unicode hex="00AE"/>
  <outline>
    <contour>
      <point x="659" y="343" type="curve" smooth="yes"/>
      <point x="310" y="343"/>
      <point x="64" y="584"/>
      <point x="64" y="925" type="curve" smooth="yes"/>
      <point x="64" y="1266"/>
      <point x="311" y="1508"/>
      <point x="659" y="1508" type="curve" smooth="yes"/>
      <point x="1007" y="1508"/>
      <point x="1255" y="1266"/>
      <point x="1255" y="925" type="curve" smooth="yes"/>
      <point x="1255" y="584"/>
      <point x="1008" y="343"/>
    </contour>
    <contour>
      <point x="659" y="499" type="curve" smooth="yes"/>
      <point x="908" y="499"/>
      <point x="1081" y="674"/>
      <point x="1081" y="925" type="curve" smooth="yes"/>
      <point x="1081" y="1177"/>
      <point x="908" y="1352"/>
      <point x="659" y="1352" type="curve" smooth="yes"/>
      <point x="411" y="1352"/>
      <point x="238" y="1176"/>
      <point x="238" y="925" type="curve" smooth="yes"/>
      <point x="238" y="674"/>
      <point x="411" y="499"/>
    </contour>
    <contour>
      <point x="395" y="620" type="line"/>
      <point x="395" y="1235" type="line"/>
      <point x="678" y="1235" type="line" smooth="yes"/>
      <point x="852" y="1235"/>
      <point x="951" y="1168"/>
      <point x="951" y="1051" type="curve" smooth="yes"/>
      <point x="951" y="923"/>
      <point x="849" y="842"/>
      <point x="669" y="842" type="curve" smooth="yes"/>
      <point x="590" y="842" type="line"/>
      <point x="590" y="962" type="line"/>
      <point x="662" y="962" type="line" smooth="yes"/>
      <point x="695" y="962"/>
      <point x="713" y="990"/>
      <point x="713" y="1041" type="curve" smooth="yes"/>
      <point x="713" y="1090"/>
      <point x="696" y="1115"/>
      <point x="661" y="1115" type="curve" smooth="yes"/>
      <point x="620" y="1115" type="line"/>
      <point x="620" y="620" type="line"/>
    </contour>
    <contour>
      <point x="761" y="620" type="line"/>
      <point x="606" y="889" type="line"/>
      <point x="839" y="889" type="line"/>
      <point x="1010" y="620" type="line"/>
    </contour>
  </outline>
  <guideline angle="90" x="654" y="0"/>
</glyph>
<glyph name="degree" format="2">
  <advance width="894"/>
  <unicode hex="00B0"/>
  <outline>
    <contour>
      <point x="447" y="630" type="curve" smooth="yes"/>
      <point x="232" y="630"/>
      <point x="69" y="783"/>
      <point x="69" y="984" type="curve" smooth="yes"/>
      <point x="69" y="1185"/>
      <point x="232" y="1338"/>
      <point x="447" y="1338" type="curve" smooth="yes"/>
      <point x="662" y="1338"/>
      <point x="825" y="1185"/>
      <point x="825" y="984" type="curve" smooth="yes"/>
      <point x="825" y="783"/>
      <point x="662" y="630"/>
    </contour>
    <contour>
      <point x="447" y="845" type="curve" smooth="yes"/>
      <point x="525" y="845"/>
      <point x="579" y="902"/>
      <point x="579" y="984" type="curve" smooth="yes"/>
      <point x="579" y="1066"/>
      <point x="525" y="1123"/>
      <point x="447" y="1123" type="curve" smooth="yes"/>
      <point x="369" y="1123"/>
      <point x="315" y="1066"/>
      <point x="315" y="984" type="curve" smooth="yes"/>
      <point x="315" y="902"/>
      <point x="369" y="845"/>
    </contour>
  </outline>
  <guideline angle="90" x="456" y="0"/>
</glyph>
<glyph name="plusminus" format="2">
  <advance width="1118"/>
  <unicode hex="00B1"/>
  <outline>
    <contour>
      <point x="77" y="-24" type="line"/>
      <point x="77" y="225" type="line"/>
      <point x="1041" y="225" type="line"/>
      <point x="1041" y="-24" type="line"/>
    </contour>
    <contour>
      <point x="77" y="510" type="line"/>
      <point x="77" y="759" type="line"/>
      <point x="1041" y="759" type="line"/>
      <point x="1041" y="510" type="line"/>
    </contour>
    <contour>
      <point x="428" y="290" type="line"/>
      <point x="428" y="980" type="line"/>
      <point x="690" y="980" type="line"/>
      <point x="690" y="290" type="line"/>
    </contour>
  </outline>
  <guideline angle="0" x="0" y="634"/>
</glyph>
<glyph name="twosuperior" format="2">
  <advance width="761"/>
  <unicode hex="00B2"/>
  <outline>
    <contour>
      <point x="49" y="571" type="line"/>
      <point x="686" y="571" type="line"/>
      <point x="711" y="752" type="line"/>
      <point x="266" y="752" type="line"/>
      <point x="355" y="705" type="line"/>
      <point x="355" y="759" type="line"/>
      <point x="626" y="970"/>
      <point x="689" y="1049"/>
      <point x="689" y="1181" type="curve" smooth="yes"/>
      <point x="689" y="1343"/>
      <point x="568" y="1440"/>
      <point x="364" y="1440" type="curve" smooth="yes"/>
      <point x="259" y="1440"/>
      <point x="152" y="1413"/>
      <point x="75" y="1366" type="curve"/>
      <point x="75" y="1194" type="line"/>
      <point x="126" y="1226"/>
      <point x="188" y="1245"/>
      <point x="241" y="1245" type="curve" smooth="yes"/>
      <point x="313" y="1245"/>
      <point x="349" y="1210"/>
      <point x="349" y="1142" type="curve" smooth="yes"/>
      <point x="349" y="1007"/>
      <point x="202" y="902"/>
      <point x="49" y="743" type="curve"/>
    </contour>
  </outline>
</glyph>
<glyph name="threesuperior" format="2">
  <advance width="788"/>
  <unicode hex="00B3"/>
  <outline>
    <contour>
      <point x="78" y="618" type="curve"/>
      <point x="38" y="782" type="line"/>
      <point x="45" y="788" type="line"/>
      <point x="87" y="760"/>
      <point x="165" y="742"/>
      <point x="243" y="742" type="curve" smooth="yes"/>
      <point x="354" y="742"/>
      <point x="412" y="773"/>
      <point x="412" y="832" type="curve" smooth="yes"/>
      <point x="412" y="892"/>
      <point x="351" y="921"/>
      <point x="225" y="921" type="curve" smooth="yes"/>
      <point x="207" y="921"/>
      <point x="181" y="920"/>
      <point x="151" y="917" type="curve"/>
      <point x="151" y="1084" type="line"/>
      <point x="170" y="1083"/>
      <point x="194" y="1083"/>
      <point x="211" y="1083" type="curve" smooth="yes"/>
      <point x="330" y="1083"/>
      <point x="399" y="1117"/>
      <point x="399" y="1171" type="curve" smooth="yes"/>
      <point x="399" y="1218"/>
      <point x="343" y="1245"/>
      <point x="248" y="1245" type="curve" smooth="yes"/>
      <point x="188" y="1245"/>
      <point x="125" y="1233"/>
      <point x="75" y="1213" type="curve"/>
      <point x="75" y="1381" type="line"/>
      <point x="155" y="1420"/>
      <point x="252" y="1440"/>
      <point x="360" y="1440" type="curve" smooth="yes"/>
      <point x="579" y="1440"/>
      <point x="720" y="1353"/>
      <point x="720" y="1218" type="curve" smooth="yes"/>
      <point x="720" y="1125"/>
      <point x="656" y="1056"/>
      <point x="541" y="1023" type="curve"/>
      <point x="541" y="1018" type="line"/>
      <point x="665" y="996"/>
      <point x="739" y="920"/>
      <point x="739" y="814" type="curve" smooth="yes"/>
      <point x="739" y="661"/>
      <point x="579" y="555"/>
      <point x="349" y="555" type="curve" smooth="yes"/>
      <point x="247" y="555"/>
      <point x="144" y="579"/>
    </contour>
  </outline>
</glyph>
<glyph name="micro" format="2">
  <advance width="1278"/>
  <unicode hex="00B5"/>
  <outline>
    <contour>
      <point x="96" y="-419" type="line"/>
      <point x="530" y="-419" type="line"/>
      <point x="530" y="348" type="line"/>
      <point x="534" y="357" type="line"/>
      <point x="534" y="953" type="line"/>
      <point x="96" y="953" type="line"/>
    </contour>
    <contour>
      <point x="422" y="330" type="line"/>
      <point x="422" y="137"/>
      <point x="516" y="-24"/>
      <point x="629" y="-24" type="curve" smooth="yes"/>
      <point x="694" y="-24"/>
      <point x="741" y="26"/>
      <point x="785" y="143" type="curve"/>
      <point x="785" y="294" type="line"/>
      <point x="739" y="243"/>
      <point x="695" y="220"/>
      <point x="645" y="220" type="curve" smooth="yes"/>
      <point x="569" y="220"/>
      <point x="534" y="263"/>
      <point x="534" y="357" type="curve"/>
    </contour>
    <contour>
      <point x="809" y="0" type="curve"/>
      <point x="1209" y="0" type="line"/>
      <point x="1193" y="69"/>
      <point x="1182" y="184"/>
      <point x="1182" y="288" type="curve" smooth="yes"/>
      <point x="1182" y="953" type="line"/>
      <point x="744" y="953" type="line"/>
      <point x="744" y="252" type="line"/>
      <point x="756" y="217" type="line"/>
      <point x="759" y="152"/>
      <point x="784" y="52"/>
    </contour>
  </outline>
</glyph>
<glyph name="paragraph" format="2">
  <advance width="1322"/>
  <unicode hex="00B6"/>
  <outline>
    <contour>
      <point x="537" y="-306" type="line"/>
      <point x="537" y="490" type="line"/>
      <point x="527" y="490" type="line" smooth="yes"/>
      <point x="221" y="490"/>
      <point x="46" y="639"/>
      <point x="46" y="900" type="curve" smooth="yes"/>
      <point x="46" y="1164"/>
      <point x="224" y="1314"/>
      <point x="537" y="1314" type="curve" smooth="yes"/>
      <point x="1198" y="1314" type="line"/>
      <point x="1198" y="-226" type="line"/>
      <point x="928" y="-258" type="line"/>
      <point x="928" y="1088" type="line"/>
      <point x="807" y="1088" type="line"/>
      <point x="807" y="-273" type="line"/>
    </contour>
  </outline>
  <guideline angle="6.85969" x="0" y="-370.268"/>
</glyph>
<glyph name="onesuperior" format="2">
  <advance width="674"/>
  <unicode hex="00B9"/>
  <outline>
    <contour>
      <point x="234" y="571" type="line"/>
      <point x="566" y="571" type="line"/>
      <point x="566" y="1425" type="line"/>
      <point x="261" y="1425" type="line"/>
      <point x="205" y="1381"/>
      <point x="136" y="1342"/>
      <point x="35" y="1300" type="curve"/>
      <point x="35" y="1155" type="line"/>
      <point x="41" y="1152" type="line"/>
      <point x="115" y="1168"/>
      <point x="184" y="1189"/>
      <point x="234" y="1211" type="curve"/>
    </contour>
  </outline>
</glyph>
<glyph name="ordmasculine" format="2">
  <advance width="922"/>
  <unicode hex="00BA"/>
  <outline>
    <contour>
      <point x="446" y="525" type="curve" smooth="yes"/>
      <point x="202" y="525"/>
      <point x="60" y="643"/>
      <point x="60" y="845" type="curve" smooth="yes"/>
      <point x="60" y="1054"/>
      <point x="213" y="1179"/>
      <point x="470" y="1179" type="curve" smooth="yes"/>
      <point x="717" y="1179"/>
      <point x="862" y="1061"/>
      <point x="862" y="861" type="curve" smooth="yes"/>
      <point x="862" y="652"/>
      <point x="705" y="525"/>
    </contour>
    <contour>
      <point x="461" y="658" type="curve" smooth="yes"/>
      <point x="502" y="658"/>
      <point x="521" y="720"/>
      <point x="521" y="855" type="curve" smooth="yes"/>
      <point x="521" y="991"/>
      <point x="504" y="1045"/>
      <point x="460" y="1045" type="curve" smooth="yes"/>
      <point x="417" y="1045"/>
      <point x="402" y="995"/>
      <point x="402" y="854" type="curve" smooth="yes"/>
      <point x="402" y="713"/>
      <point x="419" y="658"/>
    </contour>
  </outline>
  <guideline angle="90" color="1,0,0,1" x="565" y="0"/>
</glyph>
<glyph name="questiondown" format="2">
  <advance width="892"/>
  <unicode hex="00BF"/>
  <outline>
    <contour>
      <point x="400" y="448" type="curve"/>
      <point x="675" y="448" type="line"/>
      <point x="685" y="416"/>
      <point x="690" y="380"/>
      <point x="690" y="348" type="curve" smooth="yes"/>
      <point x="690" y="252"/>
      <point x="652" y="188"/>
      <point x="554" y="99" type="curve" smooth="yes"/>
      <point x="486" y="38"/>
      <point x="462" y="13"/>
      <point x="462" y="-44" type="curve" smooth="yes"/>
      <point x="462" y="-130"/>
      <point x="521" y="-176"/>
      <point x="632" y="-176" type="curve" smooth="yes"/>
      <point x="705" y="-176"/>
      <point x="788" y="-155"/>
      <point x="846" y="-121" type="curve"/>
      <point x="846" y="-339" type="line"/>
      <point x="764" y="-382"/>
      <point x="635" y="-409"/>
      <point x="509" y="-409" type="curve" smooth="yes"/>
      <point x="227" y="-409"/>
      <point x="41" y="-289"/>
      <point x="41" y="-82" type="curve" smooth="yes"/>
      <point x="41" y="40"/>
      <point x="95" y="116"/>
      <point x="245" y="214" type="curve" smooth="yes"/>
      <point x="341" y="277"/>
      <point x="402" y="319"/>
      <point x="402" y="412" type="curve" smooth="yes"/>
      <point x="402" y="424"/>
      <point x="402" y="436"/>
    </contour>
    <contour>
      <point x="534" y="549" type="curve" smooth="yes"/>
      <point x="411" y="549"/>
      <point x="334" y="625"/>
      <point x="334" y="748" type="curve" smooth="yes"/>
      <point x="334" y="873"/>
      <point x="417" y="953"/>
      <point x="547" y="953" type="curve" smooth="yes"/>
      <point x="672" y="953"/>
      <point x="751" y="877"/>
      <point x="751" y="758" type="curve" smooth="yes"/>
      <point x="751" y="633"/>
      <point x="664" y="549"/>
    </contour>
  </outline>
</glyph>
<glyph name="AE" format="2">
  <advance width="1814"/>
  <unicode hex="00C6"/>
  <anchor x="960" y="0" name="bottom"/>
  <anchor x="1175" y="1314" name="top"/>
  <outline>
    <contour>
      <point x="-38" y="0" type="line"/>
      <point x="642" y="1314" type="line"/>
      <point x="1761" y="1314" type="line"/>
      <point x="1726" y="1073" type="line"/>
      <point x="1316" y="1073" type="line"/>
      <point x="1316" y="241" type="line"/>
      <point x="1782" y="241" type="line"/>
      <point x="1782" y="0" type="line"/>
      <point x="871" y="0" type="line"/>
      <point x="871" y="1073" type="line"/>
      <point x="837" y="1073" type="line"/>
      <point x="328" y="0" type="line"/>
    </contour>
    <contour>
      <point x="1286" y="561" type="line"/>
      <point x="1286" y="798" type="line"/>
      <point x="1664" y="798" type="line"/>
      <point x="1664" y="561" type="line"/>
    </contour>
    <contour>
      <point x="901" y="643" type="line"/>
      <point x="901" y="406" type="line"/>
      <point x="490" y="406" type="line"/>
      <point x="603" y="643" type="line"/>
    </contour>
  </outline>
  <guideline angle="0" x="0" y="475"/>
</glyph>
<glyph name="Eth" format="2">
  <advance width="1493"/>
  <unicode hex="00D0"/>
  <anchor x="730" y="0" name="bottom"/>
  <anchor x="730" y="1314" name="top"/>
  <anchor x="1433" y="1314" name="topright"/>
  <outline>
    <contour>
      <point x="175" y="0" type="line"/>
      <point x="693" y="0" type="line" smooth="yes"/>
      <point x="1154" y="0"/>
      <point x="1424" y="241"/>
      <point x="1424" y="675" type="curve" smooth="yes"/>
      <point x="1424" y="1095"/>
      <point x="1175" y="1314"/>
      <point x="696" y="1314" type="curve" smooth="yes"/>
      <point x="175" y="1314" type="line"/>
    </contour>
    <contour>
      <point x="623" y="1073" type="line"/>
      <point x="691" y="1073" type="line" smooth="yes"/>
      <point x="878" y="1073"/>
      <point x="967" y="943"/>
      <point x="967" y="670" type="curve" smooth="yes"/>
      <point x="967" y="391"/>
      <point x="874" y="241"/>
      <point x="700" y="241" type="curve" smooth="yes"/>
      <point x="623" y="241" type="line"/>
    </contour>
    <contour>
      <point x="10" y="561" type="line"/>
      <point x="814" y="561" type="line"/>
      <point x="846" y="789" type="line"/>
      <point x="10" y="789" type="line"/>
    </contour>
  </outline>
  <guideline angle="90" x="650" y="0"/>
</glyph>
<glyph name="multiply" format="2">
  <advance width="1118"/>
  <unicode hex="00D7"/>
  <outline>
    <contour>
      <point x="61" y="774" type="line"/>
      <point x="860" y="-24" type="line"/>
      <point x="1056" y="172" type="line"/>
      <point x="258" y="971" type="line"/>
    </contour>
    <contour>
      <point x="61" y="172" type="line"/>
      <point x="258" y="-24" type="line"/>
      <point x="1056" y="774" type="line"/>
      <point x="860" y="971" type="line"/>
    </contour>
  </outline>
</glyph>
<glyph name="Oslash" format="2">
  <advance width="1459"/>
  <unicode hex="00D8"/>
  <anchor x="714" y="0" name="bottom"/>
  <anchor x="730" y="1314" name="top"/>
  <anchor x="1399" y="1314" name="topright"/>
  <outline>
    <contour>
      <point x="717" y="-24" type="curve" smooth="yes"/>
      <point x="1133" y="-24"/>
      <point x="1390" y="241"/>
      <point x="1390" y="669" type="curve" smooth="yes"/>
      <point x="1390" y="1086"/>
      <point x="1143" y="1338"/>
      <point x="734" y="1338" type="curve" smooth="yes"/>
      <point x="320" y="1338"/>
      <point x="69" y="1080"/>
      <point x="69" y="654" type="curve" smooth="yes"/>
      <point x="69" y="231"/>
      <point x="312" y="-24"/>
    </contour>
    <contour>
      <point x="724" y="209" type="curve" smooth="yes"/>
      <point x="587" y="209"/>
      <point x="523" y="351"/>
      <point x="523" y="657" type="curve" smooth="yes"/>
      <point x="523" y="966"/>
      <point x="588" y="1105"/>
      <point x="731" y="1105" type="curve" smooth="yes"/>
      <point x="872" y="1105"/>
      <point x="936" y="969"/>
      <point x="936" y="672" type="curve" smooth="yes"/>
      <point x="936" y="361"/>
      <point x="866" y="209"/>
    </contour>
    <contour>
      <point x="283" y="-51" type="line"/>
      <point x="1363" y="1225" type="line"/>
      <point x="1174" y="1366" type="line"/>
      <point x="94" y="89" type="line"/>
    </contour>
  </outline>
</glyph>
<glyph name="Thorn" format="2">
  <advance width="1294"/>
  <unicode hex="00DE"/>
  <anchor x="647" y="0" name="bottom"/>
  <anchor x="647" y="1314" name="top"/>
  <anchor x="1204" y="1314" name="topright"/>
  <outline>
    <contour>
      <point x="105" y="0" type="line"/>
      <point x="555" y="0" type="line"/>
      <point x="555" y="1314" type="line"/>
      <point x="105" y="1314" type="line"/>
    </contour>
    <contour>
      <point x="525" y="248" type="line"/>
      <point x="678" y="248" type="line" smooth="yes"/>
      <point x="1031" y="248"/>
      <point x="1244" y="416"/>
      <point x="1244" y="694" type="curve" smooth="yes"/>
      <point x="1244" y="963"/>
      <point x="1046" y="1105"/>
      <point x="674" y="1105" type="curve" smooth="yes"/>
      <point x="525" y="1105" type="line"/>
      <point x="525" y="866" type="line"/>
      <point x="629" y="866" type="line" smooth="yes"/>
      <point x="732" y="866"/>
      <point x="787" y="804"/>
      <point x="787" y="686" type="curve" smooth="yes"/>
      <point x="787" y="566"/>
      <point x="729" y="494"/>
      <point x="631" y="494" type="curve" smooth="yes"/>
      <point x="525" y="494" type="line"/>
    </contour>
  </outline>
  <guideline angle="90" x="469" y="0"/>
</glyph>
<glyph name="germandbls" format="2">
  <advance width="1344"/>
  <unicode hex="00DF"/>
  <anchor x="652" y="0" name="bottom"/>
  <anchor x="648" y="1417" name="top"/>
  <anchor x="1314" y="1417" name="topright"/>
  <outline>
    <contour>
      <point x="96" y="0" type="line"/>
      <point x="532" y="0" type="line"/>
      <point x="532" y="1019" type="line" smooth="yes"/>
      <point x="532" y="1209"/>
      <point x="617" y="1228"/>
      <point x="660" y="1228" type="curve" smooth="yes"/>
      <point x="733" y="1228"/>
      <point x="780" y="1174"/>
      <point x="780" y="1070" type="curve" smooth="yes"/>
      <point x="780" y="983"/>
      <point x="748" y="935"/>
      <point x="697" y="864" type="curve" smooth="yes"/>
      <point x="653" y="804"/>
      <point x="611" y="750"/>
      <point x="611" y="660" type="curve" smooth="yes"/>
      <point x="611" y="519"/>
      <point x="710" y="436"/>
      <point x="782" y="376" type="curve" smooth="yes"/>
      <point x="817" y="347"/>
      <point x="890" y="298"/>
      <point x="890" y="241" type="curve" smooth="yes"/>
      <point x="890" y="205"/>
      <point x="859" y="185"/>
      <point x="809" y="185" type="curve" smooth="yes"/>
      <point x="754" y="185"/>
      <point x="666" y="206"/>
      <point x="600" y="236" type="curve"/>
      <point x="594" y="229" type="line"/>
      <point x="640" y="38" type="line"/>
      <point x="737" y="-4"/>
      <point x="837" y="-24"/>
      <point x="937" y="-24" type="curve" smooth="yes"/>
      <point x="1183" y="-24"/>
      <point x="1319" y="102"/>
      <point x="1319" y="293" type="curve" smooth="yes"/>
      <point x="1319" y="459"/>
      <point x="1217" y="545"/>
      <point x="1130" y="620" type="curve" smooth="yes"/>
      <point x="1053" y="685"/>
      <point x="1020" y="715"/>
      <point x="1020" y="770" type="curve" smooth="yes"/>
      <point x="1020" y="816"/>
      <point x="1044" y="841"/>
      <point x="1096" y="897" type="curve" smooth="yes"/>
      <point x="1141" y="946"/>
      <point x="1194" y="1001"/>
      <point x="1194" y="1104" type="curve" smooth="yes"/>
      <point x="1194" y="1242"/>
      <point x="1097" y="1443"/>
      <point x="670" y="1443" type="curve" smooth="yes"/>
      <point x="390" y="1443"/>
      <point x="96" y="1358"/>
      <point x="96" y="1002" type="curve" smooth="yes"/>
    </contour>
  </outline>
</glyph>
<glyph name="ae" format="2">
  <advance width="1800"/>
  <unicode hex="00E6"/>
  <anchor x="867" y="0" name="bottom"/>
  <anchor x="925" y="955" name="top"/>
  <outline>
    <contour>
      <point x="368" y="-24" type="curve" smooth="yes"/>
      <point x="168" y="-24"/>
      <point x="50" y="81"/>
      <point x="50" y="260" type="curve" smooth="yes"/>
      <point x="50" y="491"/>
      <point x="235" y="586"/>
      <point x="688" y="588" type="curve"/>
      <point x="714" y="588" type="line"/>
      <point x="714" y="454" type="line"/>
      <point x="688" y="454" type="line"/>
      <point x="556" y="453"/>
      <point x="489" y="408"/>
      <point x="489" y="319" type="curve" smooth="yes"/>
      <point x="489" y="253"/>
      <point x="524" y="214"/>
      <point x="582" y="214" type="curve" smooth="yes"/>
      <point x="636" y="214"/>
      <point x="687" y="250"/>
      <point x="723" y="313" type="curve"/>
      <point x="789" y="214" type="line"/>
      <point x="706" y="65"/>
      <point x="549" y="-24"/>
    </contour>
    <contour>
      <point x="1274" y="-24" type="curve" smooth="yes"/>
      <point x="901" y="-24"/>
      <point x="684" y="159"/>
      <point x="684" y="474" type="curve" smooth="yes"/>
      <point x="684" y="580" type="line" smooth="yes"/>
      <point x="684" y="725"/>
      <point x="624" y="778"/>
      <point x="461" y="778" type="curve" smooth="yes"/>
      <point x="352" y="778"/>
      <point x="219" y="755"/>
      <point x="138" y="723" type="curve"/>
      <point x="129" y="731" type="line"/>
      <point x="203" y="922" type="line"/>
      <point x="287" y="954"/>
      <point x="460" y="981"/>
      <point x="587" y="981" type="curve" smooth="yes"/>
      <point x="758" y="981"/>
      <point x="863" y="939"/>
      <point x="935" y="842" type="curve"/>
      <point x="859" y="842" type="line"/>
      <point x="946" y="933"/>
      <point x="1074" y="980"/>
      <point x="1237" y="980" type="curve" smooth="yes"/>
      <point x="1561" y="980"/>
      <point x="1745" y="797"/>
      <point x="1745" y="475" type="curve" smooth="yes"/>
      <point x="1745" y="455"/>
      <point x="1745" y="445"/>
      <point x="1744" y="434" type="curve"/>
      <point x="1085" y="434" type="line"/>
      <point x="1085" y="572" type="line"/>
      <point x="1374" y="572" type="line"/>
      <point x="1337" y="528" type="line"/>
      <point x="1337" y="721"/>
      <point x="1308" y="795"/>
      <point x="1233" y="795" type="curve" smooth="yes"/>
      <point x="1155" y="795"/>
      <point x="1115" y="702"/>
      <point x="1115" y="519" type="curve" smooth="yes"/>
      <point x="1115" y="292"/>
      <point x="1200" y="192"/>
      <point x="1419" y="192" type="curve" smooth="yes"/>
      <point x="1530" y="192"/>
      <point x="1639" y="219"/>
      <point x="1712" y="265" type="curve"/>
      <point x="1718" y="259" type="line"/>
      <point x="1685" y="82" type="line"/>
      <point x="1594" y="15"/>
      <point x="1444" y="-24"/>
    </contour>
  </outline>
  <guideline angle="0" x="0" y="842"/>
</glyph>
<glyph name="eth" format="2">
  <advance width="1268"/>
  <unicode hex="00F0"/>
  <anchor x="632" y="0" name="bottom"/>
  <anchor x="632" y="1417" name="top"/>
  <outline>
    <contour>
      <point x="625" y="-24" type="curve" smooth="yes"/>
      <point x="275" y="-24"/>
      <point x="55" y="166"/>
      <point x="55" y="469" type="curve" smooth="yes"/>
      <point x="55" y="748"/>
      <point x="255" y="936"/>
      <point x="539" y="936" type="curve" smooth="yes"/>
      <point x="610" y="936"/>
      <point x="686" y="922"/>
      <point x="749" y="897" type="curve"/>
      <point x="749" y="726" type="line"/>
      <point x="731" y="734"/>
      <point x="695" y="741"/>
      <point x="669" y="741" type="curve" smooth="yes"/>
      <point x="558" y="741"/>
      <point x="505" y="648"/>
      <point x="505" y="455" type="curve" smooth="yes"/>
      <point x="505" y="277"/>
      <point x="552" y="168"/>
      <point x="630" y="168" type="curve" smooth="yes"/>
      <point x="712" y="168"/>
      <point x="760" y="295"/>
      <point x="760" y="508" type="curve" smooth="yes"/>
      <point x="760" y="655"/>
      <point x="735" y="777"/>
      <point x="675" y="918" type="curve"/>
      <point x="683" y="924" type="line"/>
      <point x="578" y="1106"/>
      <point x="416" y="1263"/>
      <point x="201" y="1389" type="curve"/>
      <point x="201" y="1402" type="line"/>
      <point x="534" y="1443" type="line"/>
      <point x="974" y="1227"/>
      <point x="1209" y="915"/>
      <point x="1209" y="550" type="curve" smooth="yes"/>
      <point x="1209" y="192"/>
      <point x="989" y="-24"/>
    </contour>
    <contour>
      <point x="238" y="973" type="line"/>
      <point x="181" y="1149" type="line"/>
      <point x="1035" y="1441" type="line"/>
      <point x="1092" y="1264" type="line"/>
    </contour>
  </outline>
  <guideline angle="0" x="0" y="486"/>
  <guideline angle="76.304" x="-76.0698" y="0"/>
  <guideline angle="103.696" x="481.165" y="0"/>
  <guideline angle="103.696" x="1368.34" y="0"/>
  <guideline angle="0" x="0" y="808"/>
</glyph>
<glyph name="divide" format="2">
  <advance width="1118"/>
  <unicode hex="00F7"/>
  <outline>
    <contour>
      <point x="554" y="-24" type="curve" smooth="yes"/>
      <point x="460" y="-24"/>
      <point x="401" y="33"/>
      <point x="401" y="125" type="curve" smooth="yes"/>
      <point x="401" y="218"/>
      <point x="462" y="276"/>
      <point x="560" y="276" type="curve" smooth="yes"/>
      <point x="656" y="276"/>
      <point x="716" y="219"/>
      <point x="716" y="129" type="curve" smooth="yes"/>
      <point x="716" y="36"/>
      <point x="653" y="-24"/>
    </contour>
    <contour>
      <point x="77" y="348" type="line"/>
      <point x="77" y="598" type="line"/>
      <point x="1041" y="598" type="line"/>
      <point x="1041" y="348" type="line"/>
    </contour>
    <contour>
      <point x="554" y="671" type="curve" smooth="yes"/>
      <point x="459" y="671"/>
      <point x="401" y="728"/>
      <point x="401" y="819" type="curve" smooth="yes"/>
      <point x="401" y="912"/>
      <point x="462" y="971"/>
      <point x="560" y="971" type="curve" smooth="yes"/>
      <point x="656" y="971"/>
      <point x="716" y="914"/>
      <point x="716" y="824" type="curve" smooth="yes"/>
      <point x="716" y="731"/>
      <point x="653" y="671"/>
    </contour>
  </outline>
</glyph>
<glyph name="oslash" format="2">
  <advance width="1264"/>
  <unicode hex="00F8"/>
  <anchor x="632" y="0" name="bottom"/>
  <anchor x="631" y="955" name="top"/>
  <anchor x="1234" y="955" name="topright"/>
  <outline>
    <contour>
      <point x="620" y="-24" type="curve" smooth="yes"/>
      <point x="979" y="-24"/>
      <point x="1209" y="176"/>
      <point x="1209" y="487" type="curve" smooth="yes"/>
      <point x="1209" y="791"/>
      <point x="990" y="980"/>
      <point x="637" y="980" type="curve" smooth="yes"/>
      <point x="279" y="980"/>
      <point x="55" y="785"/>
      <point x="55" y="472" type="curve" smooth="yes"/>
      <point x="55" y="165"/>
      <point x="271" y="-24"/>
    </contour>
    <contour>
      <point x="627" y="168" type="curve" smooth="yes"/>
      <point x="538" y="168"/>
      <point x="502" y="256"/>
      <point x="502" y="475" type="curve" smooth="yes"/>
      <point x="502" y="699"/>
      <point x="539" y="788"/>
      <point x="633" y="788" type="curve" smooth="yes"/>
      <point x="724" y="788"/>
      <point x="761" y="702"/>
      <point x="761" y="488" type="curve" smooth="yes"/>
      <point x="761" y="264"/>
      <point x="721" y="168"/>
    </contour>
    <contour>
      <point x="54" y="118" type="line"/>
      <point x="201" y="-42" type="line"/>
      <point x="1210" y="838" type="line"/>
      <point x="1054" y="998" type="line"/>
    </contour>
  </outline>
  <guideline angle="330.721" x="0" y="1657.04"/>
  <guideline angle="330.721" x="0" y="12.8311"/>
</glyph>
<glyph name="thorn" format="2">
  <advance width="1268"/>
  <unicode hex="00FE"/>
  <anchor x="551" y="-419" name="bottom"/>
  <anchor x="665" y="1417" name="top"/>
  <anchor x="1238" y="955" name="topright"/>
  <outline>
    <contour>
      <point x="96" y="-419" type="line"/>
      <point x="536" y="-419" type="line"/>
      <point x="536" y="1443" type="line"/>
      <point x="96" y="1389" type="line"/>
    </contour>
    <contour>
      <point x="753" y="-24" type="curve" smooth="yes"/>
      <point x="1022" y="-24"/>
      <point x="1213" y="194"/>
      <point x="1213" y="501" type="curve" smooth="yes"/>
      <point x="1213" y="794"/>
      <point x="1042" y="980"/>
      <point x="774" y="980" type="curve" smooth="yes"/>
      <point x="664" y="980"/>
      <point x="570" y="946"/>
      <point x="506" y="883" type="curve"/>
      <point x="506" y="717" type="line"/>
      <point x="533" y="743"/>
      <point x="586" y="765"/>
      <point x="630" y="765" type="curve" smooth="yes"/>
      <point x="723" y="765"/>
      <point x="761" y="684"/>
      <point x="761" y="485" type="curve" smooth="yes"/>
      <point x="761" y="274"/>
      <point x="717" y="180"/>
      <point x="618" y="180" type="curve" smooth="yes"/>
      <point x="556" y="180"/>
      <point x="522" y="213"/>
      <point x="506" y="226" type="curve"/>
      <point x="506" y="55" type="line"/>
      <point x="577" y="3"/>
      <point x="661" y="-24"/>
    </contour>
  </outline>
  <guideline angle="0" x="0" y="808"/>
  <guideline angle="0" x="0" y="152"/>
</glyph>
<glyph name="aogonek" format="2">
  <advance width="1198"/>
  <unicode hex="0105"/>
  <anchor x="586" y="-437" name="bottom.mkmk"/>
  <anchor x="614" y="955" name="top"/>
  <outline>
    <contour>
      <point x="1139" y="0" type="line"/>
      <point x="1121" y="87"/>
      <point x="1111" y="183"/>
      <point x="1111" y="271" type="curve" smooth="yes"/>
      <point x="1111" y="600" type="line" smooth="yes"/>
      <point x="1111" y="852"/>
      <point x="937" y="980"/>
      <point x="595" y="980" type="curve" smooth="yes"/>
      <point x="451" y="980"/>
      <point x="300" y="958"/>
      <point x="203" y="922" type="curve"/>
      <point x="129" y="731" type="line"/>
      <point x="138" y="723" type="line"/>
      <point x="219" y="755"/>
      <point x="353" y="778"/>
      <point x="460" y="778" type="curve" smooth="yes"/>
      <point x="618" y="778"/>
      <point x="675" y="728"/>
      <point x="675" y="587" type="curve" smooth="yes"/>
      <point x="675" y="254" type="line"/>
      <point x="683" y="200" type="line"/>
      <point x="687" y="126"/>
      <point x="701" y="58"/>
      <point x="723" y="0" type="curve"/>
    </contour>
    <contour>
      <point x="596" y="-447" type="curve" smooth="yes"/>
      <point x="668" y="-447"/>
      <point x="746" y="-429"/>
      <point x="800" y="-400" type="curve"/>
      <point x="841" y="-237" type="line"/>
      <point x="834" y="-230" type="line"/>
      <point x="807" y="-249"/>
      <point x="753" y="-261"/>
      <point x="701" y="-261" type="curve" smooth="yes"/>
      <point x="619" y="-261"/>
      <point x="580" y="-228"/>
      <point x="580" y="-158" type="curve" smooth="yes"/>
      <point x="580" y="-83"/>
      <point x="623" y="19"/>
      <point x="706" y="136" type="curve"/>
      <point x="707" y="313" type="line"/>
      <point x="683" y="250"/>
      <point x="636" y="212"/>
      <point x="582" y="212" type="curve" smooth="yes"/>
      <point x="525" y="212"/>
      <point x="489" y="255"/>
      <point x="489" y="321" type="curve" smooth="yes"/>
      <point x="489" y="409"/>
      <point x="554" y="454"/>
      <point x="682" y="454" type="curve" smooth="yes"/>
      <point x="705" y="454" type="line"/>
      <point x="705" y="588" type="line"/>
      <point x="682" y="588" type="line" smooth="yes"/>
      <point x="240" y="588"/>
      <point x="50" y="491"/>
      <point x="50" y="264" type="curve" smooth="yes"/>
      <point x="50" y="86"/>
      <point x="166" y="-24"/>
      <point x="356" y="-24" type="curve" smooth="yes"/>
      <point x="422" y="-24"/>
      <point x="490" y="-9"/>
      <point x="542" y="17" type="curve"/>
      <point x="455" y="26" type="line"/>
      <point x="455" y="-17" type="line"/>
      <point x="388" y="-87"/>
      <point x="346" y="-176"/>
      <point x="346" y="-249" type="curve" smooth="yes"/>
      <point x="346" y="-370"/>
      <point x="444" y="-447"/>
    </contour>
  </outline>
</glyph>
<glyph name="dcroat" format="2">
  <advance width="1308"/>
  <unicode hex="0111"/>
  <anchor x="649" y="0" name="bottom"/>
  <anchor x="626" y="1417" name="top"/>
  <outline>
    <contour>
      <point x="489" y="-24" type="curve" smooth="yes"/>
      <point x="608" y="-24"/>
      <point x="698" y="10"/>
      <point x="777" y="86" type="curve"/>
      <point x="777" y="244" type="line"/>
      <point x="744" y="206"/>
      <point x="695" y="183"/>
      <point x="647" y="183" type="curve" smooth="yes"/>
      <point x="550" y="183"/>
      <point x="508" y="275"/>
      <point x="508" y="469" type="curve" smooth="yes"/>
      <point x="508" y="654"/>
      <point x="550" y="740"/>
      <point x="649" y="740" type="curve" smooth="yes"/>
      <point x="688" y="740"/>
      <point x="722" y="727"/>
      <point x="762" y="698" type="curve"/>
      <point x="762" y="884" type="line"/>
      <point x="696" y="923"/>
      <point x="632" y="940"/>
      <point x="545" y="940" type="curve" smooth="yes"/>
      <point x="257" y="940"/>
      <point x="55" y="743"/>
      <point x="55" y="439" type="curve" smooth="yes"/>
      <point x="55" y="158"/>
      <point x="218" y="-24"/>
    </contour>
    <contour>
      <point x="1200" y="0" type="line"/>
      <point x="1179" y="106"/>
      <point x="1172" y="264"/>
      <point x="1172" y="598" type="curve" smooth="yes"/>
      <point x="1172" y="1443" type="line"/>
      <point x="732" y="1389" type="line"/>
      <point x="732" y="380" type="line" smooth="yes"/>
      <point x="732" y="216"/>
      <point x="746" y="117"/>
      <point x="786" y="0" type="curve"/>
    </contour>
    <contour>
      <point x="1318" y="1026" type="line"/>
      <point x="1347" y="1233" type="line"/>
      <point x="428" y="1233" type="line"/>
      <point x="428" y="1026" type="line"/>
    </contour>
  </outline>
  <guideline angle="0" x="0" y="940"/>
  <guideline angle="0" x="0" y="1233"/>
</glyph>
<glyph name="Hbar" format="2">
  <advance width="1536"/>
  <unicode hex="0126"/>
  <anchor x="768" y="0" name="bottom"/>
  <anchor x="768" y="1314" name="top"/>
  <outline>
    <contour>
      <point x="1371" y="0" type="line"/>
      <point x="1371" y="1314" type="line"/>
      <point x="921" y="1314" type="line"/>
      <point x="921" y="0" type="line"/>
    </contour>
    <contour>
      <point x="615" y="0" type="line"/>
      <point x="615" y="1314" type="line"/>
      <point x="165" y="1314" type="line"/>
      <point x="165" y="0" type="line"/>
    </contour>
    <contour>
      <point x="951" y="524" type="line"/>
      <point x="951" y="756" type="line"/>
      <point x="585" y="756" type="line"/>
      <point x="585" y="524" type="line"/>
    </contour>
    <contour>
      <point x="1517" y="914" type="line"/>
      <point x="1546" y="1121" type="line"/>
      <point x="9" y="1121" type="line"/>
      <point x="9" y="914" type="line"/>
    </contour>
  </outline>
  <guideline angle="82.0107" x="1457" y="675"/>
</glyph>
<glyph name="hbar" format="2">
  <advance width="1311"/>
  <unicode hex="0127"/>
  <anchor x="682" y="0" name="bottom"/>
  <anchor x="666" y="1417" name="top"/>
  <anchor x="1291" y="955" name="topright"/>
  <outline>
    <contour>
      <point x="1224" y="0" type="line"/>
      <point x="1224" y="578" type="line" smooth="yes"/>
      <point x="1224" y="813"/>
      <point x="1113" y="940"/>
      <point x="906" y="940" type="curve" smooth="yes"/>
      <point x="774" y="940"/>
      <point x="645" y="884"/>
      <point x="551" y="787" type="curve"/>
      <point x="551" y="630" type="line"/>
      <point x="580" y="667"/>
      <point x="633" y="691"/>
      <point x="687" y="691" type="curve" smooth="yes"/>
      <point x="758" y="691"/>
      <point x="784" y="654"/>
      <point x="784" y="550" type="curve" smooth="yes"/>
      <point x="784" y="0" type="line"/>
    </contour>
    <contour>
      <point x="581" y="0" type="line"/>
      <point x="581" y="1443" type="line"/>
      <point x="141" y="1389" type="line"/>
      <point x="141" y="0" type="line"/>
    </contour>
    <contour>
      <point x="874" y="1026" type="line"/>
      <point x="903" y="1233" type="line"/>
      <point x="-15" y="1233" type="line"/>
      <point x="-15" y="1026" type="line"/>
    </contour>
  </outline>
  <guideline angle="82.0107" x="825" y="675"/>
  <guideline angle="0" x="0" y="940"/>
</glyph>
<glyph name="kgreenlandic" format="2">
  <advance width="1291"/>
  <unicode hex="0138"/>
  <anchor x="649" y="0" name="bottom"/>
  <anchor x="639" y="955" name="top"/>
  <anchor x="1291" y="955" name="topright"/>
  <outline>
    <contour>
      <point x="803" y="0" type="line"/>
      <point x="1291" y="0" type="line"/>
      <point x="894" y="612" type="line"/>
      <point x="894" y="545" type="line"/>
      <point x="1215" y="953" type="line"/>
      <point x="856" y="953" type="line"/>
      <point x="509" y="505" type="line"/>
    </contour>
    <contour>
      <point x="96" y="0" type="line"/>
      <point x="536" y="0" type="line"/>
      <point x="536" y="953" type="line"/>
      <point x="96" y="953" type="line"/>
    </contour>
  </outline>
</glyph>
<glyph name="Lslash" format="2">
  <advance width="1106"/>
  <unicode hex="0141"/>
  <anchor x="613" y="0" name="bottom"/>
  <anchor x="390" y="1314" name="top"/>
  <outline>
    <contour>
      <point x="1058" y="0" type="line"/>
      <point x="1092" y="241" type="line"/>
      <point x="615" y="241" type="line"/>
      <point x="615" y="1314" type="line"/>
      <point x="165" y="1314" type="line"/>
      <point x="165" y="0" type="line"/>
    </contour>
    <contour>
      <point x="885" y="723" type="line"/>
      <point x="922" y="979" type="line"/>
      <point x="9" y="648" type="line"/>
      <point x="9" y="405" type="line"/>
    </contour>
  </outline>
  <guideline angle="261.694" x="899" y="822"/>
  <guideline angle="19.957" x="408" y="550"/>
  <guideline angle="19.957" x="408" y="793"/>
</glyph>
<glyph name="lslash" format="2">
  <advance width="846"/>
  <unicode hex="0142"/>
  <anchor x="425" y="0" name="bottom"/>
  <anchor x="425" y="1417" name="top"/>
  <outline>
    <contour>
      <point x="643" y="0" type="line"/>
      <point x="643" y="1443" type="line"/>
      <point x="203" y="1389" type="line"/>
      <point x="203" y="0" type="line"/>
    </contour>
    <contour>
      <point x="816" y="708" type="line"/>
      <point x="851" y="942" type="line"/>
      <point x="581" y="854" type="line"/>
      <point x="267" y="757" type="line"/>
      <point x="19" y="676" type="line"/>
      <point x="19" y="454" type="line"/>
      <point x="267" y="535" type="line"/>
      <point x="581" y="632" type="line"/>
    </contour>
  </outline>
  <guideline angle="261.754" x="838" y="956"/>
  <guideline angle="199.073" x="311" y="765"/>
  <guideline angle="199.073" x="311" y="543"/>
</glyph>
<glyph name="Eng" format="2">
  <advance width="1406"/>
  <unicode hex="014A"/>
  <anchor x="703" y="-419" name="bottom"/>
  <anchor x="703" y="1314" name="top"/>
  <outline>
    <contour>
      <point x="979" y="-447" type="curve" smooth="yes"/>
      <point x="1161" y="-447"/>
      <point x="1301" y="-328"/>
      <point x="1301" y="-87" type="curve" smooth="yes"/>
      <point x="1301" y="1314" type="line"/>
      <point x="964" y="1314" type="line"/>
      <point x="964" y="684" type="line"/>
      <point x="955" y="684" type="line"/>
      <point x="917" y="748"/>
      <point x="878" y="812"/>
      <point x="818" y="894" type="curve" smooth="yes"/>
      <point x="510" y="1314" type="line"/>
      <point x="105" y="1314" type="line"/>
      <point x="105" y="0" type="line"/>
      <point x="443" y="0" type="line"/>
      <point x="443" y="694" type="line"/>
      <point x="452" y="694" type="line"/>
      <point x="490" y="628"/>
      <point x="529" y="562"/>
      <point x="589" y="482" type="curve" smooth="yes"/>
      <point x="963" y="-20" type="line"/>
      <point x="963" y="-112" type="line" smooth="yes"/>
      <point x="963" y="-180"/>
      <point x="932" y="-234"/>
      <point x="836" y="-234" type="curve" smooth="yes"/>
      <point x="795" y="-234"/>
      <point x="756" y="-227"/>
      <point x="699" y="-209" type="curve"/>
      <point x="693" y="-216" type="line"/>
      <point x="738" y="-400" type="line"/>
      <point x="828" y="-434"/>
      <point x="883" y="-447"/>
    </contour>
  </outline>
</glyph>
<glyph name="eng" format="2">
  <advance width="1266"/>
  <unicode hex="014B"/>
  <anchor x="637" y="-419" name="bottom"/>
  <anchor x="628" y="955" name="top"/>
  <outline>
    <contour>
      <point x="743" y="-443" type="curve" smooth="yes"/>
      <point x="1034" y="-443"/>
      <point x="1179" y="-320"/>
      <point x="1179" y="-72" type="curve" smooth="yes"/>
      <point x="1179" y="618" type="line" smooth="yes"/>
      <point x="1179" y="853"/>
      <point x="1068" y="980"/>
      <point x="863" y="980" type="curve" smooth="yes"/>
      <point x="722" y="980"/>
      <point x="594" y="920"/>
      <point x="491" y="806" type="curve"/>
      <point x="491" y="650" type="line"/>
      <point x="531" y="703"/>
      <point x="583" y="731"/>
      <point x="643" y="731" type="curve" smooth="yes"/>
      <point x="713" y="731"/>
      <point x="739" y="693"/>
      <point x="739" y="590" type="curve" smooth="yes"/>
      <point x="739" y="-28" type="line" smooth="yes"/>
      <point x="739" y="-175"/>
      <point x="695" y="-230"/>
      <point x="576" y="-230" type="curve" smooth="yes"/>
      <point x="544" y="-230"/>
      <point x="510" y="-224"/>
      <point x="464" y="-210" type="curve"/>
      <point x="458" y="-217" type="line"/>
      <point x="503" y="-399" type="line"/>
      <point x="588" y="-431"/>
      <point x="654" y="-443"/>
    </contour>
    <contour>
      <point x="536" y="0" type="line"/>
      <point x="536" y="705" type="line"/>
      <point x="524" y="736" type="line"/>
      <point x="521" y="804"/>
      <point x="497" y="904"/>
      <point x="471" y="953" type="curve"/>
      <point x="71" y="953" type="line"/>
      <point x="86" y="887"/>
      <point x="96" y="770"/>
      <point x="96" y="665" type="curve" smooth="yes"/>
      <point x="96" y="0" type="line"/>
    </contour>
  </outline>
</glyph>
<glyph name="OE" format="2">
  <advance width="1846"/>
  <unicode hex="0152"/>
  <anchor x="972" y="0" name="bottom"/>
  <anchor x="998" y="1314" name="top"/>
  <anchor x="1876" y="1314" name="topright"/>
  <outline>
    <contour>
      <point x="708" y="-24" type="curve" smooth="yes"/>
      <point x="794" y="-24"/>
      <point x="874" y="-12"/>
      <point x="946" y="11" type="curve"/>
      <point x="946" y="253" type="line"/>
      <point x="889" y="225"/>
      <point x="837" y="211"/>
      <point x="784" y="211" type="curve" smooth="yes"/>
      <point x="610" y="211"/>
      <point x="523" y="361"/>
      <point x="523" y="664" type="curve" smooth="yes"/>
      <point x="523" y="963"/>
      <point x="607" y="1103"/>
      <point x="785" y="1103" type="curve" smooth="yes"/>
      <point x="845" y="1103"/>
      <point x="904" y="1083"/>
      <point x="948" y="1048" type="curve"/>
      <point x="948" y="1306" type="line"/>
      <point x="880" y="1328"/>
      <point x="809" y="1338"/>
      <point x="729" y="1338" type="curve" smooth="yes"/>
      <point x="321" y="1338"/>
      <point x="69" y="1080"/>
      <point x="69" y="650" type="curve" smooth="yes"/>
      <point x="69" y="228"/>
      <point x="308" y="-24"/>
    </contour>
    <contour>
      <point x="903" y="0" type="line"/>
      <point x="1814" y="0" type="line"/>
      <point x="1814" y="241" type="line"/>
      <point x="1348" y="241" type="line"/>
      <point x="1348" y="561" type="line"/>
      <point x="1696" y="561" type="line"/>
      <point x="1696" y="798" type="line"/>
      <point x="1348" y="798" type="line"/>
      <point x="1348" y="1073" type="line"/>
      <point x="1758" y="1073" type="line"/>
      <point x="1793" y="1314" type="line"/>
      <point x="903" y="1314" type="line"/>
    </contour>
  </outline>
</glyph>
<glyph name="oe" format="2">
  <advance width="1873"/>
  <unicode hex="0153"/>
  <anchor x="959" y="0" name="bottom"/>
  <anchor x="959" y="955" name="top"/>
  <outline>
    <contour>
      <point x="599" y="-24" type="curve" smooth="yes"/>
      <point x="258" y="-24"/>
      <point x="55" y="159"/>
      <point x="55" y="467" type="curve" smooth="yes"/>
      <point x="55" y="787"/>
      <point x="278" y="980"/>
      <point x="632" y="980" type="curve" smooth="yes"/>
      <point x="816" y="980"/>
      <point x="956" y="926"/>
      <point x="1051" y="818" type="curve"/>
      <point x="908" y="818" type="line"/>
      <point x="1007" y="928"/>
      <point x="1136" y="980"/>
      <point x="1310" y="980" type="curve" smooth="yes"/>
      <point x="1636" y="980"/>
      <point x="1818" y="799"/>
      <point x="1818" y="475" type="curve" smooth="yes"/>
      <point x="1818" y="455"/>
      <point x="1818" y="445"/>
      <point x="1817" y="434" type="curve"/>
      <point x="1159" y="434" type="line"/>
      <point x="1159" y="572" type="line"/>
      <point x="1447" y="572" type="line"/>
      <point x="1410" y="528" type="line"/>
      <point x="1410" y="721"/>
      <point x="1381" y="795"/>
      <point x="1306" y="795" type="curve" smooth="yes"/>
      <point x="1228" y="795"/>
      <point x="1189" y="702"/>
      <point x="1189" y="519" type="curve" smooth="yes"/>
      <point x="1189" y="288"/>
      <point x="1277" y="192"/>
      <point x="1492" y="192" type="curve" smooth="yes"/>
      <point x="1603" y="192"/>
      <point x="1712" y="219"/>
      <point x="1785" y="265" type="curve"/>
      <point x="1792" y="259" type="line"/>
      <point x="1758" y="82" type="line"/>
      <point x="1670" y="16"/>
      <point x="1516" y="-24"/>
      <point x="1350" y="-24" type="curve" smooth="yes"/>
      <point x="1153" y="-24"/>
      <point x="1001" y="33"/>
      <point x="900" y="144" type="curve"/>
      <point x="1035" y="144" type="line"/>
      <point x="934" y="32"/>
      <point x="788" y="-24"/>
    </contour>
    <contour>
      <point x="625" y="170" type="curve" smooth="yes"/>
      <point x="709" y="170"/>
      <point x="747" y="268"/>
      <point x="747" y="484" type="curve" smooth="yes"/>
      <point x="747" y="695"/>
      <point x="710" y="786"/>
      <point x="626" y="786" type="curve" smooth="yes"/>
      <point x="543" y="786"/>
      <point x="507" y="695"/>
      <point x="507" y="481" type="curve" smooth="yes"/>
      <point x="507" y="266"/>
      <point x="543" y="170"/>
    </contour>
  </outline>
</glyph>
<glyph name="tbar" format="2">
  <advance width="892"/>
  <unicode hex="0167"/>
  <anchor x="503" y="0" name="bottom"/>
  <anchor x="388" y="1242" name="top"/>
  <anchor x="892" y="955" name="topright"/>
  <outline>
    <contour>
      <point x="504" y="-24" type="curve" smooth="yes"/>
      <point x="609" y="-24"/>
      <point x="723" y="3"/>
      <point x="811" y="49" type="curve"/>
      <point x="859" y="226" type="line"/>
      <point x="851" y="231" type="line"/>
      <point x="801" y="207"/>
      <point x="741" y="192"/>
      <point x="696" y="192" type="curve" smooth="yes"/>
      <point x="616" y="192"/>
      <point x="576" y="237"/>
      <point x="576" y="328" type="curve" smooth="yes"/>
      <point x="576" y="1268" type="line"/>
      <point x="140" y="1215" type="line"/>
      <point x="140" y="319" type="line" smooth="yes"/>
      <point x="140" y="93"/>
      <point x="270" y="-24"/>
    </contour>
    <contour>
      <point x="803" y="392" type="line"/>
      <point x="832" y="598" type="line"/>
      <point x="25" y="598" type="line"/>
      <point x="25" y="392" type="line"/>
    </contour>
    <contour>
      <point x="803" y="738" type="line"/>
      <point x="830" y="944" type="line"/>
      <point x="349" y="944" type="line"/>
      <point x="25" y="932" type="line"/>
      <point x="25" y="738" type="line"/>
    </contour>
  </outline>
  <guideline angle="90" x="830" y="0"/>
  <guideline angle="261.987" x="818" y="501"/>
</glyph>
<glyph name="uogonek" format="2">
  <advance width="1263"/>
  <unicode hex="0173"/>
  <anchor x="594" y="-437" name="bottom.mkmk"/>
  <anchor x="637" y="955" name="top"/>
  <anchor x="1263" y="955" name="topright"/>
  <outline>
    <contour>
      <point x="660" y="-447" type="curve" smooth="yes"/>
      <point x="732" y="-447"/>
      <point x="810" y="-429"/>
      <point x="864" y="-400" type="curve"/>
      <point x="905" y="-237" type="line"/>
      <point x="898" y="-230" type="line"/>
      <point x="870" y="-248"/>
      <point x="815" y="-261"/>
      <point x="766" y="-261" type="curve" smooth="yes"/>
      <point x="682" y="-261"/>
      <point x="644" y="-227"/>
      <point x="644" y="-152" type="curve" smooth="yes"/>
      <point x="644" y="-84"/>
      <point x="678" y="-5"/>
      <point x="772" y="144" type="curve"/>
      <point x="740" y="271" type="line"/>
      <point x="704" y="239"/>
      <point x="668" y="225"/>
      <point x="623" y="225" type="curve" smooth="yes"/>
      <point x="551" y="225"/>
      <point x="527" y="260"/>
      <point x="527" y="361" type="curve" smooth="yes"/>
      <point x="527" y="953" type="line"/>
      <point x="87" y="953" type="line"/>
      <point x="87" y="325" type="line" smooth="yes"/>
      <point x="87" y="97"/>
      <point x="192" y="-24"/>
      <point x="390" y="-24" type="curve" smooth="yes"/>
      <point x="455" y="-24"/>
      <point x="530" y="-10"/>
      <point x="581" y="11" type="curve"/>
      <point x="519" y="25" type="line"/>
      <point x="519" y="-17" type="line"/>
      <point x="451" y="-88"/>
      <point x="410" y="-177"/>
      <point x="410" y="-253" type="curve" smooth="yes"/>
      <point x="410" y="-371"/>
      <point x="508" y="-447"/>
    </contour>
    <contour>
      <point x="1191" y="0" type="line"/>
      <point x="1177" y="74"/>
      <point x="1167" y="192"/>
      <point x="1167" y="288" type="curve" smooth="yes"/>
      <point x="1167" y="953" type="line"/>
      <point x="727" y="953" type="line"/>
      <point x="727" y="257" type="line"/>
      <point x="739" y="217" type="line"/>
      <point x="742" y="150"/>
      <point x="766" y="50"/>
      <point x="792" y="0" type="curve"/>
    </contour>
  </outline>
</glyph>
<glyph name="longs" format="2">
  <advance width="669"/>
  <unicode hex="017F"/>
  <anchor x="334" y="0" name="bottom"/>
  <anchor x="506" y="1417" name="top"/>
  <outline>
    <contour>
      <point x="543" y="0" type="line"/>
      <point x="543" y="1004" type="line" smooth="yes"/>
      <point x="543" y="1150"/>
      <point x="596" y="1209"/>
      <point x="725" y="1209" type="curve" smooth="yes"/>
      <point x="761" y="1209"/>
      <point x="793" y="1205"/>
      <point x="831" y="1195" type="curve"/>
      <point x="831" y="1417" type="line"/>
      <point x="765" y="1434"/>
      <point x="684" y="1443"/>
      <point x="604" y="1443" type="curve" smooth="yes"/>
      <point x="265" y="1443"/>
      <point x="105" y="1291"/>
      <point x="105" y="1003" type="curve" smooth="yes"/>
      <point x="105" y="0" type="line"/>
    </contour>
    <contour>
      <point x="264" y="738" type="line"/>
      <point x="264" y="944" type="line"/>
      <point x="23" y="934" type="line"/>
      <point x="-5" y="738" type="line"/>
    </contour>
  </outline>
</glyph>
<glyph name="Oopen" format="2">
  <advance width="1266"/>
  <unicode hex="0186"/>
  <anchor x="493" y="0" name="bottom"/>
  <anchor x="512" y="1314" name="top"/>
  <anchor x="1206" y="1314" name="topright"/>
  <outline>
    <contour>
      <point x="453" y="-24" type="curve" smooth="yes"/>
      <point x="915" y="-24"/>
      <point x="1197" y="238"/>
      <point x="1197" y="669" type="curve" smooth="yes"/>
      <point x="1197" y="1087"/>
      <point x="933" y="1338"/>
      <point x="492" y="1338" type="curve" smooth="yes"/>
      <point x="333" y="1338"/>
      <point x="186" y="1306"/>
      <point x="95" y="1250" type="curve"/>
      <point x="41" y="1035" type="line"/>
      <point x="47" y="1029" type="line"/>
      <point x="137" y="1068"/>
      <point x="237" y="1088"/>
      <point x="335" y="1088" type="curve" smooth="yes"/>
      <point x="598" y="1088"/>
      <point x="738" y="937"/>
      <point x="738" y="651" type="curve" smooth="yes"/>
      <point x="738" y="372"/>
      <point x="604" y="230"/>
      <point x="343" y="230" type="curve" smooth="yes"/>
      <point x="241" y="230"/>
      <point x="136" y="252"/>
      <point x="38" y="294" type="curve"/>
      <point x="38" y="56" type="line"/>
      <point x="156" y="4"/>
      <point x="302" y="-24"/>
    </contour>
  </outline>
  <guideline angle="90" x="38" y="0"/>
</glyph>
<glyph name="Eturned" format="2">
  <advance width="1062"/>
  <unicode hex="018E"/>
  <anchor x="492" y="0" name="bottom"/>
  <anchor x="498" y="1314" name="top"/>
  <anchor x="1062" y="1314" name="topright"/>
  <outline>
    <contour>
      <point x="61" y="241" type="line"/>
      <point x="27" y="0" type="line"/>
      <point x="957" y="0" type="line"/>
      <point x="957" y="1314" type="line"/>
      <point x="66" y="1314" type="line"/>
      <point x="66" y="1073" type="line"/>
      <point x="507" y="1073" type="line"/>
      <point x="507" y="798" type="line"/>
      <point x="150" y="798" type="line"/>
      <point x="150" y="561" type="line"/>
      <point x="507" y="561" type="line"/>
      <point x="507" y="241" type="line"/>
    </contour>
  </outline>
</glyph>
<glyph name="Schwa" format="2">
  <advance width="1378"/>
  <unicode hex="018F"/>
  <anchor x="673" y="0" name="bottom"/>
  <anchor x="651" y="1314" name="top"/>
  <outline>
    <contour>
      <point x="671" y="-24" type="curve" smooth="yes"/>
      <point x="295" y="-24"/>
      <point x="69" y="222"/>
      <point x="69" y="630" type="curve" smooth="yes"/>
      <point x="69" y="657"/>
      <point x="70" y="684"/>
      <point x="71" y="716" type="curve"/>
      <point x="890" y="716" type="line"/>
      <point x="890" y="479" type="line"/>
      <point x="449" y="479" type="line"/>
      <point x="502" y="543" type="line"/>
      <point x="496" y="317"/>
      <point x="561" y="211"/>
      <point x="681" y="211" type="curve" smooth="yes"/>
      <point x="804" y="211"/>
      <point x="858" y="326"/>
      <point x="858" y="588" type="curve" smooth="yes"/>
      <point x="858" y="945"/>
      <point x="759" y="1089"/>
      <point x="516" y="1089" type="curve" smooth="yes"/>
      <point x="409" y="1089"/>
      <point x="288" y="1059"/>
      <point x="134" y="994" type="curve"/>
      <point x="128" y="1000" type="line"/>
      <point x="182" y="1219" type="line"/>
      <point x="324" y="1297"/>
      <point x="486" y="1338"/>
      <point x="652" y="1338" type="curve" smooth="yes"/>
      <point x="1065" y="1338"/>
      <point x="1309" y="1087"/>
      <point x="1309" y="666" type="curve" smooth="yes"/>
      <point x="1309" y="243"/>
      <point x="1062" y="-24"/>
    </contour>
  </outline>
</glyph>
<glyph name="Eopen" format="2">
  <advance width="1132"/>
  <unicode hex="0190"/>
  <anchor x="622" y="0" name="bottom"/>
  <anchor x="652" y="1314" name="top"/>
  <outline>
    <contour>
      <point x="638" y="-24" type="curve" smooth="yes"/>
      <point x="799" y="-24"/>
      <point x="948" y="12"/>
      <point x="1044" y="74" type="curve"/>
      <point x="1099" y="296" type="line"/>
      <point x="1093" y="302" type="line"/>
      <point x="1021" y="258"/>
      <point x="895" y="230"/>
      <point x="769" y="230" type="curve" smooth="yes"/>
      <point x="581" y="230"/>
      <point x="474" y="292"/>
      <point x="474" y="401" type="curve" smooth="yes"/>
      <point x="474" y="509"/>
      <point x="582" y="560"/>
      <point x="811" y="560" type="curve" smooth="yes"/>
      <point x="859" y="560"/>
      <point x="901" y="558"/>
      <point x="930" y="554" type="curve"/>
      <point x="930" y="787" type="line"/>
      <point x="897" y="786"/>
      <point x="868" y="785"/>
      <point x="827" y="785" type="curve" smooth="yes"/>
      <point x="611" y="785"/>
      <point x="500" y="838"/>
      <point x="500" y="940" type="curve" smooth="yes"/>
      <point x="500" y="1035"/>
      <point x="597" y="1088"/>
      <point x="770" y="1088" type="curve" smooth="yes"/>
      <point x="872" y="1088"/>
      <point x="971" y="1070"/>
      <point x="1062" y="1034" type="curve"/>
      <point x="1062" y="1268" type="line"/>
      <point x="948" y="1316"/>
      <point x="822" y="1338"/>
      <point x="668" y="1338" type="curve" smooth="yes"/>
      <point x="307" y="1338"/>
      <point x="89" y="1210"/>
      <point x="89" y="998" type="curve" smooth="yes"/>
      <point x="89" y="858"/>
      <point x="184" y="754"/>
      <point x="360" y="702" type="curve"/>
      <point x="360" y="695" type="line"/>
      <point x="170" y="662"/>
      <point x="55" y="542"/>
      <point x="55" y="377" type="curve" smooth="yes"/>
      <point x="55" y="139"/>
      <point x="292" y="-24"/>
    </contour>
  </outline>
  <guideline angle="76.1486" x="1026" y="179"/>
</glyph>
<glyph name="fhook" format="2">
  <advance width="773"/>
  <unicode hex="0192"/>
  <outline>
    <contour>
      <point x="-181" y="-205" type="line"/>
      <point x="-124" y="-223"/>
      <point x="-85" y="-230"/>
      <point x="-44" y="-230" type="curve" smooth="yes"/>
      <point x="67" y="-230"/>
      <point x="105" y="-174"/>
      <point x="105" y="-38" type="curve" smooth="yes"/>
      <point x="105" y="1003" type="line" smooth="yes"/>
      <point x="105" y="1289"/>
      <point x="261" y="1443"/>
      <point x="602" y="1443" type="curve" smooth="yes"/>
      <point x="682" y="1443"/>
      <point x="763" y="1434"/>
      <point x="829" y="1417" type="curve"/>
      <point x="829" y="1195" type="line"/>
      <point x="791" y="1205"/>
      <point x="759" y="1209"/>
      <point x="723" y="1209" type="curve" smooth="yes"/>
      <point x="594" y="1209"/>
      <point x="542" y="1150"/>
      <point x="542" y="1004" type="curve" smooth="yes"/>
      <point x="542" y="-82" type="line" smooth="yes"/>
      <point x="542" y="-323"/>
      <point x="401" y="-443"/>
      <point x="119" y="-443" type="curve" smooth="yes"/>
      <point x="23" y="-443"/>
      <point x="-52" y="-430"/>
      <point x="-142" y="-396" type="curve"/>
      <point x="-187" y="-212" type="line"/>
    </contour>
    <contour>
      <point x="-3" y="738" type="line"/>
      <point x="25" y="934" type="line"/>
      <point x="266" y="944" type="line"/>
      <point x="762" y="944" type="line"/>
      <point x="762" y="738" type="line"/>
    </contour>
  </outline>
</glyph>
<glyph name="GammaLatin" format="2">
  <advance width="1397"/>
  <unicode hex="0194"/>
  <anchor x="698" y="-419" name="bottom"/>
  <anchor x="752" y="1314" name="top"/>
  <outline>
    <contour>
      <point x="696" y="-447" type="curve" smooth="yes"/>
      <point x="958" y="-446"/>
      <point x="1143" y="-294"/>
      <point x="1143" y="-80" type="curve" smooth="yes"/>
      <point x="1143" y="67"/>
      <point x="1056" y="225"/>
      <point x="902" y="357" type="curve"/>
      <point x="945" y="159" type="line"/>
      <point x="1387" y="1314" type="line"/>
      <point x="1046" y="1314" type="line"/>
      <point x="765" y="510" type="line"/>
      <point x="759" y="510" type="line"/>
      <point x="483" y="1314" type="line"/>
      <point x="11" y="1314" type="line"/>
      <point x="461" y="207" type="line"/>
      <point x="669" y="176" type="line"/>
      <point x="740" y="99"/>
      <point x="780" y="6"/>
      <point x="780" y="-81" type="curve" smooth="yes"/>
      <point x="780" y="-165"/>
      <point x="742" y="-212"/>
      <point x="674" y="-212" type="curve" smooth="yes"/>
      <point x="605" y="-212"/>
      <point x="560" y="-163"/>
      <point x="560" y="-88" type="curve" smooth="yes"/>
      <point x="560" y="-9"/>
      <point x="609" y="100"/>
      <point x="673" y="164" type="curve"/>
      <point x="761" y="160" type="line"/>
      <point x="574" y="379" type="line"/>
      <point x="375" y="184"/>
      <point x="298" y="50"/>
      <point x="298" y="-102" type="curve" smooth="yes"/>
      <point x="298" y="-316"/>
      <point x="451" y="-448"/>
    </contour>
  </outline>
  <guideline angle="90" x="731" y="0"/>
  <guideline angle="0" x="0" y="510"/>
  <guideline angle="0" x="0" y="-212"/>
</glyph>
<glyph name="IotaLatin" format="2">
  <advance width="870"/>
  <unicode hex="0196"/>
  <anchor x="462" y="0" name="bottom"/>
  <anchor x="329" y="1314" name="top"/>
  <outline>
    <contour>
      <point x="491" y="-24" type="curve" smooth="yes"/>
      <point x="607" y="-24"/>
      <point x="712" y="1"/>
      <point x="800" y="51" type="curve"/>
      <point x="854" y="269" type="line"/>
      <point x="848" y="275" type="line"/>
      <point x="798" y="244"/>
      <point x="744" y="229"/>
      <point x="690" y="229" type="curve" smooth="yes"/>
      <point x="606" y="229"/>
      <point x="550" y="266"/>
      <point x="550" y="374" type="curve" smooth="yes"/>
      <point x="550" y="1314" type="line"/>
      <point x="100" y="1314" type="line"/>
      <point x="100" y="330" type="line" smooth="yes"/>
      <point x="100" y="103"/>
      <point x="231" y="-24"/>
    </contour>
  </outline>
  <guideline angle="76.0875" x="827" y="160"/>
</glyph>
<glyph name="Ibar" format="2">
  <advance width="800"/>
  <unicode hex="0197"/>
  <anchor x="400" y="0" name="bottom"/>
  <anchor x="400" y="1314" name="top"/>
  <anchor x="780" y="1314" name="topright"/>
  <outline>
    <contour>
      <point x="625" y="0" type="line"/>
      <point x="625" y="1314" type="line"/>
      <point x="175" y="1314" type="line"/>
      <point x="175" y="0" type="line"/>
    </contour>
    <contour>
      <point x="778" y="561" type="line"/>
      <point x="810" y="789" type="line"/>
      <point x="10" y="789" type="line"/>
      <point x="10" y="561" type="line"/>
    </contour>
  </outline>
  <guideline angle="0" x="0" y="789"/>
  <guideline angle="82.0107" x="789" y="675"/>
  <guideline angle="0" x="0" y="561"/>
</glyph>
<glyph name="lbar" format="2">
  <advance width="813"/>
  <unicode hex="019A"/>
  <anchor x="406" y="0" name="bottom"/>
  <anchor x="406" y="1417" name="top"/>
  <anchor x="720" y="1417" name="topright"/>
  <outline>
    <contour>
      <point x="626" y="0" type="line"/>
      <point x="626" y="1443" type="line"/>
      <point x="186" y="1389" type="line"/>
      <point x="186" y="0" type="line"/>
    </contour>
    <contour>
      <point x="777" y="565" type="line"/>
      <point x="806" y="771" type="line"/>
      <point x="20" y="771" type="line"/>
      <point x="20" y="565" type="line"/>
    </contour>
  </outline>
  <guideline angle="0" x="0" y="591"/>
  <guideline angle="90" x="406" y="0"/>
</glyph>
<glyph name="lambdabar" format="2">
  <advance width="1188"/>
  <unicode hex="019B"/>
  <anchor x="617" y="0" name="bottom"/>
  <anchor x="514" y="1417" name="top"/>
  <outline>
    <contour>
      <point x="1190" y="0" type="line"/>
      <point x="757" y="1029" type="line" smooth="yes"/>
      <point x="630" y="1332"/>
      <point x="503" y="1443"/>
      <point x="268" y="1443" type="curve" smooth="yes"/>
      <point x="221" y="1443"/>
      <point x="176" y="1439"/>
      <point x="140" y="1431" type="curve"/>
      <point x="25" y="1121" type="line"/>
      <point x="34" y="1113" type="line"/>
      <point x="103" y="1129"/>
      <point x="174" y="1137"/>
      <point x="235" y="1137" type="curve" smooth="yes"/>
      <point x="396" y="1137"/>
      <point x="502" y="1077"/>
      <point x="528" y="982" type="curve"/>
      <point x="656" y="598" type="line"/>
      <point x="889" y="0" type="line"/>
    </contour>
    <contour>
      <point x="470" y="0" type="line"/>
      <point x="687" y="502" type="line"/>
      <point x="729" y="502" type="line"/>
      <point x="556" y="1029" type="line"/>
      <point x="0" y="0" type="line"/>
    </contour>
    <contour>
      <point x="1018" y="906" type="line"/>
      <point x="1051" y="1133" type="line"/>
      <point x="210" y="955" type="line"/>
      <point x="210" y="739" type="line"/>
    </contour>
  </outline>
  <guideline angle="0" x="0" y="1241"/>
  <guideline angle="107.258" x="198" y="874"/>
  <guideline angle="191.664" x="654" y="831"/>
  <guideline angle="261.754" x="1025" y="956"/>
</glyph>
<glyph name="Mturned" format="2">
  <advance width="1937"/>
  <unicode hex="019C"/>
  <anchor x="970" y="0" name="bottom"/>
  <anchor x="1018" y="1314" name="top"/>
  <anchor x="1937" y="1314" name="topright"/>
  <outline>
    <contour>
      <point x="628" y="-24" type="curve" smooth="yes"/>
      <point x="801" y="-24"/>
      <point x="905" y="17"/>
      <point x="968" y="110" type="curve"/>
      <point x="934" y="106" type="line"/>
      <point x="1027" y="20"/>
      <point x="1161" y="-24"/>
      <point x="1330" y="-24" type="curve" smooth="yes"/>
      <point x="1668" y="-24"/>
      <point x="1837" y="151"/>
      <point x="1837" y="457" type="curve" smooth="yes"/>
      <point x="1837" y="1314" type="line"/>
      <point x="1494" y="1314" type="line"/>
      <point x="1494" y="419" type="line" smooth="yes"/>
      <point x="1494" y="277"/>
      <point x="1456" y="215"/>
      <point x="1368" y="215" type="curve" smooth="yes"/>
      <point x="1278" y="215"/>
      <point x="1238" y="279"/>
      <point x="1238" y="421" type="curve" smooth="yes"/>
      <point x="1238" y="1314" type="line"/>
      <point x="797" y="1314" type="line"/>
      <point x="797" y="419" type="line" smooth="yes"/>
      <point x="797" y="277"/>
      <point x="759" y="215"/>
      <point x="671" y="215" type="curve" smooth="yes"/>
      <point x="581" y="215"/>
      <point x="541" y="279"/>
      <point x="541" y="421" type="curve" smooth="yes"/>
      <point x="541" y="1314" type="line"/>
      <point x="100" y="1314" type="line"/>
      <point x="100" y="457" type="line" smooth="yes"/>
      <point x="100" y="142"/>
      <point x="274" y="-24"/>
    </contour>
  </outline>
  <guideline angle="0" x="0" y="101"/>
  <guideline angle="90" x="969" y="0"/>
</glyph>
<glyph name="nlongright" format="2">
  <advance width="1266"/>
  <unicode hex="019E"/>
  <anchor x="637" y="-419" name="bottom"/>
  <anchor x="628" y="955" name="top"/>
  <anchor x="1246" y="955" name="topright"/>
  <outline>
    <contour>
      <point x="1179" y="-419" type="line"/>
      <point x="1179" y="618" type="line" smooth="yes"/>
      <point x="1179" y="853"/>
      <point x="1068" y="980"/>
      <point x="861" y="980" type="curve" smooth="yes"/>
      <point x="722" y="980"/>
      <point x="595" y="920"/>
      <point x="491" y="806" type="curve"/>
      <point x="491" y="650" type="line"/>
      <point x="531" y="703"/>
      <point x="583" y="731"/>
      <point x="642" y="731" type="curve" smooth="yes"/>
      <point x="713" y="731"/>
      <point x="739" y="694"/>
      <point x="739" y="590" type="curve" smooth="yes"/>
      <point x="739" y="-419" type="line"/>
    </contour>
    <contour>
      <point x="536" y="0" type="line"/>
      <point x="536" y="705" type="line"/>
      <point x="524" y="736" type="line"/>
      <point x="521" y="802"/>
      <point x="497" y="902"/>
      <point x="471" y="953" type="curve"/>
      <point x="71" y="953" type="line"/>
      <point x="86" y="885"/>
      <point x="96" y="768"/>
      <point x="96" y="665" type="curve" smooth="yes"/>
      <point x="96" y="0" type="line"/>
    </contour>
  </outline>
</glyph>
<glyph name="Obar" format="2">
  <advance width="1459"/>
  <unicode hex="019F"/>
  <anchor x="714" y="0" name="bottom"/>
  <anchor x="730" y="1314" name="top"/>
  <anchor x="1399" y="1314" name="topright"/>
  <outline>
    <contour>
      <point x="714" y="-24" type="curve" smooth="yes"/>
      <point x="1133" y="-24"/>
      <point x="1390" y="241"/>
      <point x="1390" y="672" type="curve" smooth="yes"/>
      <point x="1390" y="1091"/>
      <point x="1148" y="1338"/>
      <point x="737" y="1338" type="curve" smooth="yes"/>
      <point x="319" y="1338"/>
      <point x="69" y="1081"/>
      <point x="69" y="652" type="curve" smooth="yes"/>
      <point x="69" y="226"/>
      <point x="307" y="-24"/>
    </contour>
    <contour>
      <point x="727" y="211" type="curve" smooth="yes"/>
      <point x="591" y="211"/>
      <point x="523" y="342"/>
      <point x="523" y="660" type="curve" smooth="yes"/>
      <point x="523" y="982"/>
      <point x="588" y="1103"/>
      <point x="729" y="1103" type="curve" smooth="yes"/>
      <point x="868" y="1103"/>
      <point x="936" y="978"/>
      <point x="936" y="665" type="curve" smooth="yes"/>
      <point x="936" y="345"/>
      <point x="866" y="211"/>
    </contour>
    <contour>
      <point x="991" y="542" type="line"/>
      <point x="991" y="762" type="line"/>
      <point x="476" y="762" type="line"/>
      <point x="476" y="542" type="line"/>
    </contour>
  </outline>
</glyph>
<glyph name="UpsilonLatin" format="2">
  <advance width="1470"/>
  <unicode hex="01B1"/>
  <anchor x="732" y="0" name="bottom"/>
  <anchor x="732" y="1314" name="top"/>
  <anchor x="1480" y="1314" name="topright"/>
  <outline>
    <contour>
      <point x="731" y="-24" type="curve" smooth="yes"/>
      <point x="1137" y="-24"/>
      <point x="1397" y="183"/>
      <point x="1397" y="516" type="curve" smooth="yes"/>
      <point x="1397" y="746"/>
      <point x="1273" y="938"/>
      <point x="1077" y="1065" type="curve"/>
      <point x="1077" y="1074" type="line"/>
      <point x="1346" y="1074" type="line"/>
      <point x="1380" y="1314" type="line"/>
      <point x="814" y="1314" type="line"/>
      <point x="815" y="1088" type="line"/>
      <point x="905" y="925"/>
      <point x="948" y="734"/>
      <point x="948" y="569" type="curve" smooth="yes"/>
      <point x="948" y="346"/>
      <point x="869" y="211"/>
      <point x="730" y="211" type="curve" smooth="yes"/>
      <point x="598" y="211"/>
      <point x="522" y="333"/>
      <point x="522" y="557" type="curve" smooth="yes"/>
      <point x="522" y="736"/>
      <point x="571" y="953"/>
      <point x="655" y="1088" type="curve"/>
      <point x="656" y="1314" type="line"/>
      <point x="105" y="1314" type="line"/>
      <point x="105" y="1074" type="line"/>
      <point x="395" y="1074" type="line"/>
      <point x="395" y="1065" type="line"/>
      <point x="218" y="930"/>
      <point x="73" y="741"/>
      <point x="73" y="499" type="curve" smooth="yes"/>
      <point x="73" y="178"/>
      <point x="329" y="-24"/>
    </contour>
  </outline>
  <guideline angle="90" x="1397" y="0"/>
  <guideline angle="90" x="73" y="0"/>
  <guideline angle="0" x="0" y="1088"/>
</glyph>
<glyph name="Vhook" format="2">
  <advance width="1346"/>
  <unicode hex="01B2"/>
  <anchor x="661" y="0" name="bottom"/>
  <anchor x="654" y="1314" name="top"/>
  <anchor x="1296" y="1314" name="topright"/>
  <outline>
    <contour>
      <point x="739" y="1260" type="line"/>
      <point x="852" y="1106"/>
      <point x="933" y="905"/>
      <point x="933" y="641" type="curve" smooth="yes"/>
      <point x="933" y="378"/>
      <point x="851" y="215"/>
      <point x="704" y="215" type="curve" smooth="yes"/>
      <point x="599" y="215"/>
      <point x="546" y="296"/>
      <point x="546" y="471" type="curve" smooth="yes"/>
      <point x="546" y="1314" type="line"/>
      <point x="96" y="1314" type="line"/>
      <point x="96" y="532" type="line" smooth="yes"/>
      <point x="96" y="160"/>
      <point x="283" y="-24"/>
      <point x="656" y="-24" type="curve" smooth="yes"/>
      <point x="1032" y="-24"/>
      <point x="1277" y="257"/>
      <point x="1277" y="720" type="curve" smooth="yes"/>
      <point x="1277" y="981"/>
      <point x="1196" y="1185"/>
      <point x="1088" y="1332" type="curve"/>
      <point x="742" y="1267" type="line"/>
    </contour>
  </outline>
  <guideline angle="10.5208" x="905" y="1300"/>
</glyph>
<glyph name="clickalveolar" format="2">
  <advance width="833"/>
  <unicode hex="01C2"/>
  <anchor x="416" y="-418" name="bottom"/>
  <anchor x="416" y="1417" name="top"/>
  <anchor x="720" y="1417" name="topright"/>
  <outline>
    <contour>
      <point x="586" y="-419" type="line"/>
      <point x="586" y="1443" type="line"/>
      <point x="246" y="1401" type="line"/>
      <point x="246" y="-419" type="line"/>
    </contour>
    <contour>
      <point x="782" y="231" type="line"/>
      <point x="811" y="437" type="line"/>
      <point x="30" y="437" type="line"/>
      <point x="30" y="231" type="line"/>
    </contour>
    <contour>
      <point x="787" y="618" type="line"/>
      <point x="816" y="824" type="line"/>
      <point x="30" y="824" type="line"/>
      <point x="30" y="618" type="line"/>
    </contour>
  </outline>
  <guideline angle="0" x="0" y="591"/>
  <guideline angle="90" x="416" y="0"/>
</glyph>
<glyph name="Gbar" format="2">
  <advance width="1447"/>
  <unicode hex="01E4"/>
  <anchor x="733" y="0" name="bottom"/>
  <anchor x="785" y="1314" name="top"/>
  <anchor x="1377" y="1314" name="topright"/>
  <outline>
    <contour>
      <point x="807" y="-24" type="curve" smooth="yes"/>
      <point x="973" y="-24"/>
      <point x="1182" y="8"/>
      <point x="1277" y="48" type="curve"/>
      <point x="1176" y="262" type="line"/>
      <point x="1084" y="222"/>
      <point x="978" y="199"/>
      <point x="891" y="199" type="curve" smooth="yes"/>
      <point x="648" y="199"/>
      <point x="507" y="343"/>
      <point x="507" y="653" type="curve" smooth="yes"/>
      <point x="507" y="939"/>
      <point x="660" y="1088"/>
      <point x="944" y="1088" type="curve" smooth="yes"/>
      <point x="1049" y="1088"/>
      <point x="1151" y="1067"/>
      <point x="1245" y="1025" type="curve"/>
      <point x="1245" y="1259" type="line"/>
      <point x="1129" y="1312"/>
      <point x="995" y="1338"/>
      <point x="844" y="1338" type="curve" smooth="yes"/>
      <point x="361" y="1338"/>
      <point x="69" y="1081"/>
      <point x="69" y="641" type="curve" smooth="yes"/>
      <point x="69" y="211"/>
      <point x="346" y="-24"/>
    </contour>
    <contour>
      <point x="1277" y="48" type="line"/>
      <point x="1277" y="646" type="line"/>
      <point x="875" y="646" type="line"/>
      <point x="875" y="48" type="line"/>
    </contour>
    <contour>
      <point x="1413" y="319" type="line"/>
      <point x="1442" y="526" type="line"/>
      <point x="707" y="526" type="line"/>
      <point x="707" y="319" type="line"/>
    </contour>
  </outline>
  <guideline angle="82.0107" x="1458" y="675"/>
  <guideline angle="0" x="0" y="526"/>
</glyph>
